<?xml version="1.0" encoding="UTF-8" standalone="no"?>
<!-- Created with Inkscape (http://www.inkscape.org/) -->

<svg
   width="123.57373mm"
   height="129.54652mm"
   viewBox="0 0 123.57373 129.54652"
   version="1.1"
   id="svg1"
   inkscape:version="1.3.2 (091e20e, 2023-11-25, custom)"
   sodipodi:docname="chap11-1.svg"
   xmlns:inkscape="http://www.inkscape.org/namespaces/inkscape"
   xmlns:sodipodi="http://sodipodi.sourceforge.net/DTD/sodipodi-0.dtd"
   xmlns="http://www.w3.org/2000/svg"
   xmlns:svg="http://www.w3.org/2000/svg">
  <sodipodi:namedview
     id="namedview1"
     pagecolor="#ffffff"
     bordercolor="#111111"
     borderopacity="1"
     inkscape:showpageshadow="0"
     inkscape:pageopacity="0"
     inkscape:pagecheckerboard="false"
     inkscape:deskcolor="#d1d1d1"
     inkscape:document-units="mm"
     inkscape:zoom="1.5340488"
     inkscape:cx="283.88927"
     inkscape:cy="238.25839"
     inkscape:window-width="1920"
     inkscape:window-height="1057"
     inkscape:window-x="-8"
     inkscape:window-y="-8"
     inkscape:window-maximized="1"
     inkscape:current-layer="layer1" />
  <defs
     id="defs1">
    <marker
       style="overflow:visible"
       id="marker27"
       refX="0"
       refY="0"
       orient="auto-start-reverse"
       inkscape:stockid="Concave triangle arrow"
       markerWidth="1"
       markerHeight="1"
       viewBox="0 0 1 1"
       inkscape:isstock="true"
       inkscape:collect="always"
       preserveAspectRatio="xMidYMid">
      <path
         transform="scale(0.7)"
         d="M -2,-4 9,0 -2,4 c 2,-2.33 2,-5.66 0,-8 z"
         style="fill:context-stroke;fill-rule:evenodd;stroke:none"
         id="path27" />
    </marker>
    <marker
       style="overflow:visible"
       id="marker24"
       refX="0"
       refY="0"
       orient="auto-start-reverse"
       inkscape:stockid="Concave triangle arrow"
       markerWidth="1"
       markerHeight="1"
       viewBox="0 0 1 1"
       inkscape:isstock="true"
       inkscape:collect="always"
       preserveAspectRatio="xMidYMid">
      <path
         transform="scale(0.7)"
         d="M -2,-4 9,0 -2,4 c 2,-2.33 2,-5.66 0,-8 z"
         style="fill:context-stroke;fill-rule:evenodd;stroke:none"
         id="path24" />
    </marker>
    <marker
       style="overflow:visible"
       id="marker23"
       refX="0"
       refY="0"
       orient="auto-start-reverse"
       inkscape:stockid="Concave triangle arrow"
       markerWidth="1"
       markerHeight="1"
       viewBox="0 0 1 1"
       inkscape:isstock="true"
       inkscape:collect="always"
       preserveAspectRatio="xMidYMid">
      <path
         transform="scale(0.7)"
         d="M -2,-4 9,0 -2,4 c 2,-2.33 2,-5.66 0,-8 z"
         style="fill:context-stroke;fill-rule:evenodd;stroke:none"
         id="path23" />
    </marker>
    <marker
       style="overflow:visible"
       id="marker22"
       refX="0"
       refY="0"
       orient="auto-start-reverse"
       inkscape:stockid="Concave triangle arrow"
       markerWidth="1"
       markerHeight="1"
       viewBox="0 0 1 1"
       inkscape:isstock="true"
       inkscape:collect="always"
       preserveAspectRatio="xMidYMid">
      <path
         transform="scale(0.7)"
         d="M -2,-4 9,0 -2,4 c 2,-2.33 2,-5.66 0,-8 z"
         style="fill:context-stroke;fill-rule:evenodd;stroke:none"
         id="path22" />
    </marker>
    <marker
       style="overflow:visible"
       id="ConcaveTriangle"
       refX="0"
       refY="0"
       orient="auto-start-reverse"
       inkscape:stockid="Concave triangle arrow"
       markerWidth="1"
       markerHeight="1"
       viewBox="0 0 1 1"
       inkscape:isstock="true"
       inkscape:collect="always"
       preserveAspectRatio="xMidYMid">
      <path
         transform="scale(0.7)"
         d="M -2,-4 9,0 -2,4 c 2,-2.33 2,-5.66 0,-8 z"
         style="fill:context-stroke;fill-rule:evenodd;stroke:none"
         id="path7" />
    </marker>
  </defs>
  <g
     inkscape:label="Layer 1"
     inkscape:groupmode="layer"
     id="layer1"
     transform="translate(-46.073629,-56.769465)">
    <g
       id="g26"
       transform="matrix(1.3318215,0,0,1.0949691,-25.070346,7.953997)"
       style="stroke-width:0.828087">
      <g
         id="g25"
         style="stroke-width:0.828087">
        <g
           id="g24"
           style="stroke-width:0.828087">
          <g
             id="g4"
             transform="matrix(1.2067416,0,0,1.1862745,-20.592694,25.511801)"
             style="stroke-width:0.692112">
            <ellipse
               style="fill:none;stroke:#000000;stroke-width:0.138422;stroke-opacity:1;marker-mid:url(#ConcaveTriangle)"
               id="path1"
               cx="100.32591"
               cy="72.201347"
               rx="14.549084"
               ry="5.252039" />
            <ellipse
               style="fill:none;stroke:#000000;stroke-width:0.138421;stroke-opacity:1"
               id="path2"
               cx="99.776123"
               cy="72.094078"
               rx="38.375435"
               ry="17.592335" />
          </g>
          <path
             style="fill:none;stroke:#000000;stroke-width:0.165617;stroke-opacity:1"
             d="m 99.061776,70.605099 c -0.236712,-0.296643 -0.47675,-0.587922 -0.717164,-0.873548"
             id="path21" />
          <path
             style="fill:none;stroke:#000000;stroke-width:0.165617;stroke-opacity:1;marker-mid:url(#marker23)"
             d="m 82.838323,161.91918 c -3.306506,1.24122 -7.336406,1.48638 -11.502438,-1.2434 -6.697746,-3.47078 -6.0909,-12.70362 -6.831689,-19.92902 C 62.620142,112.24721 62.655158,88.060743 61.095214,60.426912 61.547437,49.01627 73.5636,43.24376 83.316044,45.527076 c 5.185739,2.002131 8.726847,3.65983 11.516918,16.704621 0.40271,2.237056 2.31452,5.841404 3.51165,7.499854"
             id="path20" />
          <path
             style="fill:none;stroke:#000000;stroke-width:0.165617;stroke-opacity:1"
             d="M 100.03968,71.897681 C 99.892496,71.69077 99.742036,71.486047 99.589122,71.283599"
             id="path19" />
          <path
             style="fill:none;stroke:#000000;stroke-width:0.165617;stroke-opacity:1"
             d="m 109.36323,116.11535 c -0.48909,-4.1106 -3.37699,-7.55007 -4.45806,-12.40009 -0.94795,-2.68404 -3.19203,-4.468255 -5.158407,-6.066365 m -0.8015,-0.659088 c -0.458631,-0.385006 -0.886994,-0.764735 -1.261437,-1.149914 -1.54569,-1.714324 -3.37592,-3.659274 -3.34866,-6.270036 0.15344,-2.195837 1.6435,-3.989537 3.37087,-4.93304 1.74723,-1.071391 3.948444,-2.001374 4.645674,-4.27828 0.8028,-3.045755 -0.5041,-5.918559 -2.31203,-8.460856"
             id="path18"
             sodipodi:nodetypes="ccccccccc" />
          <path
             style="fill:none;stroke:#000000;stroke-width:0.165617;stroke-dasharray:0.66247, 0.165617;stroke-dashoffset:0;stroke-opacity:1"
             d="m 95.809853,131.25168 c 0.0426,-0.95178 0.352734,-1.88873 1.029822,-2.73503 3.687435,-4.609 9.938035,-3.27022 11.447835,-6.47182 0.91919,-1.94918 1.21805,-3.66699 1.13262,-5.27025"
             id="path17" />
          <path
             style="fill:none;stroke:#000000;stroke-width:0.165617;stroke-dasharray:0.66247, 0.165617;stroke-dashoffset:0;stroke-opacity:1"
             d="m 92.580709,117.09437 c -0.100055,1.67749 0.04207,3.26125 0.568719,4.60872 0.502472,1.28562 3.610762,2.52988 6.558015,3.83714 m 1.115167,0.50398 c 2.07879,0.96276 3.88608,1.9658 4.36055,3.04917 0.30489,0.69616 0.50922,1.38148 0.62708,2.04562"
             id="path16"
             sodipodi:nodetypes="csccsc" />
          <path
             style="fill:none;stroke:#000000;stroke-width:0.165617;stroke-opacity:1"
             d="m 99.519157,83.949433 c 0.359109,0.193459 0.715193,0.381737 1.054743,0.575765 1.74897,0.885267 3.28081,2.628332 3.48603,4.818197 0.089,2.608804 -1.69462,4.614274 -3.19923,6.379678 -2.051248,2.23301 -3.952032,4.786737 -4.828714,8.080457 -0.870356,2.81407 -2.880812,7.81865 -3.371587,12.34934"
             id="path15" />
          <path
             style="fill:none;stroke:#000000;stroke-width:0.165617;stroke-opacity:1"
             d="m 105.93424,132.39664 c 0.0673,3.5283 -2.272,6.18996 -4.56722,6.19167 -1.916834,0.001 -5.032964,-3.07476 -5.502327,-6.29637"
             id="path14" />
          <path
             style="fill:none;stroke:#000000;stroke-width:0.165617;stroke-opacity:1;marker-mid:url(#marker24)"
             d="m 98.856865,83.584382 c -1.289074,-0.735005 -2.509368,-1.624539 -3.027833,-3.18022 -1.1332,-3.910698 1.67368,-7.322252 4.328388,-10.180309 2.49451,-2.606806 2.2172,-6.005399 2.61989,-8.242474 2.79007,-13.044773 6.72897,-14.822098 11.9147,-16.824231 9.75243,-2.283318 21.76861,3.489195 22.22085,14.899848 -0.20752,27.538116 -1.52495,51.820294 -3.40898,80.319814 -0.7408,7.22543 -0.13395,16.45826 -6.83171,19.92904 -4.16604,2.7298 -9.33508,3.07675 -11.50911,0.71375 -0.98443,-1.01506 -13.34767,-10.5991 -14.49611,-11.42633 -0.825436,-0.63555 -3.221002,-1.25016 -4.433728,-2.66771 -1.411586,-1.64999 -1.431777,-4.02523 -1.520647,-5.89276 -0.08268,-1.73736 0.682787,-3.42406 2.559307,-4.54724"
             id="path13" />
          <path
             style="fill:none;stroke:#000000;stroke-width:0.165617;stroke-opacity:1;marker-mid:url(#marker27)"
             d="m 98.278862,135.99475 c 0.969768,-0.3777 2.076408,-0.56528 3.277198,-0.56528 4.24815,0 8.06616,2.34776 8.06616,7.15559 0,3.88908 -3.17774,5.64878 -5.77297,7.82728 m -1.498,1.1627 c -4.042346,2.83673 -7.063076,2.52316 -12.271284,5.58405 -1.221854,1.16783 -3.851543,3.4875 -7.241643,4.76009"
             id="path3"
             sodipodi:nodetypes="csscccc" />
          <g
             id="g9"
             transform="matrix(-1.3398363,0.01865252,-0.01884335,-1.3262677,80.922389,164.0798)"
             style="stroke-width:0.621143" />
          <path
             id="path10"
             style="fill:none;stroke:#000000;stroke-width:0.165617;marker-mid:url(#marker22)"
             d="m 63.783746,107.93234 c 0.36557,0 0.722974,0.0247 1.069048,0.0719 2.587035,0.35265 4.540997,1.96098 4.540995,3.89174 -3e-6,2.18905 -2.5117,3.96362 -5.610043,3.96362 -3.098343,0 -5.61004,-1.77457 -5.610043,-3.96362 -2e-6,-1.70579 1.525129,-3.1599 3.664528,-3.71879"
             sodipodi:nodetypes="cssssc" />
          <path
             id="path10-2"
             style="fill:none;stroke:#000000;stroke-width:0.165617;marker-mid:url(#marker22)"
             d="m 136.31052,105.82158 c 0.36557,0 0.72297,0.0247 1.06904,0.0719 2.58704,0.35265 4.541,1.96098 4.541,3.89174 0,2.18905 -2.5117,3.96362 -5.61004,3.96362 -3.09835,0 -5.61004,-1.77457 -5.61005,-3.96362 0,-1.70579 1.52513,-3.1599 3.66453,-3.71879"
             sodipodi:nodetypes="cssssc" />
        </g>
      </g>
    </g>
    <text
       xml:space="preserve"
       style="font-size:4.23333px;font-family:Sans;-inkscape-font-specification:'Sans, Normal';fill:none;stroke:#000000;stroke-width:0.2;stroke-dasharray:0.799999, 0.2;stroke-dashoffset:0;stroke-opacity:1"
       x="47.257839"
       y="83.132401"
       id="text27"><tspan
         sodipodi:role="line"
         id="tspan27"
         style="fill:#000000;fill-opacity:1;stroke:none;stroke-width:0.2"
         x="47.257839"
         y="83.132401">$J$</tspan></text>
    <text
       xml:space="preserve"
       style="font-size:4.23333px;font-family:Sans;-inkscape-font-specification:'Sans, Normal';fill:none;stroke:#000000;stroke-width:0.2;stroke-dasharray:0.799999, 0.2;stroke-dashoffset:0;stroke-opacity:1"
       x="63.188011"
       y="138.52316"
       id="text27-2"><tspan
         sodipodi:role="line"
         id="tspan27-3"
         style="fill:#000000;fill-opacity:1;stroke:none;stroke-width:0.2"
         x="63.188011"
         y="138.52316">$k_1$</tspan></text>
    <text
       xml:space="preserve"
       style="font-size:4.23333px;font-family:Sans;-inkscape-font-specification:'Sans, Normal';fill:none;stroke:#000000;stroke-width:0.2;stroke-dasharray:0.799999, 0.2;stroke-dashoffset:0;stroke-opacity:1"
       x="143.24767"
       y="122.56819"
       id="text27-2-3"><tspan
         sodipodi:role="line"
         id="tspan27-3-8"
         style="fill:#000000;fill-opacity:1;stroke:none;stroke-width:0.2"
         x="143.24767"
         y="122.56819">$k_3$</tspan></text>
    <text
       xml:space="preserve"
       style="font-size:4.23333px;font-family:Sans;-inkscape-font-specification:'Sans, Normal';fill:none;stroke:#000000;stroke-width:0.2;stroke-dasharray:0.799999, 0.2;stroke-dashoffset:0;stroke-opacity:1"
       x="122.51039"
       y="139.07161"
       id="text27-2-4"><tspan
         sodipodi:role="line"
         id="tspan27-3-4"
         style="fill:#000000;fill-opacity:1;stroke:none;stroke-width:0.2"
         x="122.51039"
         y="139.07161">$k_2$</tspan></text>
    <text
       xml:space="preserve"
       style="font-size:4.23333px;font-family:Sans;-inkscape-font-specification:'Sans, Normal';fill:none;stroke:#000000;stroke-width:0.2;stroke-dasharray:0.799999, 0.2;stroke-dashoffset:0;stroke-opacity:1"
       x="78.802406"
       y="155.41374"
       id="text27-2-9"><tspan
         sodipodi:role="line"
         id="tspan27-3-40"
         style="fill:#000000;fill-opacity:1;stroke:none;stroke-width:0.2"
         x="78.802406"
         y="155.41374">$k_4$</tspan></text>
    <text
       xml:space="preserve"
       style="font-size:4.23333px;font-family:Sans;-inkscape-font-specification:'Sans, Normal';fill:#000000;fill-opacity:1;stroke:none;stroke-width:0.2;stroke-dasharray:0.799999, 0.2;stroke-dashoffset:0;stroke-opacity:1"
       x="72.783974"
       y="123.14634"
       id="text28"><tspan
         sodipodi:role="line"
         id="tspan28"
         style="stroke-width:0.2"
         x="72.783974"
         y="123.14634">$R$</tspan></text>
  </g>
</svg>
