<?xml version="1.0" encoding="UTF-8" standalone="no"?>
<!-- Created with Inkscape (http://www.inkscape.org/) -->

<svg
   width="141.99835mm"
   height="99.314926mm"
   viewBox="0 0 141.99835 99.314926"
   version="1.1"
   id="svg1"
   xml:space="preserve"
   inkscape:version="1.3.2 (091e20e, 2023-11-25, custom)"
   sodipodi:docname="chap11-4-I_output.svg"
   xmlns:inkscape="http://www.inkscape.org/namespaces/inkscape"
   xmlns:sodipodi="http://sodipodi.sourceforge.net/DTD/sodipodi-0.dtd"
   xmlns="http://www.w3.org/2000/svg"
   xmlns:svg="http://www.w3.org/2000/svg"><sodipodi:namedview
     id="namedview1"
     pagecolor="#ffffff"
     bordercolor="#111111"
     borderopacity="1"
     inkscape:showpageshadow="0"
     inkscape:pageopacity="0"
     inkscape:pagecheckerboard="false"
     inkscape:deskcolor="#d1d1d1"
     inkscape:document-units="mm"
     inkscape:zoom="1.0847363"
     inkscape:cx="238.30676"
     inkscape:cy="235.54111"
     inkscape:window-width="1920"
     inkscape:window-height="1057"
     inkscape:window-x="-8"
     inkscape:window-y="-8"
     inkscape:window-maximized="1"
     inkscape:current-layer="layer1" /><defs
     id="defs1" /><g
     inkscape:label="Layer 1"
     inkscape:groupmode="layer"
     id="layer1"
     transform="translate(-38.183962,-90.14037)"><g
       id="g1"
       transform="matrix(0.30799378,0,0,0.30800761,35.26463,65.876007)"
       style="stroke-width:0.859035"><path
         fill="none"
         stroke-width="4.12337"
         stroke-linecap="butt"
         stroke-linejoin="miter"
         stroke="#000000"
         stroke-opacity="1"
         stroke-miterlimit="3.25"
         d="m 96.015625,1070.1172 7.617185,5.6641 10.3125,7.6562 64.33594,50.7031 17.92969,13.6328 23.59375,17.9297 40.78125,33.125 27.57812,21.5625 36.60156,27.6172 54.64844,45.7422 45.74219,40.0391 44.60937,34.1406 55.54688,44.6484 33.78906,30.625 30.625,29.2188 57.42188,47.2656 24.84375,22.6172 40.15625,34.8437 21.52343,20.625 20.625,19.8047 45.89844,41.836 18.00781,18.3984 18.35938,18.7109 46.71875,45.1954 16.95312,18.5937 18.63282,20.4297 41.71875,43.2422 18.47656,22.1094 22.0703,26.4453 29.9219,33.75 22.4609,29.9218 29.9219,39.8829 9.9609,12.4609 28.5547,43.75 27.3047,38.5547 32.5391,66.2109 24.4922,56.6406 17.0312,41.7188 3.9453,20.7031 14.336,61.5625 6.4062,82.3047 -6.4062,82.3047 -14.336,61.5625 -3.9453,20.7031 -17.0312,41.7188 -24.4922,56.6406 -32.5391,66.2109 -27.3047,38.5547 -38.5156,49.2188 -29.9219,46.875 -20.8984,29.9218 -53.5547,60.1954 -60.19531,62.5781 -18.63282,23.2031 -16.01562,18.5938 -66.01563,63.9062 -63.90625,58.0078 -20.625,22.0313 -20.54687,20.625 -65.97656,57.4609 -57.42188,47.2656 -30.625,29.2188 -33.78906,30.625 -55.54688,44.6484 -44.60937,34.1406 -45.74219,40.0391 -54.64844,45.7422 -36.60156,27.6172 -27.57812,21.5625 -40.78125,33.125 -23.59375,17.9297 -17.92969,13.6328 -64.33594,50.7031 -10.3125,7.6563 -7.617185,5.664"
         transform="matrix(0.1,0,0,-0.1,0,480)"
         id="path1" /><path
         fill-rule="nonzero"
         fill="#000000"
         fill-opacity="1"
         stroke-width="4.12337"
         stroke-linecap="square"
         stroke-linejoin="miter"
         stroke="#000000"
         stroke-opacity="1"
         stroke-miterlimit="3.25"
         d="m 635.50781,1538.6719 3.00781,-1.1328 6.99219,-2.8125 4.0625,-1.875 3.90625,-2.0313 3.39844,-2.1484 2.5,-2.1094 1.83594,-2.3828 1.95312,-3.4375 1.95313,-4.1016 1.875,-4.3359 3.00781,-7.5391 1.17187,-3.3203 51.09375,85.4297 z m 0,0"
         transform="matrix(0.1,0,0,-0.1,0,480)"
         id="path2" /><path
         fill-rule="nonzero"
         fill="#000000"
         fill-opacity="1"
         stroke-width="4.12337"
         stroke-linecap="square"
         stroke-linejoin="miter"
         stroke="#000000"
         stroke-opacity="1"
         stroke-miterlimit="3.25"
         d="m 1109.7266,2047.6953 h 3.2031 l 7.5391,-0.2734 4.4531,-0.3516 4.375,-0.5859 3.9062,-0.8203 3.086,-1.1328 2.539,-1.6407 3.0078,-2.5781 3.2422,-3.1641 3.2422,-3.3984 5.3906,-6.0937 2.2657,-2.6954 18.789,97.7344 z m 0,0"
         transform="matrix(0.1,0,0,-0.1,0,480)"
         id="path3" /><path
         fill-rule="nonzero"
         fill="#000000"
         fill-opacity="1"
         stroke-width="4.12337"
         stroke-linecap="square"
         stroke-linejoin="miter"
         stroke="#000000"
         stroke-opacity="1"
         stroke-miterlimit="3.25"
         d="m 1194.4141,2580.0781 1.9531,2.5 4.8047,5.8203 3.0078,3.2813 3.125,3.125 3.0469,2.6172 2.8125,1.7578 2.8125,0.9766 3.8672,0.8203 4.5312,0.625 4.6484,0.5078 8.125,0.5469 3.5157,0.1562 -65.9375,74.5313 z m 0,0"
         transform="matrix(0.1,0,0,-0.1,0,480)"
         id="path4" /><path
         fill-rule="nonzero"
         fill="#000000"
         fill-opacity="1"
         stroke-width="4.12337"
         stroke-linecap="square"
         stroke-linejoin="miter"
         stroke="#000000"
         stroke-opacity="1"
         stroke-miterlimit="3.25"
         d="m 625.23437,3258.75 0.97657,3.0469 2.53906,7.1094 1.64062,4.1406 1.875,3.9844 1.99219,3.5156 1.99219,2.6172 2.30469,1.914 3.35937,2.0703 4.02344,2.1485 4.21875,2.0703 7.42187,3.3203 3.24219,1.3281 -87.57812,47.3047 z m 0,0"
         transform="matrix(0.1,0,0,-0.1,0,480)"
         id="path5" /><path
         fill="none"
         stroke-width="4.12337"
         stroke-linecap="butt"
         stroke-linejoin="miter"
         stroke="#000000"
         stroke-opacity="1"
         stroke-miterlimit="3.25"
         d="m 4703.9844,3729.8828 -7.6172,-5.664 -10.6641,-7.6563 -81.914,-64.3359 -23.5938,-17.9297 -40.7812,-33.125 -27.5782,-21.5625 -36.6015,-27.6172 -54.6485,-45.7422 -45.7422,-40.0391 -44.6093,-34.1406 -55.5469,-44.6484 -33.7891,-30.625 -30.625,-29.2188 -57.4218,-47.2656 -65.9766,-57.4609 -20.5469,-20.625 -20.625,-22.0313 -63.9062,-58.0078 -66.0156,-63.9062 -16.0157,-18.5938 -18.6328,-23.2031 -60.1953,-62.5781 -53.5547,-60.1954 -20.8984,-29.9218 -29.9219,-46.875 -38.5156,-49.2188 -25.1953,-38.5547 -18.5547,-36.5625 -16.0938,-29.6484 -24.4922,-56.6406 -17.0312,-41.7188 -3.9453,-20.7031 -20.7422,-143.8672 20.7422,-143.8672 3.9453,-20.7031 17.0312,-41.7188 24.4922,-56.6406 16.0938,-29.6484 18.5547,-36.5625 25.1953,-38.5547 38.5156,-49.2188 29.9219,-46.875 22.4609,-29.9218 29.9219,-33.75 22.0703,-26.4453 60.1953,-62.5782 18.6328,-23.2031 16.0157,-18.5937 66.0156,-63.9063 63.9062,-58.0078 20.625,-22.0313 20.5469,-20.625 65.9766,-57.4609 57.4218,-47.2656 30.625,-29.2188 33.7891,-30.625 55.5469,-44.6484 44.6093,-34.1406 45.7422,-40.0391 54.6485,-45.7422 36.6015,-27.6172 27.5782,-21.5625 40.7812,-33.125 23.5938,-17.9297 17.9296,-13.6328 64.336,-50.7031 10.3125,-7.6562 7.6172,-5.6641"
         transform="matrix(0.1,0,0,-0.1,0,480)"
         id="path6" /><path
         fill-rule="nonzero"
         fill="#000000"
         fill-opacity="1"
         stroke-width="4.12337"
         stroke-linecap="square"
         stroke-linejoin="miter"
         stroke="#000000"
         stroke-opacity="1"
         stroke-miterlimit="3.25"
         d="m 4162.8516,3263.4766 -3.0079,1.0547 -7.0703,2.6562 -4.1015,1.7578 -3.9453,1.9531 -3.4766,2.0313 -2.5391,2.0703 -1.875,2.3438 -2.0312,3.3984 -2.0703,4.0625 -1.9532,4.2578 -3.2031,7.5 -1.25,3.2422 -49.0625,-86.6016 z m 0,0"
         transform="matrix(0.1,0,0,-0.1,0,480)"
         id="path7" /><path
         fill-rule="nonzero"
         fill="#000000"
         fill-opacity="1"
         stroke-width="4.12337"
         stroke-linecap="square"
         stroke-linejoin="miter"
         stroke="#000000"
         stroke-opacity="1"
         stroke-miterlimit="3.25"
         d="m 3694.0234,2749.6484 -3.2031,0.1172 -7.5,0.586 -4.4531,0.5468 -4.3359,0.7422 -3.9063,0.9766 -3.0469,1.2891 -2.4218,1.7187 -2.9297,2.6953 -3.086,3.3203 -3.125,3.5157 -5.1172,6.289 -2.1484,2.7735 -22.7344,-96.875 z m 0,0"
         transform="matrix(0.1,0,0,-0.1,0,480)"
         id="path8" /><path
         fill-rule="nonzero"
         fill="#000000"
         fill-opacity="1"
         stroke-width="4.12337"
         stroke-linecap="square"
         stroke-linejoin="miter"
         stroke="#000000"
         stroke-opacity="1"
         stroke-miterlimit="3.25"
         d="m 3602.3828,2219.1016 -1.875,-2.6172 -4.5703,-5.9766 -2.8516,-3.3984 -3.0078,-3.2422 -2.9687,-2.7344 -2.6953,-1.875 -2.7735,-1.0937 -3.8281,-0.9766 -4.4922,-0.8203 -4.6484,-0.6641 -8.086,-0.8984 -3.4765,-0.2734 68.8672,-71.836 z m 0,0"
         transform="matrix(0.1,0,0,-0.1,0,480)"
         id="path9" /><path
         fill-rule="nonzero"
         fill="#000000"
         fill-opacity="1"
         stroke-width="4.12337"
         stroke-linecap="square"
         stroke-linejoin="miter"
         stroke="#000000"
         stroke-opacity="1"
         stroke-miterlimit="3.25"
         d="m 4174.7656,1541.2109 -0.9375,-3.0468 -2.539,-7.1094 -1.6797,-4.1016 -1.875,-4.0234 -1.9532,-3.4766 -2.0312,-2.6172 -2.3047,-1.914 -3.3594,-2.1094 -3.9843,-2.1484 -4.2579,-2.0313 -7.4218,-3.3203 -3.2032,-1.3672 87.5782,-47.2656 z m 0,0"
         transform="matrix(0.1,0,0,-0.1,0,480)"
         id="path10" /><path
         fill="none"
         stroke-width="4.12337"
         stroke-linecap="butt"
         stroke-linejoin="miter"
         stroke="#000000"
         stroke-opacity="1"
         stroke-miterlimit="3.25"
         d="m 96.015625,1026.6797 32.578125,24.1406 44.02344,32.6172 5.66406,4.4922 44.21875,33.5937 38.08594,28.9063 20.89843,15.2734 34.45313,26.9532 73.32031,55.3515 19.53125,16.3281 16.36719,14.336 75.85937,58.0469 65.27344,52.4609 23.4375,18.9062 2.65625,1.836 3.59375,2.6562 86.64063,71.6797 71.67968,62.6172 17.34375,12.8906 22.07032,17.3828 65.50781,59.6485 59.64844,57.7734 26.05468,21.0938 30.07813,26.0547 53.2031,55.2343 55.2344,61.7969 24.8438,22.6953 25.0781,24.8438 50.664,63.9843 15.586,18.2813 48.3984,69.2969 5.5469,7.4218 4.5703,5.586 13.2813,23.3984 41.5625,76.211 30.625,64.9609 12.4609,56.4844 10.2344,61.7968 4.1406,46.2891 -4.1406,46.2891 -3.2422,36.0156 -6.9922,25.7812 -12.4609,56.4844 -30.625,64.961 -41.5625,76.2109 -13.6719,23.3984 -4.1797,5.586 -5.5469,7.4218 -48.3984,69.2969 -15.586,18.2813 -50.664,63.9843 -25.0781,24.8438 -24.8438,22.6953 -55.2344,61.7969 -53.2031,55.2344 -30.07813,26.0546 -26.05468,21.0938 -59.64844,57.7734 -65.50781,59.6485 -22.07032,17.3828 -17.34375,12.8906 -71.67968,62.6172 -86.64063,71.6797 -3.59375,2.6562 -2.65625,1.836 -23.4375,18.9062 -65.27344,52.461 -75.85937,58.0468 -16.36719,14.336 -19.53125,16.3281 -73.32031,55.3516 -34.45313,26.9531 -20.89843,15.2734 -38.08594,28.9063 -44.21875,33.5937 -5.66406,4.4922 -44.02344,32.6172 -32.578125,24.1406"
         transform="matrix(0.1,0,0,-0.1,0,480)"
         id="path11" /><path
         fill-rule="nonzero"
         fill="#000000"
         fill-opacity="1"
         stroke-width="4.12337"
         stroke-linecap="square"
         stroke-linejoin="miter"
         stroke="#000000"
         stroke-opacity="1"
         stroke-miterlimit="3.25"
         d="m 680.82031,1520.3906 2.89063,-1.3672 6.67968,-3.5156 3.86719,-2.2265 3.67188,-2.4219 3.20312,-2.461 2.26563,-2.3437 1.60156,-2.5391 1.60156,-3.6328 1.5625,-4.2969 1.44531,-4.4531 2.22657,-7.8125 0.85937,-3.3984 59.17969,80.039 z m 0,0"
         transform="matrix(0.1,0,0,-0.1,0,480)"
         id="path12" /><path
         fill-rule="nonzero"
         fill="#000000"
         fill-opacity="1"
         stroke-width="4.12337"
         stroke-linecap="square"
         stroke-linejoin="miter"
         stroke="#000000"
         stroke-opacity="1"
         stroke-miterlimit="3.25"
         d="m 1213.2031,2040.3516 3.2032,-0.1563 7.539,-0.5859 4.4141,-0.5469 4.3359,-0.7812 3.9063,-0.9766 3.0468,-1.2891 2.4219,-1.7187 2.8906,-2.6953 3.125,-3.3203 3.086,-3.5547 5.1562,-6.2891 2.1094,-2.7734 22.9297,96.8359 z m 0,0"
         transform="matrix(0.1,0,0,-0.1,0,480)"
         id="path13" /><path
         fill-rule="nonzero"
         fill="#000000"
         fill-opacity="1"
         stroke-width="4.12337"
         stroke-linecap="square"
         stroke-linejoin="miter"
         stroke="#000000"
         stroke-opacity="1"
         stroke-miterlimit="3.25"
         d="m 1305.1563,2591.0938 1.8359,2.6171 4.5703,6.0157 2.8906,3.3984 2.9688,3.2422 2.9687,2.7344 2.6953,1.875 2.7735,1.1328 3.8281,0.9765 4.4922,0.8204 4.6484,0.664 8.086,0.8985 3.4765,0.3125 -69.0234,71.6796 z m 0,0"
         transform="matrix(0.1,0,0,-0.1,0,480)"
         id="path14" /><path
         fill-rule="nonzero"
         fill="#000000"
         fill-opacity="1"
         stroke-width="4.12337"
         stroke-linecap="square"
         stroke-linejoin="miter"
         stroke="#000000"
         stroke-opacity="1"
         stroke-miterlimit="3.25"
         d="m 669.375,3293.8672 0.78125,3.125 1.99219,7.2656 1.40625,4.2578 1.5625,4.1016 1.71875,3.6328 1.83593,2.7344 2.14844,2.0703 3.20313,2.3437 3.86718,2.4219 4.0625,2.3438 7.1875,3.8672 3.125,1.5625 -90.70312,40.9765 z m 0,0"
         transform="matrix(0.1,0,0,-0.1,0,480)"
         id="path15" /><path
         fill="none"
         stroke-width="4.12337"
         stroke-linecap="butt"
         stroke-linejoin="miter"
         stroke="#000000"
         stroke-opacity="1"
         stroke-miterlimit="3.25"
         d="m 4703.9844,3773.3203 -32.5782,-24.1406 -45.4296,-32.6172 -48.4766,-38.0859 -38.0859,-28.9063 -20.8985,-15.2734 -34.4531,-26.9531 -73.3203,-55.3516 -19.5313,-16.3281 -16.3672,-14.336 -75.8593,-58.0468 -65.2735,-52.461 -23.4375,-18.9062 -2.6562,-1.836 -3.5938,-2.6562 -86.6406,-71.6797 -71.6797,-62.6172 -17.3437,-12.8906 -22.0703,-17.3828 -65.5078,-59.6485 -59.6485,-57.7734 -26.0547,-21.0938 -30.0781,-26.0546 -53.2031,-55.2344 -55.2344,-61.7969 -24.8437,-22.6953 -25.0782,-24.8438 -50.664,-63.9843 -15.586,-18.2813 -48.3984,-69.2969 -5.5469,-7.4218 -4.1797,-5.586 -13.6718,-23.3984 -41.5625,-76.2109 -30.625,-64.961 -12.461,-56.4844 -10.2344,-61.7968 -4.1406,-46.2891 4.1406,-46.2891 10.2344,-61.7968 12.461,-56.4844 30.625,-64.9609 41.5625,-76.211 13.6718,-23.3984 4.1797,-5.586 5.5469,-7.4218 48.3984,-69.2969 15.586,-18.2813 50.664,-63.9843 25.0782,-24.8438 24.8437,-22.6953 55.2344,-61.7969 53.2031,-55.2343 30.0781,-26.0547 26.0547,-21.0938 59.6485,-57.7734 65.5078,-59.6485 22.0703,-17.3828 17.3437,-12.8906 71.6797,-62.6172 86.6406,-71.6797 3.5938,-2.6562 2.6562,-1.836 23.4375,-18.9062 65.2735,-52.4609 75.8593,-58.0469 16.3672,-14.336 19.5313,-16.3281 73.3203,-55.3515 34.4531,-26.9532 20.8985,-15.2734 38.0859,-28.9063 44.2187,-33.5937 5.6641,-4.4922 44.0234,-32.6172 32.5782,-24.1406"
         transform="matrix(0.1,0,0,-0.1,0,480)"
         id="path16" /><path
         fill-rule="nonzero"
         fill="#000000"
         fill-opacity="1"
         stroke-width="4.12337"
         stroke-linecap="square"
         stroke-linejoin="miter"
         stroke="#000000"
         stroke-opacity="1"
         stroke-miterlimit="3.25"
         d="m 4119.1797,3279.6094 -2.8516,1.3672 -6.7187,3.5156 -3.8282,2.2656 -3.7109,2.3828 -3.1641,2.461 -2.3046,2.3828 -1.5625,2.539 -1.6016,3.6329 -1.5625,4.2578 -1.4453,4.4531 -2.2266,7.8516 -0.8984,3.3593 -59.1406,-80.039 z m 0,0"
         transform="matrix(0.1,0,0,-0.1,0,480)"
         id="path17" /><path
         fill-rule="nonzero"
         fill="#000000"
         fill-opacity="1"
         stroke-width="4.12337"
         stroke-linecap="square"
         stroke-linejoin="miter"
         stroke="#000000"
         stroke-opacity="1"
         stroke-miterlimit="3.25"
         d="m 3586.7969,2759.6875 -3.2031,0.1172 -7.5391,0.625 -4.4141,0.5469 -4.3359,0.7422 -3.9063,1.0156 -3.0078,1.25 -2.4609,1.7187 -2.8906,2.6953 -3.125,3.3204 -3.086,3.5546 -5.1562,6.3282 -2.1094,2.7734 -22.9297,-96.875 z m 0,0"
         transform="matrix(0.1,0,0,-0.1,0,480)"
         id="path18" /><path
         fill-rule="nonzero"
         fill="#000000"
         fill-opacity="1"
         stroke-width="4.12337"
         stroke-linecap="square"
         stroke-linejoin="miter"
         stroke="#000000"
         stroke-opacity="1"
         stroke-miterlimit="3.25"
         d="m 3494.8438,2208.8672 -1.836,-2.5781 -4.5703,-6.0157 -2.8516,-3.4375 -3.0078,-3.2421 -2.9297,-2.7344 -2.7343,-1.836 -2.7735,-1.1328 -3.8281,-0.9765 -4.4922,-0.8203 -4.6484,-0.7032 -8.086,-0.8984 -3.4765,-0.2734 69.0234,-71.7188 z m 0,0"
         transform="matrix(0.1,0,0,-0.1,0,480)"
         id="path19" /><path
         fill-rule="nonzero"
         fill="#000000"
         fill-opacity="1"
         stroke-width="4.12337"
         stroke-linecap="square"
         stroke-linejoin="miter"
         stroke="#000000"
         stroke-opacity="1"
         stroke-miterlimit="3.25"
         d="m 4130.625,1506.1328 -0.7813,-3.125 -1.9921,-7.2656 -1.4063,-4.2578 -1.5625,-4.1016 -1.7187,-3.6328 -1.836,-2.7344 -2.1484,-2.0703 -3.2031,-2.3437 -3.8672,-2.4219 -4.0625,-2.3438 -7.1875,-3.8671 -3.125,-1.5625 90.7422,-40.9766 z m 0,0"
         transform="matrix(0.1,0,0,-0.1,0,480)"
         id="path20" /><path
         fill="none"
         stroke-width="4.12337"
         stroke-linecap="butt"
         stroke-linejoin="miter"
         stroke="#000000"
         stroke-opacity="1"
         stroke-miterlimit="3.25"
         d="m 4703.9844,3815.7422 -24.1407,-16.875 -33.3984,-24.7266 -80.1953,-57.5781 -15.0391,-11.7969 -11.7968,-8.9453 -77.2266,-56.4844 -5.8594,-4.2578 -81.4844,-61.875 -12.7343,-8.4375 -18.3594,-12.7734 -75.4297,-58.0469 -58.0469,-46.875 -35.1562,-24.4922 -47.8906,-35.1562 -44.6094,-36.9141 -36.9141,-32.2265 -54.7656,-40.6641 -69.5312,-54.7656 -21.0547,-19.1797 -19.2188,-18.5938 -70.0781,-56.6797 -80.9375,-70.1171 -6.6406,-6.9141 -6.9141,-7.6953 -78.3984,-71.5625 -79.0235,-78.3985 -3.164,-3.9843 -3.9844,-4.6485 -67.5,-73.6328 -6.3281,-8.4765 -8.4375,-11.25 -50.7032,-62.5782 -12.2265,-19.375 -19.375,-30.7812 -21.9922,-32.1094 -19.8047,-40.5078 -20.4297,-41.7969 -20.039,-68.2812 -3.5157,-10.5078 -1.0156,-3.4766 -0.7031,-5.2344 -7.1485,-64.6875 -0.9375,-12.3828 0.9375,-12.3828 7.1485,-64.6875 0.8203,-5.2344 0.8984,-3.4765 3.5157,-10.5079 20.039,-68.2812 17.1875,-37.2266 2.5,-5.3125 20.5469,-39.7656 21.9922,-32.1094 19.1015,-31.0547 12.5,-19.1015 50.7032,-62.5781 8.4375,-11.25 6.3281,-8.4766 67.5,-73.6328 3.9844,-4.6485 3.164,-3.9843 79.0235,-78.3985 78.3984,-71.5625 6.9141,-7.6953 6.6406,-6.914 80.9375,-70.1172 70.0781,-56.6797 19.2188,-18.5938 21.0547,-19.1797 69.5312,-54.7656 54.7656,-40.664 36.9141,-32.2266 44.6094,-36.9141 47.8906,-35.1562 35.1562,-24.4922 58.0469,-46.875 75.4297,-58.0469 18.3594,-12.7734 12.7343,-8.4375 81.4844,-61.875 5.8594,-4.2578 77.2266,-56.4844 11.7968,-8.9453 15.5469,-11.7969 54.9609,-39.2578 24.7266,-18.3203 33.3984,-24.7266 24.1407,-16.87499"
         transform="matrix(0.1,0,0,-0.1,0,480)"
         id="path21" /><path
         fill-rule="nonzero"
         fill="#000000"
         fill-opacity="1"
         stroke-width="4.12337"
         stroke-linecap="square"
         stroke-linejoin="miter"
         stroke="#000000"
         stroke-opacity="1"
         stroke-miterlimit="3.25"
         d="m 4067.3828,3305.6641 -2.8906,1.3672 -6.6797,3.5156 -3.8672,2.2265 -3.6719,2.4219 -3.2031,2.461 -2.2656,2.3437 -1.6016,2.5391 -1.6015,3.6328 -1.5625,4.2969 -1.4453,4.4531 -2.2266,7.8125 -0.8594,3.3984 -59.1797,-80.039 z m 0,0"
         transform="matrix(0.1,0,0,-0.1,0,480)"
         id="path22" /><path
         fill-rule="nonzero"
         fill="#000000"
         fill-opacity="1"
         stroke-width="4.12337"
         stroke-linecap="square"
         stroke-linejoin="miter"
         stroke="#000000"
         stroke-opacity="1"
         stroke-miterlimit="3.25"
         d="m 3471.7578,2765.4297 -3.2031,0.3516 -7.4609,1.0546 -4.375,0.8204 -4.2969,1.0546 -3.8281,1.25 -2.9297,1.4454 -2.3438,1.875 -2.7344,2.8906 -2.8906,3.4765 -2.8515,3.75 -4.7266,6.6016 -1.9531,2.8906 -28.9453,-95.1953 z m 0,0"
         transform="matrix(0.1,0,0,-0.1,0,480)"
         id="path23" /><path
         fill-rule="nonzero"
         fill="#000000"
         fill-opacity="1"
         stroke-width="4.12337"
         stroke-linecap="square"
         stroke-linejoin="miter"
         stroke="#000000"
         stroke-opacity="1"
         stroke-miterlimit="3.25"
         d="m 3370.1953,2197.3047 -1.7187,-2.6953 -4.2578,-6.211 -2.6954,-3.5937 -2.8125,-3.3984 -2.8125,-2.8516 -2.6171,-2.0313 -2.6954,-1.25 -3.789,-1.1718 -4.4141,-1.0547 -4.6094,-0.8985 -8.0468,-1.3281 -3.4375,-0.4687 72.6562,-68.0469 z m 0,0"
         transform="matrix(0.1,0,0,-0.1,0,480)"
         id="path24" /><path
         fill-rule="nonzero"
         fill="#000000"
         fill-opacity="1"
         stroke-width="4.12337"
         stroke-linecap="square"
         stroke-linejoin="miter"
         stroke="#000000"
         stroke-opacity="1"
         stroke-miterlimit="3.25"
         d="m 4088.1641,1472.5781 -0.586,-3.164 -1.6015,-7.3828 -1.1328,-4.2969 -1.3282,-4.2188 -1.4843,-3.7109 -1.6797,-2.8516 -2.0313,-2.1875 -3.0469,-2.539 -3.7109,-2.6172 -3.9453,-2.6172 -6.9141,-4.2188 -3.0468,-1.7578 92.9687,-35.625 z m 0,0"
         transform="matrix(0.1,0,0,-0.1,0,480)"
         id="path25" /><path
         fill="none"
         stroke-width="4.12337"
         stroke-linecap="butt"
         stroke-linejoin="miter"
         stroke="#000000"
         stroke-opacity="1"
         stroke-miterlimit="3.25"
         d="m 96.015625,984.25781 24.140625,16.87499 33.39844,24.7266 24.72656,18.3203 54.96094,39.2578 15.54687,11.7969 11.79688,8.9453 77.22656,56.4844 5.85937,4.2578 81.48438,61.875 12.73437,8.4375 18.35938,12.7734 75.42969,58.0469 58.04687,46.875 35.15625,24.4922 47.89063,35.1562 44.60937,36.9141 36.91406,32.2266 54.76563,40.664 69.53125,54.7656 21.05469,19.1797 19.21875,18.5938 70.07812,56.6797 80.93749,70.1172 6.6406,6.914 6.9141,7.6953 78.3984,71.5625 79.0235,78.3985 3.164,3.9843 3.9844,4.6485 67.5,73.6328 6.3281,8.4766 60.3516,73.8281 11.0156,19.375 19.375,30.7812 13.2813,18.8672 8.7109,13.2422 20.5469,39.7656 2.5,5.3125 17.1875,37.2266 20.0391,68.2812 3.5156,10.5079 0.8984,3.4765 0.8203,5.2344 7.1485,64.6875 0.625,12.3828 -0.625,12.3828 -7.1485,64.6875 -0.8203,5.2344 -0.8984,3.4766 -3.5156,10.5078 -20.0391,68.2812 -17.1875,37.2266 -2.5,5.3125 -20.5469,39.7656 -21.9922,32.1094 -19.375,30.7812 -12.2265,19.375 -50.7032,62.5782 -8.4375,11.25 -6.3281,8.4765 -67.5,73.6328 -3.9844,4.6485 -3.164,3.9843 -79.0235,78.3985 -78.3984,71.5625 -6.9141,7.6953 -6.6406,6.9141 -80.93749,70.1171 -70.07812,56.6797 -19.21875,18.5938 -21.05469,19.1797 -69.53125,54.7656 -54.76563,40.6641 -36.91406,32.2265 -44.60937,36.9141 -47.89063,35.1562 -35.15625,24.4922 -58.04687,46.875 -75.42969,58.0469 -18.35938,12.7734 -12.73437,8.4375 -81.48438,61.875 -5.85937,4.2578 -77.22656,56.4844 -11.79688,8.9453 -15.54687,11.7969 -54.96094,39.2578 -24.72656,18.3203 -33.39844,24.7266 -24.140625,16.875"
         transform="matrix(0.1,0,0,-0.1,0,480)"
         id="path26" /><path
         fill-rule="nonzero"
         fill="#000000"
         fill-opacity="1"
         stroke-width="4.12337"
         stroke-linecap="square"
         stroke-linejoin="miter"
         stroke="#000000"
         stroke-opacity="1"
         stroke-miterlimit="3.25"
         d="m 732.61719,1494.3359 2.89062,-1.3671 6.67969,-3.5157 3.86719,-2.2265 3.71093,-2.4219 3.16407,-2.4609 2.30468,-2.3438 1.5625,-2.5391 1.60157,-3.6328 1.5625,-4.2578 1.44531,-4.4922 2.22656,-7.8125 0.89844,-3.3984 59.14062,80.0391 z m 0,0"
         transform="matrix(0.1,0,0,-0.1,0,480)"
         id="path27" /><path
         fill-rule="nonzero"
         fill="#000000"
         fill-opacity="1"
         stroke-width="4.12337"
         stroke-linecap="square"
         stroke-linejoin="miter"
         stroke="#000000"
         stroke-opacity="1"
         stroke-miterlimit="3.25"
         d="m 1328.2422,2034.5313 3.1641,-0.3125 7.5,-1.0938 4.375,-0.8203 4.2968,-1.0156 3.7891,-1.25 2.9687,-1.4453 2.3438,-1.875 2.6953,-2.8907 2.9297,-3.5156 2.8516,-3.7109 4.7265,-6.6407 1.9531,-2.8906 28.9454,95.2344 z m 0,0"
         transform="matrix(0.1,0,0,-0.1,0,480)"
         id="path28" /><path
         fill-rule="nonzero"
         fill="#000000"
         fill-opacity="1"
         stroke-width="4.12337"
         stroke-linecap="square"
         stroke-linejoin="miter"
         stroke="#000000"
         stroke-opacity="1"
         stroke-miterlimit="3.25"
         d="m 1430.5859,2602.9688 1.6797,2.7343 4.2188,6.2891 2.6172,3.5937 2.7734,3.3985 2.7734,2.9297 2.6172,2.0312 2.6953,1.2891 3.75,1.2109 4.4141,1.0938 4.6094,0.9765 8.0078,1.4063 3.4766,0.5469 -73.3985,67.1875 z m 0,0"
         transform="matrix(0.1,0,0,-0.1,0,480)"
         id="path29" /><path
         fill-rule="nonzero"
         fill="#000000"
         fill-opacity="1"
         stroke-width="4.12337"
         stroke-linecap="square"
         stroke-linejoin="miter"
         stroke="#000000"
         stroke-opacity="1"
         stroke-miterlimit="3.25"
         d="m 711.83594,3327.4219 0.58593,3.164 1.60157,7.3829 1.13281,4.2968 1.32812,4.2188 1.48438,3.7109 1.67969,2.8516 2.03125,2.1875 3.04687,2.5 3.71094,2.6562 3.94531,2.5782 6.91406,4.2578 3.04688,1.7578 -92.96875,35.625 z m 0,0"
         transform="matrix(0.1,0,0,-0.1,0,480)"
         id="path30" /><path
         fill="none"
         stroke-width="4.12337"
         stroke-linecap="butt"
         stroke-linejoin="miter"
         stroke="#000000"
         stroke-opacity="1"
         stroke-miterlimit="3.25"
         d="m 4703.9844,3856.6797 -81.0547,-56.6016 -1.4453,-1.0156 -82.0703,-59.2578 -14.1797,-9.0234 -21.3672,-14.2188 -74.6875,-54.3359 -54.336,-41.211 -41.4843,-27.539 -59.7657,-41.4844 -35.7812,-27.5391 -27.5391,-22.2656 -67.6562,-47.1094 -92.1875,-67.6562 -2.5781,-2.1094 -2.1485,-1.7187 -15.4687,-11.6407 -76.4063,-57.2265 -72.6953,-57.6172 -20.5859,-13.6328 -29.2578,-20.625 -63.2422,-51.4844 -51.4844,-44.8047 -39.9219,-28.3594 -52.2265,-39.9218 -37.8125,-34.6094 -34.6094,-34.336 -53.5156,-42.0703 -62.3047,-53.5547 -23.2813,-25.4687 -25.4687,-30.8594 -56.3281,-51.914 -54.375,-56.3282 -21.6016,-32.2265 -32.2656,-55.5469 -34.2578,-42.5391 -20.3125,-34.2578 -7.7344,-19.9609 -19.961,-58.0469 -1.25,-3.0469 -0.4687,-1.2109 -0.3516,-2.0703 -9.414,-68.75 -1.1328,-11.4844 1.1328,-11.4844 9.414,-68.75 0.3516,-2.0703 0.4687,-1.2109 1.25,-3.0469 19.961,-58.0469 7.7344,-19.9609 20.3125,-34.2578 34.2578,-42.5391 32.2656,-55.5469 21.6016,-32.2265 54.375,-56.3281 56.3281,-51.9141 25.4687,-30.8594 23.2813,-25.4687 62.3047,-53.5547 53.5156,-42.0703 34.6094,-34.336 37.8125,-34.6093 52.2265,-39.9219 39.9219,-28.3594 51.4844,-44.8047 63.2422,-51.4844 29.2578,-20.625 20.5859,-13.6328 72.6953,-57.6172 76.4063,-57.2265 15.4687,-11.4844 2.1485,-1.875 2.5781,-2.1094 92.1875,-67.6562 67.6562,-47.1094 27.5391,-22.2656 35.7812,-27.5391 59.7657,-41.4844 41.4843,-27.539 54.336,-41.211 74.6875,-54.3359 21.3672,-14.2187 14.1797,-9.0235 82.0703,-59.2578 1.4453,-1.01563 81.0547,-56.60156"
         transform="matrix(0.1,0,0,-0.1,0,480)"
         id="path31" /><path
         fill-rule="nonzero"
         fill="#000000"
         fill-opacity="1"
         stroke-width="4.12337"
         stroke-linecap="square"
         stroke-linejoin="miter"
         stroke="#000000"
         stroke-opacity="1"
         stroke-miterlimit="3.25"
         d="m 4013.75,3330 -2.8906,1.4063 -6.6797,3.4765 -3.8672,2.2266 -3.7109,2.3828 -3.1641,2.4609 -2.3047,2.3438 -1.6015,2.539 -1.6016,3.6329 -1.5625,4.2578 -1.4844,4.4531 -2.2656,7.8516 -0.8594,3.3593 -58.9062,-80.2343 z m 0,0"
         transform="matrix(0.1,0,0,-0.1,0,480)"
         id="path32" /><path
         fill-rule="nonzero"
         fill="#000000"
         fill-opacity="1"
         stroke-width="4.12337"
         stroke-linecap="square"
         stroke-linejoin="miter"
         stroke="#000000"
         stroke-opacity="1"
         stroke-miterlimit="3.25"
         d="m 3336.7578,2773.3594 -3.164,0.4297 -7.4219,1.289 -4.375,0.9375 -4.2578,1.1328 -3.7891,1.3672 -2.8906,1.5235 -2.2656,1.9531 -2.6563,2.9687 -2.8125,3.5547 -2.7344,3.8282 -4.5312,6.7578 -1.9141,2.9297 -31.6015,-94.336 z m 0,0"
         transform="matrix(0.1,0,0,-0.1,0,480)"
         id="path33" /><path
         fill-rule="nonzero"
         fill="#000000"
         fill-opacity="1"
         stroke-width="4.12337"
         stroke-linecap="square"
         stroke-linejoin="miter"
         stroke="#000000"
         stroke-opacity="1"
         stroke-miterlimit="3.25"
         d="m 3229.8438,2186.1328 -1.6016,-2.7734 -4.0234,-6.4063 -2.5,-3.6718 -2.6954,-3.4766 -2.6953,-3.0078 -2.539,-2.1094 -2.6563,-1.3672 -3.7109,-1.3281 -4.375,-1.2109 -4.5703,-1.0938 -7.9688,-1.6406 -3.4765,-0.625 75.3125,-65.1172 z m 0,0"
         transform="matrix(0.1,0,0,-0.1,0,480)"
         id="path34" /><path
         fill-rule="nonzero"
         fill="#000000"
         fill-opacity="1"
         stroke-width="4.12337"
         stroke-linecap="square"
         stroke-linejoin="miter"
         stroke="#000000"
         stroke-opacity="1"
         stroke-miterlimit="3.25"
         d="m 4049.6875,1444.4531 -0.5469,-3.164 -1.6015,-7.3828 -1.1328,-4.2969 -1.3282,-4.2188 -1.5234,-3.7109 -1.6797,-2.8516 -2.0312,-2.1875 -3.0469,-2.539 -3.711,-2.6172 -3.9062,-2.6172 -6.9531,-4.2188 -3.0078,-1.7578 92.9296,-35.625 z m 0,0"
         transform="matrix(0.1,0,0,-0.1,0,480)"
         id="path35" /><path
         fill="none"
         stroke-width="4.12337"
         stroke-linecap="butt"
         stroke-linejoin="miter"
         stroke="#000000"
         stroke-opacity="1"
         stroke-miterlimit="3.25"
         d="m 96.015625,943.32031 81.054685,56.60156 1.44531,1.01563 82.07032,59.2578 14.17968,9.0235 21.36719,14.2187 74.6875,54.3359 54.33594,41.211 41.48437,27.539 59.76563,41.4844 35.78125,27.5391 27.53906,20.3906 48.51563,34.3359 19.14062,14.6485 92.1875,67.6562 2.57813,2.1094 2.14843,1.875 15.46875,11.4844 76.40625,57.2265 72.69532,57.6172 20.58593,13.6328 29.25782,20.625 63.24216,51.4844 51.4844,44.8047 39.9219,28.3594 52.2265,39.9219 37.8125,34.6093 34.6094,34.336 53.5156,42.0703 62.3047,53.5547 23.2813,25.4687 25.4687,30.8594 56.3282,51.9141 54.375,56.3281 21.6015,32.2265 32.2656,55.5469 34.2579,42.5391 20.3125,34.2578 7.7343,19.9609 19.961,58.0469 1.25,3.0469 0.4687,1.2109 0.3516,2.0703 9.414,68.75 1.1329,11.4844 -1.1329,11.4844 -9.414,68.75 -0.3516,2.0703 -0.4687,1.2109 -1.25,3.0469 -19.961,58.0469 -7.7343,19.9609 -20.3125,34.2578 -34.2579,42.5391 -32.2656,55.5469 -21.6015,32.2265 -54.375,56.3282 -56.3282,51.914 -25.4687,30.8594 -23.2813,25.4687 -62.3047,53.5547 -53.5156,42.0703 -34.6094,34.336 -37.8125,34.6094 -52.2265,39.9218 -39.9219,28.3594 -51.4844,44.8047 -63.24216,51.4844 -29.25782,20.625 -20.58593,13.6328 -72.69532,57.6172 -76.40625,57.2265 -15.46875,11.6407 -2.14843,1.7187 -2.69532,2.1094 -77.46093,56.4844 -14.60938,11.1718 -19.14062,14.6485 -48.51563,34.3359 -27.53906,20.3906 -35.78125,27.5391 -59.76563,41.4844 -41.48437,27.539 -54.33594,41.211 -74.6875,54.3359 -21.36719,14.2188 -14.17968,9.0234 -82.07032,59.2578 -1.44531,1.0156 -81.054685,56.6016"
         transform="matrix(0.1,0,0,-0.1,0,480)"
         id="path36" /><path
         fill-rule="nonzero"
         fill="#000000"
         fill-opacity="1"
         stroke-width="4.12337"
         stroke-linecap="square"
         stroke-linejoin="miter"
         stroke="#000000"
         stroke-opacity="1"
         stroke-miterlimit="3.25"
         d="m 786.25,1470 2.89062,-1.3672 6.67969,-3.5156 3.86719,-2.2266 3.71094,-2.3828 3.20312,-2.4609 2.30469,-2.3438 1.5625,-2.539 1.60156,-3.6328 1.60156,-4.2579 1.44532,-4.4531 2.26562,-7.8125 0.89844,-3.3984 58.90625,80.2344 z m 0,0"
         transform="matrix(0.1,0,0,-0.1,0,480)"
         id="path37" /><path
         fill-rule="nonzero"
         fill="#000000"
         fill-opacity="1"
         stroke-width="4.12337"
         stroke-linecap="square"
         stroke-linejoin="miter"
         stroke="#000000"
         stroke-opacity="1"
         stroke-miterlimit="3.25"
         d="m 1463.2422,2026.6406 3.1641,-0.4297 7.4218,-1.25 4.375,-0.9765 4.2578,-1.1328 3.7891,-1.3672 2.8906,-1.5235 2.3047,-1.9531 2.6172,-2.9687 2.8125,-3.5547 2.7344,-3.8281 4.5703,-6.7579 1.875,-2.9296 31.6016,94.3359 z m 0,0"
         transform="matrix(0.1,0,0,-0.1,0,480)"
         id="path38" /><path
         fill-rule="nonzero"
         fill="#000000"
         fill-opacity="1"
         stroke-width="4.12337"
         stroke-linecap="square"
         stroke-linejoin="miter"
         stroke="#000000"
         stroke-opacity="1"
         stroke-miterlimit="3.25"
         d="m 1570.1563,2613.8672 1.6015,2.7734 4.0235,6.4063 2.5,3.6719 2.6953,3.4765 2.6953,3.0078 2.539,2.1094 2.6563,1.3672 3.7109,1.3281 4.375,1.211 4.6094,1.0937 7.9688,1.6406 3.4375,0.625 -75.2735,65.0782 z m 0,0"
         transform="matrix(0.1,0,0,-0.1,0,480)"
         id="path39" /><path
         fill-rule="nonzero"
         fill="#000000"
         fill-opacity="1"
         stroke-width="4.12337"
         stroke-linecap="square"
         stroke-linejoin="miter"
         stroke="#000000"
         stroke-opacity="1"
         stroke-miterlimit="3.25"
         d="m 750.11719,3355.6641 0.58593,3.164 1.5625,7.3828 1.13282,4.336 1.28906,4.1797 1.52344,3.75 1.64062,2.8515 2.03125,2.1875 3.04688,2.5391 3.71093,2.6562 3.90625,2.5782 6.91407,4.2968 3.04687,1.7579 -93.08594,35.3125 z m 0,0"
         transform="matrix(0.1,0,0,-0.1,0,480)"
         id="path40" /><path
         fill="none"
         stroke-width="4.12337"
         stroke-linecap="butt"
         stroke-linejoin="miter"
         stroke="#000000"
         stroke-opacity="1"
         stroke-miterlimit="3.25"
         d="m 96.015625,903.63281 9.375005,5.82031 14.6875,9.41407 82.89062,57.57812 36.71875,24.68749 20.89844,14.9219 39.92187,27.4219 60.11719,39.9609 37.34375,27.1484 27.1875,20.625 70.19531,46.5625 78.90625,54.8047 15.46875,10.7813 2.89063,1.7578 4.53125,2.8906 92.26562,64.8438 64.88281,47.9687 31.79688,19.961 47.89062,31.7968 48.51563,36.3282 36.36719,28.8281 59.80468,39.5703 84.92193,59.8437 10.9375,8.9063 8.9062,7.7344 57.4219,40.7812 28.9453,20.7813 5.9766,4.0625 72.2265,54.7656 16.1328,11.4062 24.375,16.1329 69.1407,54.8828 36.9921,27.3828 17.9297,15.3515 37.9297,29.0235 32.6563,26.2109 11.6797,9.4531 3.164,2.2657 43.2813,35.8203 35.8593,31.3281 19.6875,15.1172 32.7735,29.8437 29.8047,28.9063 28.0859,23.5547 26.6016,27.6172 27.6172,30.8984 12.4218,11.3281 12.5391,12.4219 25.3125,32.0313 31.9922,44.414 2.8125,3.086 2.2656,2.7734 6.6406,11.7187 20.7813,38.086 15.3125,32.4609 6.25,28.2813 5.0781,30.8593 2.1094,23.1641 -2.1094,23.1641 -5.0781,30.8593 -6.25,28.2813 -15.3125,32.4609 -20.7813,38.086 -6.6406,11.7187 -2.2656,2.7735 -2.8125,3.0859 -31.9922,44.4141 -25.3125,32.0312 -12.5391,12.4219 -12.4218,11.3281 -27.6172,30.8984 -26.6016,27.6172 -28.0859,23.5547 -30.2735,28.4375 -32.3047,30.3125 -19.6875,15.1172 -36.3281,30.8203 -42.8125,36.3281 -3.164,2.2657 -44.8047,35.2343 -37.461,24.6875 -54.9218,47.5 -27.3829,20.2735 -43.2812,34.6094 -22.8516,16.1328 -16.1328,11.4062 -72.2265,54.7656 -5.9766,4.0625 -28.9453,20.7813 -57.4219,40.7812 -8.9062,7.7344 -10.9375,8.9063 -84.92193,59.8437 -59.80468,39.5703 -36.36719,28.8282 -48.51563,36.3281 -47.89062,31.7969 -31.79688,19.9609 -64.88281,47.9687 -92.26562,64.8438 -4.53125,2.8906 -2.89063,1.7578 -15.46875,10.7813 -78.90625,54.8047 -16.71875,12.0703 -53.47656,36.0156 -27.1875,19.1016 -38.67188,27.1484 -16.44531,10.8594 -42.34375,29.1015 -39.92187,27.4219 -20.89844,14.9219 -36.71875,24.6875 -82.89062,57.5781 -14.6875,9.4141 -9.375005,5.8203"
         transform="matrix(0.1,0,0,-0.1,0,480)"
         id="path41" /><path
         fill-rule="nonzero"
         fill="#000000"
         fill-opacity="1"
         stroke-width="4.12337"
         stroke-linecap="square"
         stroke-linejoin="miter"
         stroke="#000000"
         stroke-opacity="1"
         stroke-miterlimit="3.25"
         d="m 840.625,1456.25 2.73437,-1.6016 6.36719,-4.0625 3.67188,-2.539 3.47656,-2.7344 2.96875,-2.6953 2.10937,-2.5391 1.32813,-2.6562 1.32812,-3.75 1.17188,-4.375 1.09375,-4.5703 1.5625,-8.0078 0.625,-3.4375 65.54687,74.8828 z m 0,0"
         transform="matrix(0.1,0,0,-0.1,0,480)"
         id="path42" /><path
         fill-rule="nonzero"
         fill="#000000"
         fill-opacity="1"
         stroke-width="4.12337"
         stroke-linecap="square"
         stroke-linejoin="miter"
         stroke="#000000"
         stroke-opacity="1"
         stroke-miterlimit="3.25"
         d="m 1614.8438,2031.8359 3.0468,-0.9765 7.1094,-2.5781 4.1016,-1.6797 3.9843,-1.875 3.5157,-1.9922 2.5781,-2.0313 1.9141,-2.3047 2.0703,-3.3984 2.1484,-3.9844 2.0313,-4.2578 3.2812,-7.4219 1.3281,-3.2421 47.6953,87.3437 z m 0,0"
         transform="matrix(0.1,0,0,-0.1,0,480)"
         id="path43" /><path
         fill-rule="nonzero"
         fill="#000000"
         fill-opacity="1"
         stroke-width="4.12337"
         stroke-linecap="square"
         stroke-linejoin="miter"
         stroke="#000000"
         stroke-opacity="1"
         stroke-miterlimit="3.25"
         d="m 1748.0078,2629.9219 1.0938,2.9687 2.8515,7.0313 1.836,4.0234 2.0312,3.9453 2.1094,3.3985 2.1484,2.539 2.3438,1.7969 3.4765,1.9531 4.0625,1.9922 4.336,1.875 7.539,3.0078 3.2813,1.211 -85.5078,50.8984 z m 0,0"
         transform="matrix(0.1,0,0,-0.1,0,480)"
         id="path44" /><path
         fill-rule="nonzero"
         fill="#000000"
         fill-opacity="1"
         stroke-width="4.12337"
         stroke-linecap="square"
         stroke-linejoin="miter"
         stroke="#000000"
         stroke-opacity="1"
         stroke-miterlimit="3.25"
         d="m 790.46875,3381.0156 0.58594,3.1641 1.60156,7.3828 1.13281,4.2969 1.36719,4.2187 1.52344,3.711 1.67968,2.8125 2.03125,2.1875 3.08594,2.5 3.71094,2.6562 3.90625,2.5781 6.95312,4.2188 3.04688,1.7187 -92.8125,35.9375 z m 0,0"
         transform="matrix(0.1,0,0,-0.1,0,480)"
         id="path45" /><path
         fill="none"
         stroke-width="4.12337"
         stroke-linecap="butt"
         stroke-linejoin="miter"
         stroke="#000000"
         stroke-opacity="1"
         stroke-miterlimit="3.25"
         d="m 4703.9844,3896.3672 -9.375,-5.8203 -14.6875,-9.4141 -82.8907,-57.5781 -57.6171,-41.6016 -39.9219,-25.4297 -60.1172,-39.9609 -37.3438,-27.1484 -27.1875,-19.1016 -53.4765,-36.0156 -16.7188,-12.0703 -78.9062,-54.8047 -15.4688,-10.7813 -2.8906,-1.7578 -4.5312,-2.8906 -92.2657,-64.8438 -64.8828,-47.9687 -31.7968,-19.9609 -47.8907,-31.7969 -48.5156,-36.3281 -36.3672,-28.8282 -59.8047,-39.5703 -84.9218,-59.8437 -10.9375,-8.9063 -8.9063,-7.7344 -57.4219,-40.7812 -28.9453,-20.7813 -5.9765,-4.0625 -72.2266,-54.7656 -16.1328,-11.4062 -22.8516,-16.1328 -43.2812,-34.6094 -27.3828,-20.2735 -36.9922,-27.3828 -17.9297,-15.3515 -37.461,-29.4532 -44.8046,-35.2343 -3.1641,-2.2657 -43.2813,-35.8203 -35.8593,-31.3281 -19.6875,-15.1172 -32.3047,-30.3125 -30.2735,-28.4375 -28.0859,-23.5547 -26.6016,-27.6172 -27.6171,-30.8984 -12.4219,-11.3281 -12.5391,-12.4219 -25.3125,-32.0312 -31.9922,-44.4141 -2.8125,-3.0859 -2.2656,-2.7735 -6.6406,-11.7187 -20.7813,-38.086 -15.3125,-32.4609 -6.25,-28.2813 -5.0781,-30.8593 -2.8906,-23.1641 2.8906,-23.1641 5.0781,-30.8593 7.6563,-28.2813 5.2344,-11.6797 8.6718,-20.7812 20.7813,-38.086 6.6406,-11.7187 2.2656,-2.7734 2.8125,-3.086 31.9922,-44.414 25.3125,-32.0313 12.5391,-12.4219 12.4219,-11.3281 27.6171,-30.8984 26.6016,-27.6172 15.0391,-13.0469 13.0468,-10.5078 29.8047,-28.9063 32.7735,-29.8437 19.6875,-15.1172 35.8593,-31.3281 43.2813,-35.8203 3.1641,-2.2657 11.6796,-9.4531 32.6563,-26.2109 37.9297,-29.0235 17.9297,-15.3515 36.6797,-27.6563 27.6953,-20 43.2812,-34.6093 22.8516,-16.1329 16.1328,-11.4062 72.2266,-54.7656 5.9765,-4.0625 28.9453,-20.7813 57.4219,-40.7812 8.9063,-7.7344 10.9375,-8.9063 84.9218,-59.8437 59.8047,-39.5703 36.3672,-28.8281 48.5156,-36.3282 47.8907,-31.7968 31.7968,-19.961 64.8828,-47.9687 92.2657,-64.8438 4.5312,-2.8906 2.8906,-1.7578 15.4688,-10.7813 78.9062,-54.8047 70.1953,-46.5625 27.1875,-20.625 37.3438,-27.1484 60.1172,-39.9609 39.9219,-25.4297 57.6171,-41.60159 82.8907,-57.57812 14.6875,-9.41407 9.375,-5.82031"
         transform="matrix(0.1,0,0,-0.1,0,480)"
         id="path46" /><path
         fill-rule="nonzero"
         fill="#000000"
         fill-opacity="1"
         stroke-width="4.12337"
         stroke-linecap="square"
         stroke-linejoin="miter"
         stroke="#000000"
         stroke-opacity="1"
         stroke-miterlimit="3.25"
         d="m 3959.4141,3343.75 -2.7735,1.6016 -6.3672,4.0625 -3.6718,2.5781 -3.4766,2.6953 -2.9687,2.6953 -2.0704,2.5391 -1.3671,2.6562 -1.2891,3.75 -1.2109,4.4141 -1.0547,4.5703 -1.6016,7.9688 -0.5859,3.4375 -65.586,-74.8829 z m 0,0"
         transform="matrix(0.1,0,0,-0.1,0,480)"
         id="path47" /><path
         fill-rule="nonzero"
         fill="#000000"
         fill-opacity="1"
         stroke-width="4.12337"
         stroke-linecap="square"
         stroke-linejoin="miter"
         stroke="#000000"
         stroke-opacity="1"
         stroke-miterlimit="3.25"
         d="m 3185.1563,2768.1641 -3.0469,0.9765 -7.1094,2.5782 -4.1016,1.6796 -3.9843,1.875 -3.5157,1.9922 -2.5781,2.0313 -1.914,2.3047 -2.0704,3.3984 -2.1484,3.9844 -2.0312,4.2578 -3.2813,7.4219 -1.3281,3.2422 -47.6953,-87.3438 z m 0,0"
         transform="matrix(0.1,0,0,-0.1,0,480)"
         id="path48" /><path
         fill-rule="nonzero"
         fill="#000000"
         fill-opacity="1"
         stroke-width="4.12337"
         stroke-linecap="square"
         stroke-linejoin="miter"
         stroke="#000000"
         stroke-opacity="1"
         stroke-miterlimit="3.25"
         d="m 3051.9922,2170.0781 -1.0938,-3.0078 -2.8515,-6.9922 -1.836,-4.0625 -2.0312,-3.9062 -2.1094,-3.3985 -2.1484,-2.539 -2.3438,-1.7969 -3.4765,-1.9531 -4.0625,-1.9922 -4.336,-1.875 -7.539,-3.0078 -3.2813,-1.211 85.5078,-50.8984 z m 0,0"
         transform="matrix(0.1,0,0,-0.1,0,480)"
         id="path49" /><path
         fill-rule="nonzero"
         fill="#000000"
         fill-opacity="1"
         stroke-width="4.12337"
         stroke-linecap="square"
         stroke-linejoin="miter"
         stroke="#000000"
         stroke-opacity="1"
         stroke-miterlimit="3.25"
         d="m 4009.6094,1418.9063 -0.586,-3.125 -1.6015,-7.3829 -1.1719,-4.2968 -1.3281,-4.2188 -1.5235,-3.7109 -1.6796,-2.8125 -2.0313,-2.1875 -3.0859,-2.5391 -3.711,-2.6172 -3.9453,-2.5781 -6.9531,-4.2187 -3.0078,-1.7188 92.8125,-35.9766 z m 0,0"
         transform="matrix(0.1,0,0,-0.1,0,480)"
         id="path50" /><path
         fill="none"
         stroke-width="4.12337"
         stroke-linecap="butt"
         stroke-linejoin="miter"
         stroke="#000000"
         stroke-opacity="1"
         stroke-miterlimit="3.25"
         d="m 4703.9844,3934.0625 -32.7344,-20.1953 -51.0547,-32.7344 -47.6562,-33.0859 -33.125,-23.9063 -65.6641,-41.875 -98.9063,-65.7031 -98.5937,-65.9766 -65.9766,-46.1718 -32.6562,-19.7266 -51.5625,-32.6953 -47.1875,-33.1641 -33.1641,-24.4922 -65.664,-41.25 -98.9063,-65.664 -98.5547,-66.0156 -66.0156,-47.0313 -32.5781,-18.9062 -52.461,-32.6172 -46.25,-33.2422 -33.2812,-22.5781 -41.9141,-26.4454 -23.6718,-16.7187 -16.6797,-11.7969 -82.3047,-53.789 -49.2969,-32.9688 -32.9687,-23.0859 -16.3672,-9.8828 -25.7813,-16.3282 -23.5547,-16.6015 -16.6015,-12.2657 -32.8125,-20.625 -49.4532,-32.8125 -41.1718,-27.8125 -8.1641,-5.1171 -12.6953,-8.2032 -20.2734,-14.1406 -16.2891,-10.7031 -24.8438,-16.2891 -24.5312,-16.6406 -16.6016,-12.8516 -32.8125,-20.039 -49.4922,-32.7735 -49.2187,-33.0468 C 2696.042,2598.4104 2550.7341,2494.498 2400,2400 c -121.4464,83.918 -249.0015,159.3518 -368.0078,246.875 l -27.2266,16.1719 -16.2109,8.6328 -33.0469,24.4141 -49.2187,33.0468 -49.4922,32.7735 -32.8125,20.039 -16.6016,12.8516 -23.164,16.6406 -42.5,25.7422 -33.0079,23.5156 -49.2968,33.0078 -49.8828,32.4219 -32.3829,17.2266 -66.1328,48.789 -98.4375,66.1329 -98.9843,65.5859 -65.586,40.0781 -33.2812,25.6641 -46.25,33.2422 -52.461,32.6172 -32.5781,18.9062 -66.0156,47.0313 -98.55471,66.0156 -98.90625,65.664 -65.66407,41.25 -33.16406,24.4922 -47.1875,33.1641 -51.5625,32.6953 -32.65625,19.7266 -65.97656,46.1718 -98.59375,65.9766 -82.30469,54.2969 -16.60156,11.4062 -24.14063,16.6016 -41.52343,26.9141 -33.125,22.2656 -47.65625,33.0859 -51.05469,32.7344 -32.734375,20.1953"
         transform="matrix(0.1,0,0,-0.1,0,480)"
         id="path51"
         sodipodi:nodetypes="ccccccccccccccccccccccccccccccccccccccccccccccccccccccccccccccccccccccccccccccccccccc" /><path
         fill-rule="nonzero"
         fill="#000000"
         fill-opacity="1"
         stroke-width="4.12337"
         stroke-linecap="square"
         stroke-linejoin="miter"
         stroke="#000000"
         stroke-opacity="1"
         stroke-miterlimit="3.25"
         d="m 3873.0859,3354.8438 -2.8125,1.5234 -6.5234,3.8281 -3.7109,2.4219 -3.5938,2.5781 -3.0469,2.6172 -2.1875,2.4609 -1.4453,2.6172 -1.4062,3.711 -1.3672,4.3359 -1.2109,4.5313 -1.875,7.9296 -0.7032,3.3985 -62.9687,-77.0703 z m 0,0"
         transform="matrix(0.1,0,0,-0.1,0,480)"
         id="path52" /><path
         fill-rule="nonzero"
         fill="#000000"
         fill-opacity="1"
         stroke-width="4.12337"
         stroke-linecap="square"
         stroke-linejoin="miter"
         stroke="#000000"
         stroke-opacity="1"
         stroke-miterlimit="3.25"
         d="m 2951.8359,2737.7344 -2.7734,1.6015 -6.4062,4.0235 -3.6719,2.5 -3.5156,2.6953 -2.9688,2.6953 -2.1094,2.5391 -1.4062,2.6172 -1.2891,3.75 -1.25,4.375 -1.0937,4.5703 -1.6407,7.9687 -0.625,3.4375 -65.039,-75.3125 z m 0,0"
         transform="matrix(0.1,0,0,-0.1,0,480)"
         id="path53" /><path
         fill-rule="nonzero"
         fill="#000000"
         fill-opacity="1"
         stroke-width="4.12337"
         stroke-linecap="square"
         stroke-linejoin="miter"
         stroke="#000000"
         stroke-opacity="1"
         stroke-miterlimit="3.25"
         d="m 2007.3438,2630.8203 0.4296,3.1641 1.2891,7.4609 0.9375,4.336 1.1719,4.2578 1.3281,3.789 1.5625,2.9297 1.9531,2.2656 2.9297,2.6172 3.5938,2.8125 3.8281,2.7344 6.7578,4.5313 2.9297,1.875 -94.3359,31.7578 z m 0,0"
         transform="matrix(0.1,0,0,-0.1,0,480)"
         id="path54" /><path
         fill-rule="nonzero"
         fill="#000000"
         fill-opacity="1"
         stroke-width="4.12337"
         stroke-linecap="square"
         stroke-linejoin="miter"
         stroke="#000000"
         stroke-opacity="1"
         stroke-miterlimit="3.25"
         d="m 855.82031,3400.7031 0.3125,3.2032 1.09375,7.4609 0.78125,4.375 1.05469,4.2969 1.21094,3.8281 1.48437,2.9687 1.83594,2.3047 2.89062,2.7344 3.51563,2.9297 3.71094,2.8516 6.60156,4.7265 2.92969,1.9922 -95.27344,28.7891 z m 0,0"
         transform="matrix(0.1,0,0,-0.1,0,480)"
         id="path55" /><path
         fill="none"
         stroke-width="4.12337"
         stroke-linecap="butt"
         stroke-linejoin="miter"
         stroke="#000000"
         stroke-opacity="1"
         stroke-miterlimit="3.25"
         d="m 96.015625,865.9375 32.734375,20.19531 51.05469,32.73438 47.65625,33.08593 33.125,23.90625 65.66406,41.87503 98.90625,65.7031 98.59375,65.9766 65.97656,46.1718 32.65625,19.7266 51.5625,32.6953 47.1875,33.1641 33.16406,24.4922 65.66407,41.25 98.90625,65.664 98.55471,66.0157 66.0156,47.0312 32.5781,18.9063 52.461,32.6171 46.25,33.2422 33.2812,25.6641 65.586,40.0781 98.9843,65.586 98.4375,66.1328 66.1328,48.789 32.3829,17.2266 49.8828,32.4219 49.2968,33.0078 33.0079,23.5156 42.5,25.7422 23.164,16.6406 16.6016,12.8516 32.8125,20.039 49.4922,32.7735 49.2187,33.0469 L 2400,2400 l 370.2734,-246.875 24.961,-16.1719 16.2109,-8.6328 33.0469,-24.414 49.2187,-33.0469 49.4922,-32.7735 32.8125,-20.039 16.6016,-12.8516 23.1641,-16.6406 42.5,-25.7422 33.0078,-23.5156 49.2968,-33.0078 41.1329,-27.0703 8.3203,-5.7422 32.8125,-20.625 40.1562,-28.8672 25.7813,-16.3281 16.3672,-9.8829 32.9687,-23.0859 49.2969,-32.9687 49.4531,-32.8516 32.8516,-20.9375 16.6797,-11.7969 23.6718,-16.7187 41.9141,-26.4453 33.2812,-22.5782 46.25,-33.2422 52.461,-32.6171 32.5781,-18.9063 66.0156,-47.0312 98.5547,-66.0157 98.9063,-65.664 65.664,-41.25 33.1641,-24.4922 47.1875,-33.1641 51.5625,-32.6953 32.6562,-19.7266 65.9766,-46.1718 98.5937,-65.9766 98.9063,-65.7031 65.6641,-41.87503 33.125,-23.90625 47.6562,-33.08593 51.0547,-32.73438 32.7344,-20.19531"
         transform="matrix(0.1,0,0,-0.1,0,480)"
         id="path56"
         sodipodi:nodetypes="ccccccccccccccccccccccccccccccccccccccccccccccccccccccccccccccccccccccccccccccccc" /><path
         fill-rule="nonzero"
         fill="#000000"
         fill-opacity="1"
         stroke-width="4.12337"
         stroke-linecap="square"
         stroke-linejoin="miter"
         stroke="#000000"
         stroke-opacity="1"
         stroke-miterlimit="3.25"
         d="m 926.91406,1445.1563 2.8125,-1.5235 6.52344,-3.8281 3.75,-2.4219 3.55469,-2.5781 3.04687,-2.5781 2.1875,-2.5 1.44531,-2.6172 1.44532,-3.6719 1.32812,-4.3359 1.25,-4.5703 1.83594,-7.8907 0.74219,-3.4375 62.92966,77.0703 z m 0,0"
         transform="matrix(0.1,0,0,-0.1,0,480)"
         id="path57" /><path
         fill-rule="nonzero"
         fill="#000000"
         fill-opacity="1"
         stroke-width="4.12337"
         stroke-linecap="square"
         stroke-linejoin="miter"
         stroke="#000000"
         stroke-opacity="1"
         stroke-miterlimit="3.25"
         d="m 1847.9688,2062.1094 2.7734,-1.6016 6.3672,-4.0234 3.6719,-2.5 3.5156,-2.6953 3.0078,-2.6953 2.1094,-2.5 1.3672,-2.6563 1.3281,-3.75 1.2109,-4.375 1.0938,-4.5703 1.6797,-7.9688 0.5859,-3.4375 65.0391,75.3516 z m 0,0"
         transform="matrix(0.1,0,0,-0.1,0,480)"
         id="path58" /><path
         fill-rule="nonzero"
         fill="#000000"
         fill-opacity="1"
         stroke-width="4.12337"
         stroke-linecap="square"
         stroke-linejoin="miter"
         stroke="#000000"
         stroke-opacity="1"
         stroke-miterlimit="3.25"
         d="m 2792.4609,2169.2969 -0.4296,-3.1641 -1.2891,-7.4219 -0.9375,-4.375 -1.1719,-4.2578 -1.3672,-3.789 -1.5234,-2.8907 -1.9531,-2.2656 -2.9688,-2.6562 -3.5547,-2.7735 -3.8281,-2.7734 -6.7578,-4.5313 -2.9688,-1.875 94.336,-31.7187 z m 0,0"
         transform="matrix(0.1,0,0,-0.1,0,480)"
         id="path59" /><path
         fill-rule="nonzero"
         fill="#000000"
         fill-opacity="1"
         stroke-width="4.12337"
         stroke-linecap="square"
         stroke-linejoin="miter"
         stroke="#000000"
         stroke-opacity="1"
         stroke-miterlimit="3.25"
         d="m 3944.2188,1399.2578 -0.3516,-3.164 -1.0547,-7.461 -0.8203,-4.414 -1.0156,-4.2579 -1.25,-3.8281 -1.4453,-2.9687 -1.875,-2.3438 -2.8907,-2.6953 -3.4765,-2.9297 -3.75,-2.8515 -6.6016,-4.7266 -2.8906,-1.9922 95.2734,-28.8281 z m 0,0"
         transform="matrix(0.1,0,0,-0.1,0,480)"
         id="path60" /><path
         fill="none"
         stroke-width="4.12337"
         stroke-linecap="butt"
         stroke-linejoin="miter"
         stroke="#000000"
         stroke-opacity="1"
         stroke-miterlimit="3.25"
         d="m 4703.9844,3971.7969 -56.0547,-34.5703 -87.461,-56.0938 -12.4218,-8.5937 -8.6328,-6.25 -40.8985,-26.0547 -50.3515,-32.3828 -73.3204,-49.1016 -26.6015,-15.5859 -43.5156,-26.6016 -56.5625,-37.8516 -37.8907,-24.414 -32.4218,-20 -30.0391,-19.8047 -98.5547,-62.5 -2.0703,-1.4453 -1.4844,-1.0938 -6.7968,-4.2578 -92.2657,-58.6719 -65.5078,-43.9453 -35.3515,-19.8047 -59.4922,-35.3515 -41.7578,-27.9688 -27.9688,-17.8125 -60.8984,-36.4843 -12.9297,-8.4766 -44.7266,-27.8516 -46.0156,-29.0234 -11.2891,-5.625 -20.9765,-11.3281 -81.5235,-50.7813 -50.7812,-34.1406 -52.6563,-26.9922 -93.9453,-52.6562 -10.7422,-7.2266 -7.2265,-5.3125 -26.7578,-14.2188 -55.5079,-31.25 -16.3671,-7.9296 -31.7969,-16.3282 -34.1406,-19.8437 -38.9844,-19.1797 -2.8516,-1.4063 -1.4844,-0.7421 -38.9453,-20.0782 -14.2578,-6.8359 -26.914,-12.8906 -2.9297,-1.3282 -25.7813,-12.4218 -12.4219,-6.0157 -33.2031,-14.7656 -11.0937,-4.8047 -37.9688,-17.8515 -19.7656,-6.6797 -52.9297,-19.7266 -6.7187,-2.8906 -2.8907,-1.4063 -6.2109,-1.9531 -34.9219,-12.2265 -17.5781,-5.1172 -8.6719,-2.6563 -14.8828,-4.4922 -8.2031,-2.2656 -12.3828,-3.3984 -18.8282,-4.7657 -1.3671,-0.3515 -0.3907,-0.1172 -0.625,-0.1563 -32.3828,-7.5 -8.125,-2.0312 -26.1719,-4.8047 -14.9609,-2.7344 -20,-2.2656 -1.0547,-0.1562 -20.0781,-2.9297 -17.0313,-1.0547 -7.7343,-0.625 -16.4063,-1.5625 -14.6875,-0.1563 -12.0703,-0.3125 -14.375,-0.5859 -14.375,0.5859 -12.0703,0.3125 -14.6875,0.625 -16.4063,1.0938 -7.7343,0.625 -17.0313,1.0547 -20.0781,2.9297 -1.0547,0.1562 -20,2.2656 -14.7266,2.9688 -14.2187,2.539 -12.1875,2.0313 -40.5078,9.5312 -0.625,0.1563 -0.3906,0.1172 -1.2891,0.3515 -39.4922,10.1563 -23.75,7.2266 -52.3047,17.539 -6.2109,1.9531 -2.8906,1.4063 -6.7188,2.8906 -52.9297,19.7266 -19.7656,7.9297 -30.2344,13.4765 -7.7344,3.125 -11.0937,4.8047 -33.2031,14.7656 -12.4219,6.0157 -25.7813,12.4218 -2.9296,1.3282 -26.9141,12.8906 -14.2578,6.8359 -38.9453,20.0782 -1.4844,0.7421 -2.8516,1.4063 -38.9843,19.1797 -34.1407,19.8437 -31.7968,16.3282 -16.3672,7.9296 -55.5078,31.25 -26.7579,14.2188 -7.2265,5.3125 -10.7422,7.2266 -93.9453,52.6562 -52.6563,26.9922 -50.7812,34.1406 -81.5235,50.7813 -20.9765,11.3281 -11.2891,5.625 -46.0156,29.0234 -44.7266,27.8516 -12.9297,8.4766 -60.8984,36.4843 -27.9687,17.8125 -43.8672,27.9688 -10.4688,6.1328 -46.91405,29.2187 -35.35156,21.9922 -37.92969,24.961 -27.57813,16.7968 -92.26562,58.6719 -6.79688,4.2578 -1.48437,1.0938 -2.07031,1.4453 -98.55469,62.5 -62.46094,37.6953 -37.89062,26.5234 -56.5625,37.8516 -43.51563,26.6016 -26.60156,15.5859 -73.32031,49.1016 -50.35157,32.3828 -40.89843,26.0547 -8.63282,6.25 -12.42187,8.5937 -87.46094,56.0938 -56.054685,34.5703"
         transform="matrix(0.1,0,0,-0.1,0,480)"
         id="path61" /><path
         fill-rule="nonzero"
         fill="#000000"
         fill-opacity="1"
         stroke-width="4.12337"
         stroke-linecap="square"
         stroke-linejoin="miter"
         stroke="#000000"
         stroke-opacity="1"
         stroke-miterlimit="3.25"
         d="m 3985.3125,3482.0313 -2.7734,1.6015 -6.3672,4.0235 -3.6719,2.539 -3.5156,2.6563 -2.9688,2.6953 -2.1093,2.539 -1.4063,2.6563 -1.2891,3.75 -1.25,4.375 -1.0937,4.5703 -1.6406,7.9688 -0.625,3.4375 -65.0782,-75.3125 z m 0,0"
         transform="matrix(0.1,0,0,-0.1,0,480)"
         id="path62" /><path
         fill-rule="nonzero"
         fill="#000000"
         fill-opacity="1"
         stroke-width="4.12337"
         stroke-linecap="square"
         stroke-linejoin="miter"
         stroke="#000000"
         stroke-opacity="1"
         stroke-miterlimit="3.25"
         d="m 3118.9063,2957.8125 -2.5391,1.9531 -5.7813,4.8438 -3.3203,2.9687 -3.0859,3.1641 -2.6172,3.0469 -1.7578,2.7734 -1.0156,2.8125 -0.7813,3.9063 -0.664,4.4921 -0.4688,4.6875 -0.5469,8.125 -0.1562,3.4766 -74.5703,-65.9375 z m 0,0"
         transform="matrix(0.1,0,0,-0.1,0,480)"
         id="path63" /><path
         fill-rule="nonzero"
         fill="#000000"
         fill-opacity="1"
         stroke-width="4.12337"
         stroke-linecap="square"
         stroke-linejoin="miter"
         stroke="#000000"
         stroke-opacity="1"
         stroke-miterlimit="3.25"
         d="m 1853.4766,2873.0859 v 3.2032 l 0.2734,7.539 0.3516,4.4532 0.5859,4.375 0.8203,3.9453 1.1328,3.0859 1.6016,2.5 2.5781,3.0078 3.2031,3.2813 3.3985,3.2031 6.0937,5.4297 2.6563,2.2265 -97.7344,18.7891 z m 0,0"
         transform="matrix(0.1,0,0,-0.1,0,480)"
         id="path64" /><path
         fill-rule="nonzero"
         fill="#000000"
         fill-opacity="1"
         stroke-width="4.12337"
         stroke-linecap="square"
         stroke-linejoin="miter"
         stroke="#000000"
         stroke-opacity="1"
         stroke-miterlimit="3.25"
         d="m 773.71094,3507.5391 0.35156,3.164 1.09375,7.5 0.82031,4.375 1.05469,4.2969 1.25,3.7891 1.48437,2.9687 1.875,2.3047 2.85157,2.7344 3.51562,2.8906 3.75,2.8516 6.64063,4.6875 2.89062,1.9531 -95.15625,29.2187 z m 0,0"
         transform="matrix(0.1,0,0,-0.1,0,480)"
         id="path65" /><path
         fill="none"
         stroke-width="4.12337"
         stroke-linecap="butt"
         stroke-linejoin="miter"
         stroke="#000000"
         stroke-opacity="1"
         stroke-miterlimit="3.25"
         d="m 96.015625,828.20312 56.054685,34.57032 87.46094,56.09375 12.42187,8.59375 8.63282,6.25 40.89843,26.05468 50.35157,32.38282 14.45312,8.98436 58.86719,38.8672 26.60156,16.8359 43.51563,26.6016 56.5625,37.8516 37.89062,26.5234 62.46094,37.6953 98.55469,62.5 2.07031,1.4453 1.48437,1.0938 6.79688,4.2578 92.26562,58.6719 27.57813,16.7968 37.92969,24.961 35.35156,21.9922 59.49215,35.3515 41.7579,27.9688 27.9687,19.8828 73.8281,42.8906 44.7266,27.8516 46.0156,29.0234 11.2891,5.625 20.9765,11.3281 81.5235,50.7813 50.7812,34.1406 52.6563,26.9922 93.9453,52.6563 10.7422,7.2265 7.2265,5.3125 26.7579,14.2188 55.5078,31.25 16.3672,7.9297 31.7968,16.3281 34.1407,19.8437 38.9843,19.1797 2.8516,1.4063 1.4844,0.7422 38.9453,20.0781 14.2578,6.8359 26.9141,12.8906 2.9296,1.3282 25.7813,12.4218 12.4219,6.0157 33.2031,14.7656 11.0937,4.8047 37.9688,17.8515 19.7656,6.6797 52.9297,19.7266 6.7188,2.8906 2.8906,1.4063 6.2109,1.9531 52.3047,17.5391 23.75,7.2265 39.4922,10.1563 1.2891,0.3515 0.3906,0.1172 0.625,0.1563 32.3828,7.5 8.125,2.0312 12.1875,2.0313 14.2187,2.539 14.7266,2.9688 20,2.2656 1.0547,0.1563 20.0781,2.9296 17.0313,1.0547 7.7343,0.625 16.4063,1.5625 14.6875,0.1563 12.0703,0.3125 14.375,0.1953 14.375,-0.1953 12.0703,-0.3125 14.6875,-0.1563 16.4063,-1.5625 7.7343,-0.625 17.0313,-1.0547 20.0781,-2.9296 1.0547,-0.1563 20,-2.2656 14.7266,-2.9688 14.2187,-2.539 12.1875,-2.0313 8.125,-2.0312 32.3828,-7.5 0.625,-0.1563 0.3907,-0.1172 1.289,-0.3515 39.4922,-10.1563 23.75,-7.2265 52.3047,-17.5391 6.2109,-1.9531 2.8907,-1.4063 6.7187,-2.8906 52.9297,-19.7266 19.7656,-6.6797 37.9688,-17.8515 11.0937,-4.8047 33.2031,-14.7656 12.4219,-6.0157 25.7813,-12.4218 2.9297,-1.3282 26.914,-12.8906 14.2578,-6.8359 38.9453,-20.0781 1.4844,-0.7422 2.8516,-1.4063 38.9844,-19.1797 34.1406,-19.8437 31.7969,-16.3281 16.3671,-7.9297 55.5079,-31.25 26.7578,-14.2188 7.2265,-5.3125 10.7422,-7.2265 93.9453,-52.6563 52.6563,-26.9922 50.7812,-34.1406 81.5235,-50.7813 20.9765,-11.3281 11.2891,-5.625 46.0156,-29.0234 44.7266,-27.8516 73.8281,-42.8906 27.9688,-19.8828 41.7578,-27.9688 59.4922,-35.3515 35.3515,-19.8047 65.5078,-43.9453 92.2657,-58.6719 6.7968,-4.2578 1.4844,-1.0938 2.0703,-1.4453 98.5547,-62.5 30.0391,-19.8047 32.4218,-20 37.8907,-24.414 44.414,-28.6719 13.6328,-9.1797 42.0313,-26.6016 26.6015,-16.8359 58.8672,-38.8672 14.4532,-8.98436 50.3515,-32.38282 40.8985,-26.05468 8.6328,-6.25 12.4218,-8.59375 87.461,-56.09375 56.0547,-34.57032"
         transform="matrix(0.1,0,0,-0.1,0,480)"
         id="path66" /><path
         fill-rule="nonzero"
         fill="#000000"
         fill-opacity="1"
         stroke-width="4.12337"
         stroke-linecap="square"
         stroke-linejoin="miter"
         stroke="#000000"
         stroke-opacity="1"
         stroke-miterlimit="3.25"
         d="m 816.91406,1318.3984 2.73438,-1.6406 6.36718,-4.0625 3.63282,-2.539 3.47656,-2.7344 2.96875,-2.6953 2.10937,-2.5782 1.32813,-2.6562 1.28906,-3.75 1.21094,-4.375 1.05469,-4.5703 1.5625,-8.0078 0.58593,-3.4375 65.74219,74.6875 z m 0,0"
         transform="matrix(0.1,0,0,-0.1,0,480)"
         id="path67" /><path
         fill-rule="nonzero"
         fill="#000000"
         fill-opacity="1"
         stroke-width="4.12337"
         stroke-linecap="square"
         stroke-linejoin="miter"
         stroke="#000000"
         stroke-opacity="1"
         stroke-miterlimit="3.25"
         d="m 1681.1719,1842.2266 2.539,-1.9532 5.7813,-4.8437 3.3203,-3.0078 3.0859,-3.125 2.6172,-3.0469 1.7578,-2.7734 0.9766,-2.8125 0.8203,-3.9063 0.625,-4.4922 0.5078,-4.6875 0.5469,-8.125 0.1563,-3.4765 74.5703,65.9375 z m 0,0"
         transform="matrix(0.1,0,0,-0.1,0,480)"
         id="path68" /><path
         fill-rule="nonzero"
         fill="#000000"
         fill-opacity="1"
         stroke-width="4.12337"
         stroke-linecap="square"
         stroke-linejoin="miter"
         stroke="#000000"
         stroke-opacity="1"
         stroke-miterlimit="3.25"
         d="m 2946.5234,1926.9141 v -3.2032 l -0.2734,-7.539 -0.3516,-4.4531 -0.5859,-4.375 -0.8203,-3.9063 -1.1719,-3.125 -1.6015,-2.5 -2.5782,-3.0078 -3.164,-3.2422 -3.4375,-3.2422 -6.0547,-5.3906 -2.6953,-2.2656 97.7343,-18.7891 z m 0,0"
         transform="matrix(0.1,0,0,-0.1,0,480)"
         id="path69" /><path
         fill-rule="nonzero"
         fill="#000000"
         fill-opacity="1"
         stroke-width="4.12337"
         stroke-linecap="square"
         stroke-linejoin="miter"
         stroke="#000000"
         stroke-opacity="1"
         stroke-miterlimit="3.25"
         d="m 4026.1719,1292.5391 -0.3516,-3.2032 -1.0547,-7.4609 -0.8593,-4.375 -1.0547,-4.2969 -1.25,-3.789 -1.4453,-2.9688 -1.875,-2.3437 -2.8907,-2.6953 -3.5156,-2.8907 -3.75,-2.8515 -6.6406,-4.7266 -2.8906,-1.9531 95.1562,-29.1797 z m 0,0"
         transform="matrix(0.1,0,0,-0.1,0,480)"
         id="path70" /><path
         fill="none"
         stroke-width="4.12337"
         stroke-linecap="butt"
         stroke-linejoin="miter"
         stroke="#000000"
         stroke-opacity="1"
         stroke-miterlimit="3.25"
         d="m 4703.9844,4010.4688 -75,-47.0313 -4.375,-2.8906 -16.0938,-10.3125 -69.1015,-44.6485 -15.5469,-8.8671 -26.25,-15.586 -74.7266,-48.0469 -48.0469,-32.1875 -53.2031,-31.1328 -87.0312,-53.2031 -14.5703,-9.7266 -9.7657,-6.8359 -41.8359,-25.2734 -50.1953,-30.6641 -72.5391,-46.4844 -29.4922,-16.0547 -51.4843,-29.5312 -51.0938,-32.5 -32.5,-21.7969 -70.7031,-39.5703 -57.0703,-33.9062 -36.7969,-22.1485 -9.8047,-4.8437 -18.7109,-9.8047 -85.5078,-50.5469 -50.5469,-28.3203 -6.5625,-3.3984 -48.1641,-27.5391 -101.6015,-54.7656 -5.0782,-3.1641 -3.164,-2.1094 -10.8203,-5.5468 -71.4453,-38.4375 -22.1485,-10.8985 -45.0781,-22.1094 -15.0781,-8.2812 -49.4532,-24.5703 -32.8125,-16.3281 -74.5703,-33.125 -5.1562,-2.5391 -2.5781,-1.25 -6.7969,-3.0078 -47.8125,-20.8594 -27.6563,-12.8125 -30.625,-11.2109 -34.7265,-13.6328 -16.9532,-6.836 -7.7343,-2.3828 -23.3203,-7.7344 -37.4219,-13.789 -13.7891,-4.7657 -27.0312,-8.4765 -14.1407,-4.4141 -7.5781,-2.1094 -27.1484,-7.6171 -6.4063,-1.9141 -2.6172,-0.6641 -28.4375,-7.5 -10.0781,-2.8125 -16.5625,-3.6328 -6.5234,-1.5234 -18.0469,-4.375 -15.8203,-2.8906 -11.875,-2.3438 -13.4766,-2.5781 -9.2968,-1.6016 -26.875,-4.3359 -4.961,-0.7813 -3.6719,-0.5078 -16.914,-2.3047 -11.6797,-1.3672 -7.8906,-0.9765 -0.9766,-0.1172 -1.2109,-0.1172 -35.3516,-3.3594 -4.5703,-0.5078 -5.3516,-0.2344 -28.8281,-1.6796 -6.9922,-0.4688 -7.5,-0.078 -25.625,-0.4688 -8.0078,-0.078 -8.0078,0.078 -25.625,0.4688 -7.5,0.078 -6.9922,0.4688 -28.8281,1.6796 -5.3516,0.2344 -4.6094,0.4297 -36.5234,3.5547 -8.2031,1.0937 -29.2578,3.6719 -3.6719,0.4297 -4.8828,0.7813 -61.7578,10.7812 -15.6641,3.0469 -24.3359,5.664 -26.9922,6.5625 -30.9375,8.2813 -6.4063,1.9141 -27.1484,7.6171 -7.5781,2.1094 -14.1407,4.4141 -27.0312,8.4765 -13.7891,4.7657 -37.4218,13.789 -23.3204,7.7344 -7.7343,2.3828 -16.9532,6.836 -34.7265,13.6328 -30.625,11.2109 -27.6563,12.8125 -47.8125,20.8594 -6.7968,3.0078 -2.5782,1.25 -5.1562,2.5391 -74.5703,33.125 -32.8125,16.3281 -49.4532,24.5703 -15.0781,8.2812 -45.0781,22.1094 -22.1484,10.8985 -71.4454,38.4375 -10.8203,5.5468 -3.164,2.1094 -5.0782,3.1641 -101.6015,54.7656 -54.7266,27.3437 -50.5469,31.9141 -85.5078,50.5469 -18.7109,9.8047 -9.8047,4.8437 -36.7969,22.1485 -57.07029,33.9062 -70.70312,39.5703 -32.5,21.7969 -51.09375,32.5 -51.48438,29.5312 -29.49219,16.0547 -72.53906,46.4844 -50.19531,30.6641 -41.83594,25.2734 -9.76562,6.8359 -14.57032,9.7266 -87.03125,53.2031 -53.20312,31.1328 -48.04688,32.1875 -74.72656,48.0469 -26.25,15.586 -15.54687,8.8671 -69.10157,44.6485 -16.09375,10.3125 -79.374995,48.9844"
         transform="matrix(0.1,0,0,-0.1,0,480)"
         id="path71" /><path
         fill-rule="nonzero"
         fill="#000000"
         fill-opacity="1"
         stroke-width="4.12337"
         stroke-linecap="square"
         stroke-linejoin="miter"
         stroke="#000000"
         stroke-opacity="1"
         stroke-miterlimit="3.25"
         d="m 4010.5078,3551.1719 -2.7344,1.6797 -6.289,4.1797 -3.5938,2.6171 -3.4375,2.7735 -2.9297,2.7344 -2.0312,2.5781 -1.3281,2.6953 -1.211,3.7891 -1.1328,4.375 -0.9765,4.6093 -1.4454,8.0078 -0.5468,3.4766 -66.875,-73.7109 z m 0,0"
         transform="matrix(0.1,0,0,-0.1,0,480)"
         id="path72" /><path
         fill-rule="nonzero"
         fill="#000000"
         fill-opacity="1"
         stroke-width="4.12337"
         stroke-linecap="square"
         stroke-linejoin="miter"
         stroke="#000000"
         stroke-opacity="1"
         stroke-miterlimit="3.25"
         d="m 3141.875,3063.3594 -2.4609,2.0703 -5.586,5.0781 -3.125,3.1641 -2.9687,3.2422 -2.461,3.2031 -1.6406,2.8516 -0.8594,2.8515 -0.664,3.9063 -0.4297,4.5312 -0.2344,4.6875 -0.1953,8.1641 v 3.4765 l -77.4609,-62.4609 z m 0,0"
         transform="matrix(0.1,0,0,-0.1,0,480)"
         id="path73" /><path
         fill-rule="nonzero"
         fill="#000000"
         fill-opacity="1"
         stroke-width="4.12337"
         stroke-linecap="square"
         stroke-linejoin="miter"
         stroke="#000000"
         stroke-opacity="1"
         stroke-miterlimit="3.25"
         d="m 1835.4297,2985.9766 -0.1172,3.2031 -0.078,7.5391 0.1562,4.4921 0.3907,4.375 0.625,3.9454 1.0156,3.164 1.4844,2.5781 2.4609,3.125 3.0078,3.3985 3.2813,3.3984 5.8203,5.6641 2.5781,2.3828 -98.4766,14.2969 z m 0,0"
         transform="matrix(0.1,0,0,-0.1,0,480)"
         id="path74" /><path
         fill-rule="nonzero"
         fill="#000000"
         fill-opacity="1"
         stroke-width="4.12337"
         stroke-linecap="square"
         stroke-linejoin="miter"
         stroke="#000000"
         stroke-opacity="1"
         stroke-miterlimit="3.25"
         d="m 752.14844,3568.9453 0.35156,3.2031 1.13281,7.461 0.85938,4.375 1.05468,4.2578 1.28907,3.8281 1.48437,2.9297 1.875,2.3438 2.89063,2.6953 3.55468,2.8515 3.75,2.8516 6.64063,4.6875 2.92969,1.9141 -95,29.6875 z m 0,0"
         transform="matrix(0.1,0,0,-0.1,0,480)"
         id="path75" /><path
         fill="none"
         stroke-width="4.12337"
         stroke-linecap="butt"
         stroke-linejoin="miter"
         stroke="#000000"
         stroke-opacity="1"
         stroke-miterlimit="3.25"
         d="m 96.015625,789.53125 74.999995,47.03125 4.375,2.89062 16.09375,10.3125 69.10157,44.64844 15.54687,8.86719 26.25,15.58594 74.72656,48.04687 48.04688,32.1875 53.20312,31.13284 87.03125,53.2031 14.57032,9.7266 9.76562,6.8359 41.83594,25.2734 50.19531,30.6641 72.53906,46.4844 29.49219,16.0547 51.48438,29.5312 51.09375,32.5 32.5,21.7969 70.70312,39.5703 57.07029,33.9063 36.7969,21.5625 9.8047,5.4296 18.7109,9.8047 85.5078,50.5469 50.5469,31.9141 54.7266,27.3437 101.6015,54.7656 5.0782,3.1641 3.164,2.1094 10.8203,5.5469 71.4454,38.4375 22.1484,10.8984 45.0781,22.1094 15.0781,8.2812 15.9375,7.6563 33.8672,16.5625 32.461,16.6797 74.5703,33.125 5.1562,2.539 2.5782,1.3672 6.7968,2.8906 47.8125,20.8594 27.6563,12.8125 30.625,11.2109 34.7265,13.6329 16.9532,6.8359 31.0547,10.1172 37.2265,14.0234 13.9844,5.2735 27.0312,7.7343 21.7188,6.5235 27.1484,7.6172 6.4063,1.914 30.9375,8.2813 26.9922,6.5625 24.3359,6.3672 15.6641,2.3437 25.5078,5 36.25,5.7813 4.8828,0.7812 3.6719,0.4297 29.2578,3.6719 8.2031,1.0937 1.2109,0.1172 35.3516,3.3594 4.5703,0.5078 5.3516,0.2344 28.8281,1.6797 6.9922,0.4687 7.5,0.078 25.625,0.4688 8.0078,0.2734 8.0078,-0.2734 25.625,-0.4688 7.5,-0.078 6.9922,-0.4687 28.8281,-1.6797 5.3516,-0.2344 4.6094,-0.4297 36.5234,-3.5547 8.2031,-1.0937 29.2578,-3.6719 3.6719,-0.4297 4.8828,-0.7812 61.7578,-10.7813 15.6641,-3.0469 24.3359,-5.664 26.9922,-6.5625 30.9375,-8.2813 6.4063,-1.914 27.1484,-7.6172 21.7188,-6.5235 27.0312,-7.7343 13.7891,-5.5079 37.4219,-13.789 31.0546,-10.1172 16.9532,-6.8359 34.7265,-13.6329 30.625,-11.2109 27.6563,-12.8125 47.8125,-20.8594 6.7969,-2.8906 2.5781,-1.3672 5.1562,-2.539 51.3672,-23.2032 23.2031,-9.9218 32.461,-16.6797 33.8672,-16.5625 15.9375,-7.6563 15.0781,-8.2812 44.8437,-22.3438 22.3829,-10.664 71.4453,-38.4375 10.8203,-5.5469 3.164,-2.1094 5.0782,-3.1641 101.6015,-54.7656 48.1641,-27.539 6.5625,-3.3985 50.5469,-28.3203 31.7578,-17.8125 54.6875,-32.7344 17.7734,-9.8047 9.8047,-5.4296 36.7969,-21.5625 57.0703,-33.9063 70.7031,-39.5703 32.5,-21.7969 51.0938,-32.5 51.4843,-29.5312 29.4922,-16.0547 72.5391,-46.4844 50.1953,-30.6641 41.8359,-25.2734 9.7657,-6.8359 14.5703,-9.7266 87.0312,-53.2031 53.2031,-31.13284 48.0469,-32.1875 74.7266,-48.04687 26.25,-15.58594 15.5469,-8.86719 69.1015,-44.64844 16.0938,-10.3125 79.375,-48.98437"
         transform="matrix(0.1,0,0,-0.1,0,480)"
         id="path76" /><path
         fill-rule="nonzero"
         fill="#000000"
         fill-opacity="1"
         stroke-width="4.12337"
         stroke-linecap="square"
         stroke-linejoin="miter"
         stroke="#000000"
         stroke-opacity="1"
         stroke-miterlimit="3.25"
         d="m 789.53125,1248.8672 2.73437,-1.6797 6.28907,-4.1797 3.59375,-2.6172 3.4375,-2.7734 2.92968,-2.7344 2.07032,-2.5781 1.28906,-2.6953 1.25,-3.7891 1.09375,-4.375 1.01562,-4.6094 1.40625,-8.0078 0.54688,-3.4765 66.91406,73.7109 z m 0,0"
         transform="matrix(0.1,0,0,-0.1,0,480)"
         id="path77" /><path
         fill-rule="nonzero"
         fill="#000000"
         fill-opacity="1"
         stroke-width="4.12337"
         stroke-linecap="square"
         stroke-linejoin="miter"
         stroke="#000000"
         stroke-opacity="1"
         stroke-miterlimit="3.25"
         d="m 1658.125,1736.6406 2.4609,-2.0703 5.586,-5.0781 3.164,-3.1641 2.9688,-3.2422 2.4219,-3.2031 1.6406,-2.8515 0.8594,-2.8516 0.664,-3.9063 0.4297,-4.5312 0.2344,-4.6875 0.1953,-8.1641 v -3.4765 l 77.5,62.4609 z m 0,0"
         transform="matrix(0.1,0,0,-0.1,0,480)"
         id="path78" /><path
         fill-rule="nonzero"
         fill="#000000"
         fill-opacity="1"
         stroke-width="4.12337"
         stroke-linecap="square"
         stroke-linejoin="miter"
         stroke="#000000"
         stroke-opacity="1"
         stroke-miterlimit="3.25"
         d="m 2964.2188,1814.1406 0.1562,-3.2031 0.078,-7.5391 -0.1562,-4.4531 -0.3906,-4.375 -0.6641,-3.9844 -0.9766,-3.125 -1.5234,-2.5781 -2.4219,-3.125 -3.0469,-3.3984 -3.2421,-3.3985 -5.8204,-5.664 -2.5781,-2.3828 98.4766,-14.2969 z m 0,0"
         transform="matrix(0.1,0,0,-0.1,0,480)"
         id="path79" /><path
         fill-rule="nonzero"
         fill="#000000"
         fill-opacity="1"
         stroke-width="4.12337"
         stroke-linecap="square"
         stroke-linejoin="miter"
         stroke="#000000"
         stroke-opacity="1"
         stroke-miterlimit="3.25"
         d="m 4047.8125,1231.0547 -0.3516,-3.1641 -1.1328,-7.4609 -0.8593,-4.375 -1.0547,-4.2969 -1.2891,-3.789 -1.4844,-2.9688 -1.875,-2.3047 -2.8906,-2.6953 -3.5547,-2.8906 -3.75,-2.8125 -6.6406,-4.6875 -2.9297,-1.9531 95,-29.6485 z m 0,0"
         transform="matrix(0.1,0,0,-0.1,0,480)"
         id="path80" /></g></g></svg>
