<?xml version="1.0" encoding="UTF-8"?>
<svg xmlns="http://www.w3.org/2000/svg" xmlns:xlink="http://www.w3.org/1999/xlink" width="481" height="480" viewBox="0 0 481 480">
<path fill="none" stroke-width="4.8" stroke-linecap="butt" stroke-linejoin="miter" stroke="rgb(0%, 0%, 0%)" stroke-opacity="1" stroke-miterlimit="3.25" d="M 3893.984375 1823.984375 L 3926.25 1861.171875 L 3950.117188 1892.96875 L 3960.507812 1906.289062 L 3963.4375 1910.78125 L 3996.601562 1955.390625 L 4013.476562 1988.554688 L 4045.703125 2057.8125 L 4050.039062 2066.523438 L 4051.796875 2070.859375 L 4055.351562 2080.507812 L 4072.96875 2125.898438 L 4081.25 2153.125 L 4086.875 2174.257812 L 4091.367188 2189.765625 L 4093.984375 2201.40625 L 4103.046875 2235.429688 L 4105.859375 2257.539062 L 4111.71875 2301.40625 L 4114.492188 2317.695312 L 4114.84375 2330.898438 L 4117.421875 2389.414062 L 4117.695312 2400 L 4117.421875 2410.585938 L 4114.84375 2469.101562 L 4114.492188 2482.304688 L 4111.71875 2498.59375 L 4105.859375 2542.460938 L 4103.046875 2564.570312 L 4093.984375 2598.59375 L 4091.367188 2610.234375 L 4082.8125 2646.875 L 4072.96875 2674.101562 L 4055.351562 2719.492188 L 4052.03125 2729.140625 L 4050.039062 2733.476562 L 4045.703125 2742.1875 L 4024.257812 2790 L 4013.476562 2811.445312 L 3994.6875 2842.65625 L 3963.4375 2889.21875 L 3961.71875 2891.992188 L 3960.507812 2893.710938 L 3950.117188 2907.03125 L 3926.25 2938.828125 L 3893.984375 2976.015625 L 3887.890625 2982.734375 L 3881.132812 2989.257812 L 3846.445312 3023.59375 L 3805.507812 3058.28125 L 3801.914062 3061.328125 L 3798.867188 3063.632812 L 3779.84375 3077.304688 L 3757.695312 3093.867188 L 3754.570312 3096.289062 L 3749.414062 3099.414062 L 3716.5625 3120.625 L 3704.453125 3128.476562 L 3680.9375 3140.585938 L 3675.429688 3143.59375 L 3650.664062 3156.953125 L 3634.296875 3164.804688 L 3594.6875 3180.15625 L 3592.539062 3181.132812 L 3590.742188 3181.71875 L 3551.992188 3195.742188 L 3531.640625 3202.5 L 3477.421875 3215.15625 L 3469.726562 3217.148438 L 3465.039062 3218.164062 L 3436.015625 3222.851562 L 3428.554688 3224.179688 L 3427.109375 3224.296875 L 3393.125 3228.554688 L 3387.421875 3229.21875 L 3380.78125 3229.53125 L 3354.726562 3231.328125 L 3346.289062 3231.875 L 3314.53125 3232.265625 L 3305.15625 3232.617188 L 3296.40625 3231.601562 L 3225.78125 3225.78125 L 3222.851562 3225.429688 L 3220.664062 3225.039062 L 3208.28125 3222.851562 L 3181.71875 3218.671875 L 3151.328125 3212.109375 L 3140.585938 3209.648438 L 3121.679688 3203.945312 L 3119.0625 3203.203125 L 3099.414062 3197.695312 L 3087.773438 3193.398438 L 3059.375 3182.8125 L 3058.28125 3182.421875 L 3056.71875 3181.71875 L 3028.75 3170.117188 L 3017.148438 3165.234375 L 3000.859375 3156.835938 L 2982.578125 3147.148438 L 2976.015625 3143.789062 L 2973.984375 3142.578125 L 2970.78125 3140.585938 L 2934.84375 3119.570312 L 2922.578125 3111.71875 L 2906.5625 3099.414062 L 2893.710938 3090.625 L 2875.664062 3076.328125 L 2854.335938 3058.28125 L 2852.578125 3056.835938 L 2835.15625 3040.898438 L 2831.835938 3037.851562 L 2811.445312 3017.695312 L 2804.335938 3010.039062 L 2791.289062 2996.132812 L 2773.984375 2976.015625 L 2770.273438 2971.71875 L 2753.945312 2951.171875 L 2742.109375 2934.84375 L 2729.140625 2916.71875 L 2719.570312 2903.28125 L 2714.414062 2893.710938 L 2694.21875 2858.789062 L 2690.351562 2852.578125 L 2689.492188 2851.09375 L 2688.007812 2848.28125 L 2669.296875 2811.445312 L 2661.523438 2796.757812 L 2646.875 2759.53125 L 2638.085938 2737.929688 L 2635.273438 2729.140625 L 2630.742188 2713.046875 L 2617.929688 2675.820312 L 2610.898438 2646.875 L 2605.703125 2623.90625 L 2602.226562 2609.21875 L 2600.898438 2600.898438 L 2593.984375 2564.570312 L 2589.960938 2539.179688 L 2586.5625 2504.296875 L 2584.101562 2482.304688 L 2582.851562 2464.023438 L 2581.289062 2416.71875 L 2580.195312 2400 L 2581.132812 2383.4375 L 2583.28125 2317.695312 L 2588.59375 2259.453125 L 2592.890625 2235.429688 L 2602.65625 2197.34375 L 2609.84375 2153.125 L 2615.820312 2122.109375 L 2635.273438 2070.859375 L 2638.085938 2062.070312 L 2646.875 2040.46875 L 2661.523438 2003.242188 L 2669.296875 1988.554688 L 2688.007812 1951.71875 L 2689.492188 1948.90625 L 2690.351562 1947.421875 L 2693.632812 1941.796875 L 2704.296875 1922.578125 L 2714.414062 1906.289062 L 2719.570312 1896.71875 L 2729.140625 1883.28125 L 2742.109375 1865.15625 L 2753.320312 1848.164062 L 2770.273438 1828.28125 L 2773.984375 1823.984375 L 2791.289062 1803.867188 L 2804.335938 1789.960938 L 2811.445312 1782.304688 L 2831.835938 1762.148438 L 2835.15625 1759.101562 L 2852.578125 1743.164062 L 2854.335938 1741.71875 L 2875.078125 1723.085938 L 2893.710938 1709.375 L 2906.5625 1700.585938 L 2922.578125 1688.28125 L 2934.84375 1680.429688 L 2970.78125 1659.414062 L 2973.945312 1657.382812 L 2976.015625 1656.054688 L 2982.421875 1653.007812 L 3028.476562 1629.609375 L 3056.71875 1618.28125 L 3058.28125 1617.578125 L 3087.539062 1606.40625 L 3099.414062 1602.304688 L 3121.796875 1595.9375 L 3140.585938 1590.351562 L 3151.328125 1587.890625 L 3181.71875 1581.328125 L 3208.28125 1577.148438 L 3220.664062 1574.960938 L 3222.851562 1574.570312 L 3225.78125 1574.21875 L 3296.40625 1568.398438 L 3305.15625 1567.382812 L 3314.53125 1567.734375 L 3380.78125 1570.507812 L 3387.421875 1570.78125 L 3393.125 1571.445312 L 3427.109375 1575.703125 L 3428.554688 1575.820312 L 3436.015625 1577.148438 L 3464.882812 1581.953125 L 3469.726562 1582.851562 L 3477.421875 1584.84375 L 3510.859375 1592.1875 L 3531.640625 1597.5 L 3551.992188 1604.257812 L 3590.742188 1618.28125 L 3592.539062 1618.867188 L 3594.6875 1619.84375 L 3634.296875 1635.195312 L 3650.664062 1643.046875 L 3675.429688 1656.40625 L 3680.9375 1659.414062 L 3704.453125 1671.523438 L 3716.5625 1679.375 L 3749.414062 1700.585938 L 3754.570312 1703.710938 L 3779.84375 1722.695312 L 3798.867188 1736.367188 L 3805.507812 1741.71875 L 3846.445312 1776.40625 L 3881.132812 1810.742188 L 3893.984375 1823.984375 " transform="matrix(0.1, 0, 0, -0.1, 0, 480)"/>
<path fill-rule="nonzero" fill="rgb(0%, 0%, 0%)" fill-opacity="1" stroke-width="4.8" stroke-linecap="square" stroke-linejoin="miter" stroke="rgb(0%, 0%, 0%)" stroke-opacity="1" stroke-miterlimit="3.25" d="M 4052.1875 2666.015625 L 4054.21875 2668.476562 L 4059.257812 2674.101562 L 4062.382812 2677.304688 L 4065.585938 2680.3125 L 4068.75 2682.773438 L 4071.601562 2684.453125 L 4074.453125 2685.351562 L 4078.359375 2686.015625 L 4082.890625 2686.484375 L 4087.578125 2686.796875 L 4095.703125 2687.070312 L 4099.21875 2687.109375 L 4035.9375 2763.945312 Z M 4052.1875 2666.015625 " transform="matrix(0.1, 0, 0, -0.1, 0, 480)"/>
<path fill-rule="nonzero" fill="rgb(0%, 0%, 0%)" fill-opacity="1" stroke-width="4.8" stroke-linecap="square" stroke-linejoin="miter" stroke="rgb(0%, 0%, 0%)" stroke-opacity="1" stroke-miterlimit="3.25" d="M 3313.28125 3215.703125 L 3311.367188 3218.28125 L 3307.148438 3224.53125 L 3304.804688 3228.320312 L 3302.695312 3232.1875 L 3301.054688 3235.859375 L 3300.15625 3239.023438 L 3299.960938 3242.03125 L 3300.273438 3245.976562 L 3300.9375 3250.46875 L 3301.757812 3255.117188 L 3303.515625 3263.046875 L 3304.335938 3266.445312 L 3214.335938 3223.945312 Z M 3313.28125 3215.703125 " transform="matrix(0.1, 0, 0, -0.1, 0, 480)"/>
<path fill-rule="nonzero" fill="rgb(0%, 0%, 0%)" fill-opacity="1" stroke-width="4.8" stroke-linecap="square" stroke-linejoin="miter" stroke="rgb(0%, 0%, 0%)" stroke-opacity="1" stroke-miterlimit="3.25" d="M 2623.242188 2620.585938 L 2620.234375 2619.453125 L 2613.085938 2617.03125 L 2608.789062 2615.820312 L 2604.492188 2614.804688 L 2600.507812 2614.21875 L 2597.226562 2614.179688 L 2594.296875 2614.804688 L 2590.585938 2616.171875 L 2586.40625 2618.007812 L 2582.1875 2620.039062 L 2575 2623.828125 L 2571.953125 2625.546875 L 2588.828125 2527.460938 Z M 2623.242188 2620.585938 " transform="matrix(0.1, 0, 0, -0.1, 0, 480)"/>
<path fill-rule="nonzero" fill="rgb(0%, 0%, 0%)" fill-opacity="1" stroke-width="4.8" stroke-linecap="square" stroke-linejoin="miter" stroke="rgb(0%, 0%, 0%)" stroke-opacity="1" stroke-miterlimit="3.25" d="M 3120.195312 1618.28125 L 3121.09375 1615.234375 L 3122.929688 1607.890625 L 3123.828125 1603.515625 L 3124.492188 1599.179688 L 3124.804688 1595.15625 L 3124.570312 1591.875 L 3123.710938 1589.023438 L 3122.070312 1585.390625 L 3119.921875 1581.40625 L 3117.578125 1577.34375 L 3113.203125 1570.46875 L 3111.289062 1567.539062 L 3210.390625 1576.757812 Z M 3120.195312 1618.28125 " transform="matrix(0.1, 0, 0, -0.1, 0, 480)"/>
<path fill="none" stroke-width="4.8" stroke-linecap="butt" stroke-linejoin="miter" stroke="rgb(0%, 0%, 0%)" stroke-opacity="1" stroke-miterlimit="3.25" d="M 2821.171875 1669.179688 L 2833.203125 1659.414062 L 2864.21875 1629.921875 L 2893.710938 1605.078125 L 2910.351562 1593.75 L 2937.382812 1577.148438 L 2959.765625 1560.898438 L 2976.015625 1550.039062 L 3012.773438 1531.640625 L 3029.375 1523.789062 L 3058.28125 1509.140625 L 3068.984375 1505.546875 L 3097.460938 1494.84375 L 3099.414062 1494.023438 L 3129.21875 1483.515625 L 3140.585938 1479.023438 L 3161.25 1474.179688 L 3193.867188 1465.859375 L 3222.851562 1457.929688 L 3263.59375 1453.28125 L 3264.570312 1453.164062 L 3305.15625 1446.679688 L 3339.023438 1446.445312 L 3354.296875 1445.703125 L 3387.421875 1443.984375 L 3421.914062 1447.070312 L 3434.6875 1447.578125 L 3469.726562 1449.375 L 3508.28125 1456.289062 L 3514.765625 1457.617188 L 3551.992188 1463.164062 L 3623.242188 1483.828125 L 3634.296875 1486.210938 L 3641.09375 1488.046875 L 3657.265625 1494.84375 L 3716.5625 1516.796875 L 3757.109375 1536.640625 L 3759.882812 1538.164062 L 3798.867188 1558.046875 L 3830 1577.148438 L 3862.929688 1595.351562 L 3881.132812 1610.390625 L 3943.398438 1659.414062 L 3954.375 1668.476562 L 3963.4375 1677.03125 L 4028.75 1741.71875 L 4036.875 1750.546875 L 4045.703125 1761.484375 L 4074.414062 1795.3125 L 4096.289062 1823.984375 L 4109.375 1842.65625 L 4128.007812 1872.578125 L 4149.765625 1906.289062 L 4170.664062 1945.898438 L 4173.4375 1951.71875 L 4192.460938 1988.554688 L 4210.273438 2033.867188 L 4221.328125 2059.804688 L 4225.703125 2070.859375 L 4232.070312 2092.65625 L 4241.679688 2121.757812 L 4251.523438 2153.125 L 4258.359375 2187.34375 L 4261.71875 2204.570312 L 4268.828125 2235.429688 L 4276.484375 2301.640625 L 4278.789062 2317.695312 L 4279.0625 2331.210938 L 4281.289062 2388.710938 L 4282.03125 2400 L 4281.289062 2411.289062 L 4279.0625 2468.789062 L 4278.789062 2482.304688 L 4276.40625 2498.476562 L 4271.171875 2543.203125 L 4268.828125 2564.570312 L 4261.71875 2595.429688 L 4258.359375 2612.65625 L 4251.523438 2646.875 L 4241.679688 2678.242188 L 4232.070312 2707.34375 L 4225.703125 2729.140625 L 4221.328125 2740.195312 L 4210.273438 2766.132812 L 4197.734375 2798.867188 L 4192.460938 2811.445312 L 4173.4375 2848.28125 L 4170.664062 2854.101562 L 4169.140625 2856.71875 L 4149.101562 2893.710938 L 4141.523438 2907.226562 L 4128.007812 2927.734375 L 4123.59375 2934.84375 L 4109.375 2957.34375 L 4095.351562 2976.015625 L 4086.875 2987.265625 L 4074.023438 3004.335938 L 4063.828125 3017.148438 L 4045.703125 3038.476562 L 4036.601562 3049.179688 L 4028.359375 3058.28125 L 4004.570312 3083.242188 L 3996.601562 3091.484375 L 3988.398438 3099.414062 L 3963.4375 3122.773438 L 3954.375 3131.523438 L 3943.398438 3140.585938 L 3909.375 3168.789062 L 3881.132812 3189.609375 L 3861.679688 3203.398438 L 3830 3222.851562 L 3811.015625 3235.039062 L 3798.867188 3241.953125 L 3759.882812 3261.835938 L 3757.109375 3263.359375 L 3716.5625 3283.203125 L 3701.054688 3289.609375 L 3657.265625 3305.15625 L 3640.703125 3311.5625 L 3634.296875 3313.476562 L 3622.851562 3316.601562 L 3593.125 3325.742188 L 3577.070312 3330.195312 L 3551.992188 3335.625 L 3514.765625 3342.382812 L 3508.28125 3343.710938 L 3488.515625 3346.289062 L 3469.726562 3348.984375 L 3434.6875 3352.421875 L 3421.914062 3352.929688 L 3387.421875 3354.492188 L 3354.296875 3354.296875 L 3339.023438 3353.554688 L 3305.15625 3351.5625 L 3264.570312 3346.835938 L 3263.59375 3346.71875 L 3222.851562 3342.070312 L 3193.867188 3334.140625 L 3161.25 3325.820312 L 3140.585938 3320.976562 L 3129.21875 3316.484375 L 3099.414062 3305.976562 L 3097.460938 3305.15625 L 3068.984375 3294.453125 L 3058.28125 3290.039062 L 3029.375 3276.210938 L 3012.773438 3268.359375 L 3005.351562 3263.984375 L 2976.015625 3248.554688 L 2959.765625 3239.101562 L 2937.382812 3222.851562 L 2910.351562 3206.25 L 2893.710938 3193.320312 L 2879.765625 3181.71875 L 2864.21875 3170.078125 L 2852.578125 3159.609375 L 2832.578125 3140.585938 L 2821.171875 3130.820312 L 2811.445312 3120.625 L 2792.03125 3099.414062 L 2781.054688 3088.632812 L 2770.273438 3075.429688 L 2756.71875 3058.28125 L 2743.867188 3043.554688 L 2729.140625 3022.109375 L 2725.78125 3017.148438 L 2709.726562 2995.429688 L 2698.59375 2976.015625 L 2688.007812 2958.867188 L 2678.867188 2944.023438 L 2661.25 2908.085938 L 2653.359375 2893.710938 L 2646.875 2880.390625 L 2625.507812 2832.8125 L 2618.242188 2811.445312 L 2605.703125 2775.46875 L 2604.335938 2771.640625 L 2604.023438 2770.273438 L 2603.4375 2768.007812 L 2591.40625 2729.140625 L 2585.117188 2708.59375 L 2574.21875 2656.484375 L 2571.71875 2646.875 L 2570.351562 2641.09375 L 2564.570312 2606.71875 L 2564.375 2605.703125 L 2558.828125 2570.3125 L 2558.242188 2564.570312 L 2557.617188 2557.617188 L 2551.054688 2495.820312 L 2550.234375 2482.304688 L 2549.648438 2467.382812 L 2547.8125 2416.757812 L 2547.578125 2400 L 2547.8125 2383.242188 L 2549.648438 2332.617188 L 2550.234375 2317.695312 L 2551.054688 2304.179688 L 2557.617188 2242.382812 L 2558.242188 2235.429688 L 2558.828125 2229.6875 L 2564.375 2194.296875 L 2564.570312 2193.28125 L 2570.351562 2158.90625 L 2571.71875 2153.125 L 2574.21875 2143.515625 L 2585.117188 2091.40625 L 2591.40625 2070.859375 L 2594.53125 2059.6875 L 2603.320312 2032.109375 L 2604.023438 2029.726562 L 2604.414062 2028.398438 L 2605.703125 2024.53125 L 2618.242188 1988.554688 L 2625.507812 1967.1875 L 2634.6875 1947.421875 L 2646.875 1919.921875 L 2651.171875 1910.585938 L 2653.398438 1906.289062 L 2661.25 1891.914062 L 2678.867188 1855.976562 L 2698.671875 1823.984375 L 2709.726562 1804.570312 L 2729.140625 1776.25 L 2743.867188 1756.445312 L 2757.148438 1741.71875 L 2781.054688 1711.367188 L 2811.445312 1678.359375 L 2821.171875 1669.179688 " transform="matrix(0.1, 0, 0, -0.1, 0, 480)"/>
<path fill-rule="nonzero" fill="rgb(0%, 0%, 0%)" fill-opacity="1" stroke-width="4.8" stroke-linecap="square" stroke-linejoin="miter" stroke="rgb(0%, 0%, 0%)" stroke-opacity="1" stroke-miterlimit="3.25" d="M 3787.34375 1565.742188 L 3790.273438 1564.414062 L 3797.03125 1561.054688 L 3800.9375 1558.90625 L 3804.6875 1556.5625 L 3807.929688 1554.21875 L 3810.273438 1551.875 L 3811.875 1549.375 L 3813.59375 1545.78125 L 3815.234375 1541.5625 L 3816.796875 1537.109375 L 3819.179688 1529.335938 L 3820.15625 1525.976562 L 3877.460938 1607.34375 Z M 3787.34375 1565.742188 " transform="matrix(0.1, 0, 0, -0.1, 0, 480)"/>
<path fill-rule="nonzero" fill="rgb(0%, 0%, 0%)" fill-opacity="1" stroke-width="4.8" stroke-linecap="square" stroke-linejoin="miter" stroke="rgb(0%, 0%, 0%)" stroke-opacity="1" stroke-miterlimit="3.25" d="M 4250.117188 2524.648438 L 4252.65625 2526.5625 L 4258.828125 2530.9375 L 4262.578125 2533.359375 L 4266.40625 2535.585938 L 4270 2537.304688 L 4273.164062 2538.28125 L 4276.132812 2538.515625 L 4280.117188 2538.28125 L 4284.609375 2537.734375 L 4289.257812 2536.992188 L 4297.265625 2535.46875 L 4300.664062 2534.6875 L 4256.132812 2623.710938 Z M 4250.117188 2524.648438 " transform="matrix(0.1, 0, 0, -0.1, 0, 480)"/>
<path fill-rule="nonzero" fill="rgb(0%, 0%, 0%)" fill-opacity="1" stroke-width="4.8" stroke-linecap="square" stroke-linejoin="miter" stroke="rgb(0%, 0%, 0%)" stroke-opacity="1" stroke-miterlimit="3.25" d="M 3552.539062 3315.46875 L 3551.40625 3318.4375 L 3549.023438 3325.625 L 3547.8125 3329.882812 L 3546.796875 3334.179688 L 3546.210938 3338.164062 L 3546.171875 3341.445312 L 3546.796875 3344.375 L 3548.164062 3348.125 L 3550 3352.265625 L 3552.070312 3356.484375 L 3555.859375 3363.710938 L 3557.578125 3366.757812 L 3459.453125 3349.960938 Z M 3552.539062 3315.46875 " transform="matrix(0.1, 0, 0, -0.1, 0, 480)"/>
<path fill-rule="nonzero" fill="rgb(0%, 0%, 0%)" fill-opacity="1" stroke-width="4.8" stroke-linecap="square" stroke-linejoin="miter" stroke="rgb(0%, 0%, 0%)" stroke-opacity="1" stroke-miterlimit="3.25" d="M 2578.164062 2556.210938 L 2575.234375 2554.921875 L 2568.242188 2552.070312 L 2564.023438 2550.585938 L 2559.804688 2549.335938 L 2555.898438 2548.476562 L 2552.578125 2548.28125 L 2549.648438 2548.710938 L 2545.859375 2549.84375 L 2541.5625 2551.40625 L 2537.226562 2553.203125 L 2529.804688 2556.5625 L 2526.679688 2558.085938 L 2549.414062 2461.210938 Z M 2578.164062 2556.210938 " transform="matrix(0.1, 0, 0, -0.1, 0, 480)"/>
<path fill="none" stroke-width="4.8" stroke-linecap="butt" stroke-linejoin="miter" stroke="rgb(0%, 0%, 0%)" stroke-opacity="1" stroke-miterlimit="3.25" d="M 3803.125 1330.273438 L 3881.132812 1361.640625 L 3916.875 1376.835938 L 3963.4375 1404.960938 L 3975.976562 1412.578125 L 4019.335938 1438.945312 L 4045.703125 1457.03125 L 4095.859375 1494.84375 L 4113.90625 1508.945312 L 4128.007812 1521.289062 L 4188.59375 1577.148438 L 4200.078125 1587.34375 L 4210.273438 1599.726562 L 4263.789062 1659.414062 L 4277.460938 1674.53125 L 4292.578125 1697.070312 L 4325.703125 1741.71875 L 4345 1771.601562 L 4374.84375 1822.304688 L 4375.898438 1823.984375 L 4376.953125 1826.09375 L 4404.375 1876.757812 L 4419.257812 1906.289062 L 4449.023438 1980.46875 L 4453.90625 1991.796875 L 4457.148438 2002.460938 L 4480.742188 2070.859375 L 4493.632812 2116.640625 L 4501.796875 2153.125 L 4510.585938 2206.601562 L 4516.132812 2235.429688 L 4518.632812 2256.25 L 4526.757812 2387.34375 L 4527.265625 2400 L 4526.757812 2412.65625 L 4524.492188 2482.304688 L 4518.632812 2543.75 L 4516.132812 2564.570312 L 4510.585938 2593.398438 L 4501.796875 2646.875 L 4493.632812 2683.359375 L 4480.742188 2729.140625 L 4457.148438 2797.539062 L 4453.90625 2808.203125 L 4452.65625 2811.445312 L 4449.023438 2819.53125 L 4419.257812 2893.710938 L 4404.375 2923.242188 L 4376.953125 2973.90625 L 4375.898438 2976.015625 L 4374.84375 2977.695312 L 4345 3028.398438 L 4325.703125 3058.28125 L 4292.578125 3102.929688 L 4276.679688 3124.6875 L 4263.789062 3140.585938 L 4210.273438 3200.273438 L 4199.53125 3212.109375 L 4188.59375 3222.851562 L 4128.007812 3278.710938 L 4113.90625 3291.054688 L 4095.859375 3305.15625 L 4045.703125 3342.96875 L 4019.335938 3361.054688 L 3975.976562 3387.421875 L 3963.4375 3395.039062 L 3947.578125 3403.28125 L 3915.117188 3421.367188 L 3881.132812 3438.359375 L 3803.125 3469.726562 L 3800.195312 3471.015625 L 3798.867188 3471.445312 L 3796.523438 3472.070312 L 3716.5625 3498.515625 L 3679.882812 3506.40625 L 3672.8125 3508.242188 L 3634.296875 3517.265625 L 3603.59375 3521.328125 L 3580 3523.984375 L 3551.992188 3527.539062 L 3529.53125 3529.53125 L 3490.78125 3530.9375 L 3469.726562 3532.617188 L 3449.492188 3531.796875 L 3409.375 3530.039062 L 3387.421875 3529.960938 L 3362.734375 3527.304688 L 3263.75 3511.09375 L 3222.851562 3502.226562 L 3147.851562 3476.992188 L 3137.109375 3473.164062 L 3130.039062 3469.726562 L 3078.945312 3449.0625 L 3058.28125 3440.625 L 3024.296875 3421.40625 L 2989.0625 3400.507812 L 2976.015625 3392.8125 L 2972.8125 3390.625 L 2968.242188 3387.421875 L 2934.84375 3365.351562 L 2923.984375 3357.148438 L 2910.234375 3346.289062 L 2893.710938 3333.984375 L 2878.085938 3320.78125 L 2860.546875 3305.15625 L 2852.578125 3298.4375 L 2834.921875 3281.679688 L 2817.382812 3263.984375 L 2811.445312 3258.242188 L 2794.375 3239.921875 L 2779.53125 3222.851562 L 2770.273438 3212.617188 L 2756.40625 3195.585938 L 2745.9375 3181.71875 L 2729.140625 3159.960938 L 2720.859375 3148.867188 L 2715.898438 3140.585938 L 2704.492188 3124.0625 L 2690.820312 3102.265625 L 2688.984375 3099.414062 L 2688.59375 3098.828125 L 2688.007812 3097.890625 L 2665.039062 3058.28125 L 2657.96875 3047.148438 L 2646.875 3024.257812 L 2643.4375 3017.148438 L 2630.507812 2992.34375 L 2624.101562 2976.015625 L 2607.851562 2936.992188 L 2606.835938 2934.84375 L 2606.484375 2934.0625 L 2605.703125 2932.070312 L 2591.367188 2893.710938 L 2583.789062 2874.492188 L 2577.65625 2852.578125 L 2566.132812 2812.96875 L 2565.585938 2811.445312 L 2565.3125 2810.703125 L 2564.570312 2807.773438 L 2554.84375 2770.273438 L 2548.320312 2745.390625 L 2545.46875 2729.140625 L 2541.523438 2706.09375 L 2535 2676.445312 L 2530.703125 2646.875 L 2525.507812 2607.8125 L 2524.921875 2604.21875 L 2523.4375 2590.15625 L 2520.585938 2564.570312 L 2517.382812 2529.492188 L 2516.757812 2516.757812 L 2514.53125 2482.304688 L 2513.28125 2451.289062 L 2512.929688 2430.664062 L 2512.539062 2400 L 2512.929688 2369.335938 L 2513.28125 2348.710938 L 2514.53125 2317.695312 L 2516.757812 2283.242188 L 2517.382812 2270.507812 L 2520.585938 2235.429688 L 2523.4375 2209.84375 L 2524.921875 2195.78125 L 2525.507812 2192.1875 L 2530.703125 2153.125 L 2535 2123.554688 L 2541.523438 2093.90625 L 2545.46875 2070.859375 L 2548.320312 2054.609375 L 2554.84375 2029.726562 L 2564.570312 1992.226562 L 2565.3125 1989.296875 L 2565.585938 1988.554688 L 2566.132812 1987.03125 L 2577.65625 1947.421875 L 2583.789062 1925.507812 L 2591.367188 1906.289062 L 2605.703125 1867.929688 L 2606.484375 1865.898438 L 2607.851562 1863.007812 L 2624.101562 1823.984375 L 2630.507812 1807.65625 L 2643.4375 1782.851562 L 2646.875 1775.742188 L 2657.96875 1752.851562 L 2665.039062 1741.71875 L 2688.007812 1702.109375 L 2688.554688 1701.132812 L 2691.132812 1697.421875 L 2715.898438 1659.414062 L 2720.859375 1651.132812 L 2729.140625 1640.039062 L 2745.9375 1618.28125 L 2755.976562 1603.984375 L 2770.273438 1587.382812 L 2779.53125 1577.148438 L 2793.867188 1559.570312 L 2811.445312 1541.757812 L 2817.382812 1536.015625 L 2834.414062 1517.851562 L 2861.523438 1494.84375 L 2893.710938 1464.570312 L 2923.75 1442.617188 L 2968.554688 1412.578125 L 2976.015625 1406.953125 L 2989.0625 1399.492188 L 3024.296875 1378.59375 L 3058.28125 1359.375 L 3130.039062 1330.273438 L 3137.1875 1326.914062 L 3140.585938 1325.351562 L 3147.773438 1323.085938 L 3198.671875 1306.09375 L 3222.851562 1299.179688 L 3263.4375 1289.726562 L 3264.375 1289.492188 L 3305.15625 1279.882812 L 3334.257812 1277.109375 L 3361.914062 1273.515625 L 3387.421875 1270.039062 L 3409.375 1269.960938 L 3449.492188 1268.203125 L 3469.726562 1268.164062 L 3490.78125 1269.0625 L 3529.53125 1270.46875 L 3551.992188 1271.5625 L 3580 1276.015625 L 3603.59375 1278.671875 L 3634.296875 1282.734375 L 3672.8125 1291.757812 L 3679.882812 1293.59375 L 3716.5625 1301.484375 L 3796.523438 1327.929688 L 3800.195312 1328.984375 L 3803.125 1330.273438 " transform="matrix(0.1, 0, 0, -0.1, 0, 480)"/>
<path fill-rule="nonzero" fill="rgb(0%, 0%, 0%)" fill-opacity="1" stroke-width="4.8" stroke-linecap="square" stroke-linejoin="miter" stroke="rgb(0%, 0%, 0%)" stroke-opacity="1" stroke-miterlimit="3.25" d="M 4495 2283.28125 L 4497.929688 2284.492188 L 4505 2287.148438 L 4509.257812 2288.515625 L 4513.515625 2289.6875 L 4517.460938 2290.429688 L 4520.742188 2290.546875 L 4523.710938 2290.039062 L 4527.460938 2288.828125 L 4531.679688 2287.148438 L 4535.976562 2285.234375 L 4543.320312 2281.679688 L 4546.445312 2280.078125 L 4526.132812 2377.539062 Z M 4495 2283.28125 " transform="matrix(0.1, 0, 0, -0.1, 0, 480)"/>
<path fill-rule="nonzero" fill="rgb(0%, 0%, 0%)" fill-opacity="1" stroke-width="4.8" stroke-linecap="square" stroke-linejoin="miter" stroke="rgb(0%, 0%, 0%)" stroke-opacity="1" stroke-miterlimit="3.25" d="M 3924.257812 3393.828125 L 3924.023438 3397.03125 L 3923.710938 3404.570312 L 3923.75 3409.023438 L 3923.984375 3413.4375 L 3924.53125 3417.382812 L 3925.429688 3420.585938 L 3926.875 3423.203125 L 3929.21875 3426.40625 L 3932.148438 3429.882812 L 3935.3125 3433.359375 L 3940.976562 3439.179688 L 3943.476562 3441.640625 L 3844.609375 3453.046875 Z M 3924.257812 3393.828125 " transform="matrix(0.1, 0, 0, -0.1, 0, 480)"/>
<path fill-rule="nonzero" fill="rgb(0%, 0%, 0%)" fill-opacity="1" stroke-width="4.8" stroke-linecap="square" stroke-linejoin="miter" stroke="rgb(0%, 0%, 0%)" stroke-opacity="1" stroke-miterlimit="3.25" d="M 2742.734375 3141.914062 L 2739.53125 3142.148438 L 2732.03125 3142.929688 L 2727.617188 3143.59375 L 2723.320312 3144.492188 L 2719.453125 3145.585938 L 2716.445312 3146.914062 L 2714.023438 3148.710938 L 2711.210938 3151.484375 L 2708.203125 3154.882812 L 2705.195312 3158.515625 L 2700.234375 3164.960938 L 2698.164062 3167.773438 L 2672.734375 3071.5625 Z M 2742.734375 3141.914062 " transform="matrix(0.1, 0, 0, -0.1, 0, 480)"/>
<path fill-rule="nonzero" fill="rgb(0%, 0%, 0%)" fill-opacity="1" stroke-width="4.8" stroke-linecap="square" stroke-linejoin="miter" stroke="rgb(0%, 0%, 0%)" stroke-opacity="1" stroke-miterlimit="3.25" d="M 2798.28125 1581.640625 L 2797.5 1578.515625 L 2795.390625 1571.289062 L 2793.945312 1567.070312 L 2792.34375 1562.96875 L 2790.585938 1559.335938 L 2788.710938 1556.640625 L 2786.523438 1554.609375 L 2783.28125 1552.304688 L 2779.414062 1549.921875 L 2775.3125 1547.617188 L 2768.085938 1543.867188 L 2764.960938 1542.34375 L 2855.15625 1500.273438 Z M 2798.28125 1581.640625 " transform="matrix(0.1, 0, 0, -0.1, 0, 480)"/>
<path fill="none" stroke-width="4.8" stroke-linecap="butt" stroke-linejoin="miter" stroke="rgb(0%, 0%, 0%)" stroke-opacity="1" stroke-miterlimit="3.25" d="M 4703.984375 3215.117188 L 4701.210938 3220.078125 L 4699.21875 3222.851562 L 4685.703125 3241.132812 L 4632.460938 3315.898438 L 4621.71875 3327.734375 L 4571.210938 3387.421875 L 4556.679688 3404.6875 L 4539.414062 3420.859375 L 4490.078125 3469.726562 L 4473.710938 3486.289062 L 4393.632812 3551.992188 L 4374.84375 3566.484375 L 4331.171875 3595.703125 L 4286.09375 3627.8125 L 4274.375 3634.296875 L 4210.273438 3672.070312 L 4182.265625 3688.554688 L 4128.007812 3712.421875 L 4118.203125 3716.5625 L 4068.515625 3739.375 L 4045.703125 3747.070312 L 4001.5625 3760.703125 L 3945.15625 3780.585938 L 3881.132812 3799.414062 L 3809.609375 3809.609375 L 3785.585938 3812.109375 L 3716.5625 3821.015625 L 3660.039062 3824.609375 L 3609.375 3823.75 L 3551.992188 3823.007812 L 3487.734375 3816.875 L 3456.40625 3812.1875 L 3387.421875 3799.765625 L 3384.179688 3798.867188 L 3320.507812 3783.476562 L 3305.15625 3780.078125 L 3276.40625 3770.117188 L 3257.773438 3763.945312 L 3222.851562 3752.695312 L 3197.96875 3741.445312 L 3143.164062 3716.5625 L 3141.289062 3715.820312 L 3140.585938 3715.546875 L 3138.359375 3714.375 L 3086.914062 3687.929688 L 3058.28125 3672.773438 L 3002.65625 3634.296875 L 2986.132812 3624.140625 L 2976.015625 3617.578125 L 2896.953125 3551.992188 L 2895.078125 3550.625 L 2893.710938 3549.492188 L 2852.929688 3510.507812 L 2814.53125 3469.726562 L 2812.929688 3468.242188 L 2811.445312 3466.71875 L 2775 3423.867188 L 2747.96875 3387.421875 L 2739.257812 3377.304688 L 2729.140625 3363.632812 L 2705.742188 3328.554688 L 2692.617188 3305.15625 L 2674.648438 3277.34375 L 2668.085938 3263.984375 L 2646.875 3224.648438 L 2646.25 3223.476562 L 2645.976562 3222.851562 L 2645.3125 3221.328125 L 2618.984375 3168.476562 L 2607.695312 3140.585938 L 2605.703125 3136.132812 L 2594.960938 3110.195312 L 2591.054688 3099.414062 L 2583.710938 3080.273438 L 2582.304688 3076.015625 L 2575.898438 3058.28125 L 2572.773438 3050.078125 L 2564.570312 3025 L 2562.65625 3019.0625 L 2562.109375 3017.148438 L 2561.132812 3013.710938 L 2552.851562 2987.695312 L 2549.6875 2976.015625 L 2544.921875 2956.328125 L 2538.4375 2934.84375 L 2534.804688 2923.476562 L 2528.359375 2893.710938 L 2523.4375 2871.953125 L 2519.84375 2856.171875 L 2519.335938 2852.578125 L 2518.632812 2847.773438 L 2511.25 2811.445312 L 2506.328125 2787.421875 L 2501.40625 2748.28125 L 2497.96875 2729.140625 L 2495.625 2715.820312 L 2492.617188 2688.007812 L 2489.140625 2653.710938 L 2488.125 2646.875 L 2487.421875 2641.71875 L 2482.304688 2576.484375 L 2481.40625 2565.46875 L 2481.367188 2564.570312 L 2481.328125 2563.59375 L 2477.421875 2487.148438 L 2477.265625 2482.304688 L 2477.226562 2477.226562 L 2476.015625 2406.289062 L 2475.976562 2400 L 2476.015625 2393.710938 L 2477.226562 2322.773438 L 2477.265625 2317.695312 L 2477.421875 2312.851562 L 2481.328125 2236.40625 L 2481.367188 2235.429688 L 2481.40625 2234.53125 L 2482.304688 2223.515625 L 2487.421875 2158.28125 L 2488.125 2153.125 L 2489.140625 2146.289062 L 2495.625 2084.179688 L 2497.96875 2070.859375 L 2501.40625 2051.71875 L 2506.328125 2012.578125 L 2511.25 1988.554688 L 2518.632812 1952.226562 L 2519.84375 1943.828125 L 2523.4375 1928.046875 L 2528.359375 1906.289062 L 2534.804688 1876.523438 L 2538.4375 1865.15625 L 2544.921875 1843.671875 L 2549.6875 1823.984375 L 2552.851562 1812.304688 L 2561.132812 1786.289062 L 2562.109375 1782.851562 L 2562.65625 1780.9375 L 2564.570312 1775 L 2572.773438 1749.921875 L 2575.898438 1741.71875 L 2583.359375 1722.929688 L 2594.570312 1689.453125 L 2605.703125 1663.867188 L 2607.695312 1659.414062 L 2618.984375 1631.523438 L 2645.3125 1578.671875 L 2645.976562 1577.148438 L 2646.25 1576.523438 L 2646.875 1575.351562 L 2668.085938 1536.015625 L 2674.648438 1522.65625 L 2692.617188 1494.84375 L 2705.742188 1471.445312 L 2729.140625 1436.367188 L 2739.257812 1422.695312 L 2747.96875 1412.578125 L 2775 1376.132812 L 2811.445312 1333.28125 L 2812.929688 1331.757812 L 2814.53125 1330.273438 L 2852.929688 1289.492188 L 2893.710938 1250.507812 L 2895.078125 1249.375 L 2896.953125 1248.007812 L 2939.453125 1211.445312 L 2976.015625 1182.421875 L 2986.132812 1175.859375 L 3002.65625 1165.703125 L 3035.234375 1142.65625 L 3058.28125 1127.226562 L 3086.914062 1112.070312 L 3138.359375 1085.625 L 3140.585938 1084.492188 L 3141.289062 1084.179688 L 3143.007812 1083.4375 L 3181.71875 1065.273438 L 3197.96875 1058.554688 L 3222.851562 1048.671875 L 3241.289062 1042.304688 L 3257.773438 1036.054688 L 3276.40625 1029.882812 L 3305.15625 1020.664062 L 3320.507812 1016.523438 L 3384.179688 1001.132812 L 3387.421875 1000.234375 L 3456.40625 987.8125 L 3487.734375 983.125 L 3551.992188 973.046875 L 3609.375 976.25 L 3660.039062 975.390625 L 3716.5625 978.984375 L 3785.585938 987.890625 L 3809.609375 990.390625 L 3881.132812 1000.585938 L 3945.15625 1019.414062 L 4001.5625 1039.296875 L 4045.703125 1052.929688 L 4068.515625 1060.625 L 4116.835938 1083.4375 L 4182.265625 1111.445312 L 4210.273438 1127.929688 L 4274.375 1165.703125 L 4286.09375 1172.1875 L 4331.171875 1204.296875 L 4374.84375 1233.515625 L 4383.359375 1239.492188 L 4393.632812 1248.007812 L 4473.710938 1313.710938 L 4490.078125 1330.273438 L 4539.414062 1379.140625 L 4556.679688 1395.3125 L 4571.210938 1412.578125 L 4621.71875 1472.265625 L 4632.460938 1484.101562 L 4685.703125 1558.867188 L 4699.414062 1577.148438 L 4701.210938 1579.921875 L 4703.984375 1584.882812 " transform="matrix(0.1, 0, 0, -0.1, 0, 480)"/>
<path fill-rule="nonzero" fill="rgb(0%, 0%, 0%)" fill-opacity="1" stroke-width="4.8" stroke-linecap="square" stroke-linejoin="miter" stroke="rgb(0%, 0%, 0%)" stroke-opacity="1" stroke-miterlimit="3.25" d="M 3671.953125 3799.335938 L 3670.507812 3802.1875 L 3667.34375 3809.023438 L 3665.664062 3813.164062 L 3664.179688 3817.304688 L 3663.125 3821.210938 L 3662.773438 3824.453125 L 3663.046875 3827.421875 L 3663.984375 3831.289062 L 3665.351562 3835.625 L 3666.914062 3840.078125 L 3669.921875 3847.617188 L 3671.289062 3850.859375 L 3575.625 3823.320312 Z M 3671.953125 3799.335938 " transform="matrix(0.1, 0, 0, -0.1, 0, 480)"/>
<path fill-rule="nonzero" fill="rgb(0%, 0%, 0%)" fill-opacity="1" stroke-width="4.8" stroke-linecap="square" stroke-linejoin="miter" stroke="rgb(0%, 0%, 0%)" stroke-opacity="1" stroke-miterlimit="3.25" d="M 2632.65625 3140.898438 L 2629.492188 3140.546875 L 2621.953125 3140 L 2617.5 3139.882812 L 2613.085938 3139.960938 L 2609.101562 3140.351562 L 2605.898438 3141.171875 L 2603.203125 3142.5 L 2599.960938 3144.726562 L 2596.367188 3147.539062 L 2592.773438 3150.546875 L 2586.757812 3156.015625 L 2584.21875 3158.4375 L 2576.25 3059.21875 Z M 2632.65625 3140.898438 " transform="matrix(0.1, 0, 0, -0.1, 0, 480)"/>
<path fill-rule="nonzero" fill="rgb(0%, 0%, 0%)" fill-opacity="1" stroke-width="4.8" stroke-linecap="square" stroke-linejoin="miter" stroke="rgb(0%, 0%, 0%)" stroke-opacity="1" stroke-miterlimit="3.25" d="M 2564.414062 1838.828125 L 2562.265625 1836.445312 L 2557.03125 1831.054688 L 2553.75 1828.007812 L 2550.390625 1825.117188 L 2547.148438 1822.773438 L 2544.21875 1821.25 L 2541.367188 1820.46875 L 2537.421875 1819.960938 L 2532.890625 1819.6875 L 2528.164062 1819.570312 L 2520.039062 1819.648438 L 2516.5625 1819.765625 L 2576.445312 1740.273438 Z M 2564.414062 1838.828125 " transform="matrix(0.1, 0, 0, -0.1, 0, 480)"/>
<path fill-rule="nonzero" fill="rgb(0%, 0%, 0%)" fill-opacity="1" stroke-width="4.8" stroke-linecap="square" stroke-linejoin="miter" stroke="rgb(0%, 0%, 0%)" stroke-opacity="1" stroke-miterlimit="3.25" d="M 3808.90625 1005.664062 L 3811.09375 1003.320312 L 3815.976562 997.578125 L 3818.710938 994.0625 L 3821.25 990.46875 L 3823.28125 986.992188 L 3824.53125 983.945312 L 3825.078125 981.015625 L 3825.195312 977.03125 L 3825.078125 972.5 L 3824.726562 967.8125 L 3823.90625 959.726562 L 3823.476562 956.25 L 3908.164062 1008.554688 Z M 3808.90625 1005.664062 " transform="matrix(0.1, 0, 0, -0.1, 0, 480)"/>
<path fill="none" stroke-width="4.8" stroke-linecap="butt" stroke-linejoin="miter" stroke="rgb(0%, 0%, 0%)" stroke-opacity="1" stroke-miterlimit="3.25" d="M 4703.984375 4325.664062 L 4670.195312 4341.054688 L 4621.71875 4358.828125 L 4575.742188 4374.84375 L 4549.21875 4384.648438 L 4539.414062 4387.539062 L 4522.070312 4392.226562 L 4457.148438 4412.265625 L 4422.109375 4422.109375 L 4374.84375 4432.304688 L 4304.492188 4445.234375 L 4284.765625 4449.335938 L 4210.273438 4462.65625 L 4137.65625 4466.796875 L 4117.617188 4467.539062 L 4045.703125 4474.101562 L 3977.1875 4470.898438 L 3951.132812 4469.414062 L 3881.132812 4469.0625 L 3799.882812 4456.132812 L 3797.578125 4455.859375 L 3716.5625 4446.5625 L 3660.742188 4430.703125 L 3589.726562 4412.617188 L 3551.992188 4401.914062 L 3531.953125 4394.882812 L 3484.179688 4374.84375 L 3412.265625 4350.039062 L 3387.421875 4339.765625 L 3317.1875 4304.609375 L 3301.210938 4296.523438 L 3222.851562 4255.664062 L 3196.757812 4236.367188 L 3164.492188 4210.273438 L 3099.84375 4168.75 L 3058.28125 4139.609375 L 3009.921875 4094.101562 L 2965.46875 4045.703125 L 2926.601562 4012.8125 L 2893.710938 3980.117188 L 2849.804688 3925.039062 L 2818.90625 3881.132812 L 2811.445312 3872.109375 L 2779.648438 3830.625 L 2761.992188 3798.867188 L 2748.28125 3779.726562 L 2729.140625 3748.867188 L 2717.382812 3728.320312 L 2711.71875 3716.5625 L 2689.84375 3677.265625 L 2688.476562 3674.960938 L 2668.125 3634.296875 L 2660.351562 3620.78125 L 2646.875 3592.5 L 2629.882812 3551.992188 L 2618.046875 3523.164062 L 2610.273438 3506.289062 L 2605.703125 3494.335938 L 2596.523438 3469.726562 L 2587.226562 3447.070312 L 2569.570312 3392.421875 L 2567.65625 3387.421875 L 2566.835938 3385.195312 L 2564.570312 3378.242188 L 2554.765625 3346.289062 L 2550.78125 3332.5 L 2547.5 3322.226562 L 2542.8125 3305.15625 L 2535.429688 3275.976562 L 2531.679688 3263.984375 L 2529.570312 3257.851562 L 2523.4375 3231.679688 L 2521.367188 3222.851562 L 2513.476562 3191.679688 L 2511.914062 3181.71875 L 2509.570312 3167.851562 L 2503.164062 3140.585938 L 2498.945312 3123.90625 L 2495.15625 3099.414062 L 2489.453125 3065.429688 L 2487.773438 3058.28125 L 2486.679688 3053.90625 L 2482.304688 3026.25 L 2475.46875 2982.8125 L 2474.960938 2976.015625 L 2474.335938 2968.046875 L 2469.414062 2934.84375 L 2465.585938 2910.390625 L 2464.414062 2893.710938 L 2462.96875 2874.414062 L 2457.578125 2836.171875 L 2455.859375 2811.445312 L 2454.023438 2783.164062 L 2451.132812 2760.3125 L 2449.296875 2729.140625 L 2447.304688 2694.179688 L 2446.132812 2683.007812 L 2444.140625 2646.875 L 2442.617188 2607.1875 L 2442.382812 2604.453125 L 2440.664062 2564.570312 L 2439.804688 2524.765625 L 2439.804688 2522.070312 L 2438.632812 2482.304688 L 2438.4375 2443.828125 L 2438.4375 2438.4375 L 2438.28125 2400 L 2438.4375 2361.5625 L 2438.4375 2356.171875 L 2438.632812 2317.695312 L 2439.804688 2277.929688 L 2439.804688 2275.234375 L 2440.664062 2235.429688 L 2442.382812 2195.546875 L 2442.617188 2192.8125 L 2444.140625 2153.125 L 2446.132812 2116.992188 L 2447.304688 2105.820312 L 2449.296875 2070.859375 L 2451.132812 2039.6875 L 2454.023438 2016.835938 L 2455.859375 1988.554688 L 2457.578125 1963.828125 L 2462.96875 1925.585938 L 2464.414062 1906.289062 L 2465.585938 1889.609375 L 2469.414062 1865.15625 L 2474.335938 1831.953125 L 2474.960938 1823.984375 L 2475.46875 1817.1875 L 2482.304688 1773.75 L 2486.679688 1746.09375 L 2487.773438 1741.71875 L 2489.453125 1734.570312 L 2495.15625 1700.585938 L 2498.945312 1676.09375 L 2503.164062 1659.414062 L 2509.570312 1632.148438 L 2511.914062 1618.28125 L 2513.476562 1608.320312 L 2521.367188 1577.148438 L 2523.4375 1568.320312 L 2529.570312 1542.148438 L 2531.679688 1536.015625 L 2535.429688 1524.023438 L 2542.929688 1494.84375 L 2546.914062 1477.1875 L 2564.570312 1421.328125 L 2566.757812 1414.765625 L 2567.65625 1412.578125 L 2569.570312 1407.578125 L 2587.226562 1352.929688 L 2596.835938 1330.273438 L 2610.273438 1293.710938 L 2618.046875 1276.835938 L 2629.882812 1248.007812 L 2634.375 1235.507812 L 2646.875 1207.5 L 2660.351562 1179.21875 L 2667.8125 1165.703125 L 2688.007812 1125.9375 L 2688.476562 1125.039062 L 2689.84375 1122.734375 L 2711.71875 1083.4375 L 2717.382812 1071.679688 L 2729.140625 1051.132812 L 2761.992188 1001.132812 L 2780.976562 970.703125 L 2811.445312 927.890625 L 2818.90625 918.867188 L 2843.867188 886.40625 L 2851.367188 876.484375 L 2885 836.5625 L 2893.710938 825.46875 L 2927.773438 788.359375 L 2961.914062 754.296875 L 2976.015625 739.023438 L 3009.921875 705.898438 L 3058.28125 660.390625 L 3099.84375 631.25 L 3140.585938 602.226562 L 3160.507812 589.726562 L 3196.757812 563.632812 L 3222.851562 544.335938 L 3301.210938 503.476562 L 3317.1875 495.390625 L 3387.421875 458.046875 L 3412.265625 449.960938 L 3469.726562 427.34375 L 3476.601562 425.15625 L 3531.953125 405.117188 L 3551.992188 398.085938 L 3589.726562 387.382812 L 3660.742188 369.296875 L 3716.5625 356.992188 L 3797.578125 344.140625 L 3799.882812 343.867188 L 3881.132812 330.9375 L 3951.132812 330.585938 L 3977.1875 329.101562 L 4045.703125 328.945312 L 4117.617188 332.460938 L 4137.65625 333.203125 L 4210.273438 337.34375 L 4284.765625 350.664062 L 4304.492188 354.765625 L 4374.84375 367.695312 L 4422.109375 377.890625 L 4522.070312 407.773438 L 4539.414062 412.460938 L 4548.945312 415.625 L 4575.742188 425.15625 L 4621.71875 441.171875 L 4648.75 452.1875 L 4669.140625 460 L 4703.984375 474.335938 " transform="matrix(0.1, 0, 0, -0.1, 0, 480)"/>
<path fill-rule="nonzero" fill="rgb(0%, 0%, 0%)" fill-opacity="1" stroke-width="4.8" stroke-linecap="square" stroke-linejoin="miter" stroke="rgb(0%, 0%, 0%)" stroke-opacity="1" stroke-miterlimit="3.25" d="M 3390.664062 4314.6875 L 3388.085938 4316.601562 L 3382.148438 4321.289062 L 3378.789062 4324.179688 L 3375.625 4327.226562 L 3372.929688 4330.234375 L 3371.132812 4333.007812 L 3370.039062 4335.78125 L 3369.140625 4339.648438 L 3368.398438 4344.140625 L 3367.8125 4348.789062 L 3367.070312 4356.875 L 3366.835938 4360.390625 L 3293.867188 4292.695312 Z M 3390.664062 4314.6875 " transform="matrix(0.1, 0, 0, -0.1, 0, 480)"/>
<path fill-rule="nonzero" fill="rgb(0%, 0%, 0%)" fill-opacity="1" stroke-width="4.8" stroke-linecap="square" stroke-linejoin="miter" stroke="rgb(0%, 0%, 0%)" stroke-opacity="1" stroke-miterlimit="3.25" d="M 2547.929688 3214.21875 L 2544.804688 3213.554688 L 2537.382812 3212.265625 L 2532.96875 3211.71875 L 2528.554688 3211.367188 L 2524.53125 3211.367188 L 2521.289062 3211.835938 L 2518.476562 3212.890625 L 2515 3214.804688 L 2511.171875 3217.226562 L 2507.304688 3219.921875 L 2500.742188 3224.765625 L 2498.007812 3226.914062 L 2499.84375 3127.382812 Z M 2547.929688 3214.21875 " transform="matrix(0.1, 0, 0, -0.1, 0, 480)"/>
<path fill-rule="nonzero" fill="rgb(0%, 0%, 0%)" fill-opacity="1" stroke-width="4.8" stroke-linecap="square" stroke-linejoin="miter" stroke="rgb(0%, 0%, 0%)" stroke-opacity="1" stroke-miterlimit="3.25" d="M 2500.3125 1773.320312 L 2497.890625 1771.25 L 2491.953125 1766.5625 L 2488.320312 1763.945312 L 2484.648438 1761.5625 L 2481.09375 1759.648438 L 2478.007812 1758.515625 L 2475.039062 1758.085938 L 2471.09375 1758.125 L 2466.5625 1758.4375 L 2461.875 1758.90625 L 2453.828125 1760.039062 L 2450.351562 1760.625 L 2499.453125 1674.0625 Z M 2500.3125 1773.320312 " transform="matrix(0.1, 0, 0, -0.1, 0, 480)"/>
<path fill-rule="nonzero" fill="rgb(0%, 0%, 0%)" fill-opacity="1" stroke-width="4.8" stroke-linecap="square" stroke-linejoin="miter" stroke="rgb(0%, 0%, 0%)" stroke-opacity="1" stroke-miterlimit="3.25" d="M 3546.132812 424.609375 L 3546.757812 421.445312 L 3548.046875 414.023438 L 3548.632812 409.609375 L 3548.945312 405.195312 L 3548.945312 401.171875 L 3548.476562 397.929688 L 3547.421875 395.117188 L 3545.507812 391.640625 L 3543.046875 387.8125 L 3540.390625 383.945312 L 3535.546875 377.421875 L 3533.398438 374.648438 L 3632.890625 376.40625 Z M 3546.132812 424.609375 " transform="matrix(0.1, 0, 0, -0.1, 0, 480)"/>
<path fill="none" stroke-width="4.8" stroke-linecap="butt" stroke-linejoin="miter" stroke="rgb(0%, 0%, 0%)" stroke-opacity="1" stroke-miterlimit="3.25" d="M 2400 4703.984375 L 2400 96.015625 " transform="matrix(0.1, 0, 0, -0.1, 0, 480)"/>
<path fill-rule="nonzero" fill="rgb(0%, 0%, 0%)" fill-opacity="1" stroke-width="4.8" stroke-linecap="square" stroke-linejoin="miter" stroke="rgb(0%, 0%, 0%)" stroke-opacity="1" stroke-miterlimit="3.25" d="M 2425.273438 3878.398438 L 2422.382812 3876.992188 L 2415.507812 3873.90625 L 2411.367188 3872.265625 L 2407.1875 3870.859375 L 2403.28125 3869.882812 L 2400 3869.53125 L 2397.03125 3869.882812 L 2393.203125 3870.859375 L 2388.867188 3872.265625 L 2384.453125 3873.90625 L 2376.914062 3876.992188 L 2373.710938 3878.398438 L 2400 3782.382812 Z M 2425.273438 3878.398438 " transform="matrix(0.1, 0, 0, -0.1, 0, 480)"/>
<path fill-rule="nonzero" fill="rgb(0%, 0%, 0%)" fill-opacity="1" stroke-width="4.8" stroke-linecap="square" stroke-linejoin="miter" stroke="rgb(0%, 0%, 0%)" stroke-opacity="1" stroke-miterlimit="3.25" d="M 2425.273438 2956.796875 L 2422.382812 2955.390625 L 2415.507812 2952.304688 L 2411.367188 2950.664062 L 2407.1875 2949.257812 L 2403.28125 2948.28125 L 2400 2947.929688 L 2397.03125 2948.28125 L 2393.203125 2949.257812 L 2388.867188 2950.664062 L 2384.453125 2952.304688 L 2376.914062 2955.390625 L 2373.710938 2956.796875 L 2400 2860.78125 Z M 2425.273438 2956.796875 " transform="matrix(0.1, 0, 0, -0.1, 0, 480)"/>
<path fill-rule="nonzero" fill="rgb(0%, 0%, 0%)" fill-opacity="1" stroke-width="4.8" stroke-linecap="square" stroke-linejoin="miter" stroke="rgb(0%, 0%, 0%)" stroke-opacity="1" stroke-miterlimit="3.25" d="M 2425.273438 2035.195312 L 2422.382812 2033.789062 L 2415.507812 2030.703125 L 2411.367188 2029.0625 L 2407.1875 2027.65625 L 2403.28125 2026.679688 L 2400 2026.328125 L 2397.03125 2026.679688 L 2393.203125 2027.65625 L 2388.867188 2029.0625 L 2384.453125 2030.703125 L 2376.914062 2033.789062 L 2373.710938 2035.195312 L 2400 1939.21875 Z M 2425.273438 2035.195312 " transform="matrix(0.1, 0, 0, -0.1, 0, 480)"/>
<path fill-rule="nonzero" fill="rgb(0%, 0%, 0%)" fill-opacity="1" stroke-width="4.8" stroke-linecap="square" stroke-linejoin="miter" stroke="rgb(0%, 0%, 0%)" stroke-opacity="1" stroke-miterlimit="3.25" d="M 2425.273438 883.203125 L 2422.382812 881.796875 L 2415.507812 878.710938 L 2411.367188 877.070312 L 2407.1875 875.664062 L 2403.28125 874.6875 L 2400 874.335938 L 2397.03125 874.6875 L 2393.203125 875.664062 L 2388.867188 877.070312 L 2384.453125 878.710938 L 2376.914062 881.796875 L 2373.710938 883.203125 L 2400 787.1875 Z M 2425.273438 883.203125 " transform="matrix(0.1, 0, 0, -0.1, 0, 480)"/>
<path fill="none" stroke-width="4.8" stroke-linecap="butt" stroke-linejoin="miter" stroke="rgb(0%, 0%, 0%)" stroke-opacity="1" stroke-miterlimit="3.25" d="M 96.015625 4325.664062 L 129.804688 4341.054688 L 178.28125 4358.828125 L 224.257812 4374.84375 L 250.78125 4384.648438 L 260.585938 4387.539062 L 277.929688 4392.226562 L 342.851562 4412.265625 L 377.890625 4422.109375 L 425.15625 4432.304688 L 495.507812 4445.234375 L 515.234375 4449.335938 L 589.726562 4462.65625 L 662.34375 4466.796875 L 682.382812 4467.539062 L 754.296875 4474.101562 L 822.8125 4470.898438 L 848.867188 4469.414062 L 918.867188 4469.0625 L 1000.117188 4456.132812 L 1002.421875 4455.859375 L 1083.4375 4446.5625 L 1139.257812 4430.703125 L 1210.273438 4412.617188 L 1248.007812 4403.4375 L 1268.046875 4394.882812 L 1315.820312 4374.84375 L 1387.734375 4350.039062 L 1412.578125 4339.765625 L 1482.8125 4304.609375 L 1498.789062 4296.523438 L 1577.148438 4255.664062 L 1603.242188 4236.367188 L 1639.492188 4210.273438 L 1659.414062 4197.773438 L 1700.15625 4168.75 L 1741.71875 4134.140625 L 1748.242188 4128.007812 L 1790.078125 4094.101562 L 1823.984375 4060.976562 L 1838.085938 4045.703125 L 1873.398438 4012.8125 L 1906.289062 3974.53125 L 1915 3963.4375 L 1948.632812 3923.515625 L 1956.132812 3913.59375 L 1981.09375 3881.132812 L 1988.554688 3872.109375 L 2020.351562 3830.625 L 2038.007812 3798.867188 L 2070.859375 3748.867188 L 2082.617188 3728.320312 L 2088.515625 3716.5625 L 2110.15625 3677.265625 L 2111.523438 3674.960938 L 2131.875 3634.296875 L 2139.648438 3620.78125 L 2153.125 3592.5 L 2165.625 3564.492188 L 2170.117188 3551.992188 L 2181.953125 3523.164062 L 2189.726562 3506.289062 L 2194.296875 3494.335938 L 2203.476562 3469.726562 L 2208.789062 3455.195312 L 2212.226562 3446.484375 L 2218.398438 3428.554688 L 2223.007812 3416.132812 L 2230.703125 3392.1875 L 2232.34375 3387.421875 L 2233.164062 3385.195312 L 2235.429688 3378.242188 L 2245.234375 3346.289062 L 2253.085938 3322.8125 L 2257.1875 3305.15625 L 2264.570312 3275.976562 L 2268.320312 3263.984375 L 2270.429688 3257.851562 L 2276.5625 3231.679688 L 2278.632812 3222.851562 L 2286.523438 3191.679688 L 2288.085938 3181.71875 L 2290.429688 3167.851562 L 2296.835938 3140.585938 L 2301.054688 3123.90625 L 2304.84375 3099.414062 L 2310.546875 3065.429688 L 2312.226562 3058.28125 L 2313.320312 3053.90625 L 2317.695312 3026.25 L 2324.53125 2982.8125 L 2325.039062 2976.015625 L 2325.664062 2968.046875 L 2334.414062 2910.390625 L 2335.585938 2893.710938 L 2337.03125 2874.414062 L 2342.421875 2836.171875 L 2344.140625 2811.445312 L 2345.976562 2783.164062 L 2348.867188 2760.3125 L 2350.859375 2729.140625 L 2352.695312 2694.179688 L 2353.867188 2683.007812 L 2355.859375 2646.875 L 2357.382812 2607.1875 L 2357.617188 2604.453125 L 2359.335938 2564.570312 L 2360.195312 2524.765625 L 2360.195312 2522.070312 L 2361.367188 2482.304688 L 2361.5625 2443.828125 L 2361.5625 2438.4375 L 2362.03125 2400 L 2361.5625 2361.5625 L 2361.5625 2356.171875 L 2361.367188 2317.695312 L 2360.195312 2277.929688 L 2360.195312 2275.234375 L 2359.335938 2235.429688 L 2357.617188 2195.546875 L 2357.382812 2192.8125 L 2355.859375 2153.125 L 2353.867188 2116.992188 L 2352.695312 2105.820312 L 2350.859375 2070.859375 L 2348.867188 2039.6875 L 2345.976562 2016.835938 L 2344.0625 1988.554688 L 2342.421875 1963.828125 L 2340.078125 1947.421875 L 2337.03125 1925.585938 L 2335.585938 1906.289062 L 2334.414062 1889.609375 L 2325.664062 1831.953125 L 2325.039062 1823.984375 L 2324.53125 1817.1875 L 2317.695312 1773.75 L 2313.320312 1746.09375 L 2312.226562 1741.71875 L 2310.546875 1734.570312 L 2304.84375 1700.585938 L 2301.054688 1676.09375 L 2296.835938 1659.414062 L 2290.429688 1632.148438 L 2288.085938 1618.28125 L 2286.523438 1608.320312 L 2278.632812 1577.148438 L 2276.5625 1568.320312 L 2270.429688 1542.148438 L 2268.320312 1536.015625 L 2264.570312 1524.023438 L 2257.1875 1494.84375 L 2253.085938 1477.1875 L 2245.234375 1453.710938 L 2235.429688 1421.757812 L 2233.242188 1414.765625 L 2232.34375 1412.578125 L 2230.429688 1407.578125 L 2212.773438 1352.929688 L 2203.476562 1330.273438 L 2194.296875 1305.664062 L 2189.726562 1293.710938 L 2181.953125 1276.835938 L 2170.117188 1248.007812 L 2165.625 1235.507812 L 2153.125 1207.5 L 2140.351562 1178.476562 L 2131.875 1165.703125 L 2105.078125 1117.65625 L 2088.28125 1083.4375 L 2083.164062 1071.09375 L 2070.859375 1051.132812 L 2038.007812 1001.132812 L 2020.351562 969.375 L 1988.554688 927.890625 L 1981.09375 918.867188 L 1950.195312 874.960938 L 1906.289062 819.882812 L 1873.398438 787.1875 L 1834.53125 754.296875 L 1790.078125 705.898438 L 1741.71875 660.390625 L 1700.15625 631.25 L 1635.507812 589.726562 L 1603.242188 563.632812 L 1577.148438 544.335938 L 1498.789062 503.476562 L 1482.8125 495.390625 L 1412.578125 458.046875 L 1387.734375 449.960938 L 1315.820312 425.15625 L 1268.046875 405.117188 L 1248.007812 396.5625 L 1210.273438 387.382812 L 1139.257812 369.296875 L 1083.4375 356.992188 L 1002.421875 344.140625 L 1000.117188 343.867188 L 918.867188 330.9375 L 848.867188 330.585938 L 822.8125 329.101562 L 754.296875 328.945312 L 682.382812 332.460938 L 662.34375 333.203125 L 589.726562 337.34375 L 515.234375 350.664062 L 495.507812 354.765625 L 425.15625 367.695312 L 377.890625 377.890625 L 342.851562 387.734375 L 277.929688 407.773438 L 260.585938 412.460938 L 250.78125 415.351562 L 224.257812 425.15625 L 178.28125 441.171875 L 129.804688 458.945312 L 96.015625 474.335938 " transform="matrix(0.1, 0, 0, -0.1, 0, 480)"/>
<path fill-rule="nonzero" fill="rgb(0%, 0%, 0%)" fill-opacity="1" stroke-width="4.8" stroke-linecap="square" stroke-linejoin="miter" stroke="rgb(0%, 0%, 0%)" stroke-opacity="1" stroke-miterlimit="3.25" d="M 1432.695312 4359.492188 L 1432.617188 4356.289062 L 1432.148438 4348.75 L 1431.679688 4344.335938 L 1431.015625 4339.960938 L 1430.078125 4336.054688 L 1428.867188 4333.007812 L 1427.1875 4330.507812 L 1424.53125 4327.578125 L 1421.289062 4324.414062 L 1417.8125 4321.25 L 1411.5625 4315.976562 L 1408.867188 4313.789062 L 1506.132812 4292.695312 Z M 1432.695312 4359.492188 " transform="matrix(0.1, 0, 0, -0.1, 0, 480)"/>
<path fill-rule="nonzero" fill="rgb(0%, 0%, 0%)" fill-opacity="1" stroke-width="4.8" stroke-linecap="square" stroke-linejoin="miter" stroke="rgb(0%, 0%, 0%)" stroke-opacity="1" stroke-miterlimit="3.25" d="M 2301.289062 3225.625 L 2298.828125 3223.554688 L 2292.929688 3218.867188 L 2289.296875 3216.289062 L 2285.585938 3213.867188 L 2282.070312 3211.953125 L 2278.984375 3210.820312 L 2276.015625 3210.429688 L 2272.070312 3210.429688 L 2267.539062 3210.742188 L 2262.851562 3211.25 L 2254.765625 3212.382812 L 2251.328125 3212.929688 L 2300.429688 3126.367188 Z M 2301.289062 3225.625 " transform="matrix(0.1, 0, 0, -0.1, 0, 480)"/>
<path fill-rule="nonzero" fill="rgb(0%, 0%, 0%)" fill-opacity="1" stroke-width="4.8" stroke-linecap="square" stroke-linejoin="miter" stroke="rgb(0%, 0%, 0%)" stroke-opacity="1" stroke-miterlimit="3.25" d="M 2348.359375 1759.726562 L 2345.234375 1759.0625 L 2337.8125 1757.773438 L 2333.359375 1757.226562 L 2328.984375 1756.875 L 2324.960938 1756.875 L 2321.679688 1757.34375 L 2318.90625 1758.398438 L 2315.429688 1760.3125 L 2311.601562 1762.734375 L 2307.734375 1765.429688 L 2301.171875 1770.273438 L 2298.398438 1772.421875 L 2300.234375 1672.890625 Z M 2348.359375 1759.726562 " transform="matrix(0.1, 0, 0, -0.1, 0, 480)"/>
<path fill-rule="nonzero" fill="rgb(0%, 0%, 0%)" fill-opacity="1" stroke-width="4.8" stroke-linecap="square" stroke-linejoin="miter" stroke="rgb(0%, 0%, 0%)" stroke-opacity="1" stroke-miterlimit="3.25" d="M 1266.367188 375.625 L 1264.296875 378.085938 L 1259.609375 383.984375 L 1257.03125 387.617188 L 1254.609375 391.289062 L 1252.695312 394.84375 L 1251.5625 397.929688 L 1251.171875 400.898438 L 1251.171875 404.84375 L 1251.445312 409.375 L 1251.953125 414.0625 L 1253.085938 422.109375 L 1253.671875 425.585938 L 1167.109375 376.40625 Z M 1266.367188 375.625 " transform="matrix(0.1, 0, 0, -0.1, 0, 480)"/>
<path fill="none" stroke-width="4.8" stroke-linecap="butt" stroke-linejoin="miter" stroke="rgb(0%, 0%, 0%)" stroke-opacity="1" stroke-miterlimit="3.25" d="M 96.015625 3215.117188 L 98.789062 3220.078125 L 100.585938 3222.851562 L 114.296875 3241.132812 L 167.539062 3315.898438 L 227.734375 3387.421875 L 243.320312 3404.6875 L 260.585938 3420.859375 L 309.921875 3469.726562 L 326.289062 3486.289062 L 406.367188 3551.992188 L 416.640625 3560.507812 L 425.15625 3566.484375 L 468.828125 3595.703125 L 513.90625 3627.8125 L 589.726562 3673.554688 L 617.734375 3688.554688 L 683.164062 3716.5625 L 731.484375 3739.375 L 754.296875 3748.4375 L 798.4375 3760.703125 L 854.84375 3780.585938 L 918.867188 3799.414062 L 990.390625 3809.609375 L 1014.414062 3812.109375 L 1083.4375 3824.648438 L 1139.960938 3824.609375 L 1190.625 3823.75 L 1248.007812 3826.953125 L 1312.265625 3816.875 L 1343.59375 3812.1875 L 1412.578125 3799.765625 L 1415.820312 3798.867188 L 1479.492188 3783.476562 L 1494.84375 3780.078125 L 1523.59375 3770.117188 L 1542.226562 3763.945312 L 1577.148438 3752.695312 L 1602.03125 3741.445312 L 1618.28125 3734.726562 L 1656.992188 3716.5625 L 1658.710938 3715.820312 L 1659.414062 3715.507812 L 1661.640625 3714.375 L 1713.085938 3687.929688 L 1741.71875 3672.773438 L 1797.34375 3634.296875 L 1813.867188 3624.140625 L 1823.984375 3617.578125 L 1860.546875 3588.554688 L 1903.046875 3551.992188 L 1904.921875 3550.625 L 1906.289062 3549.492188 L 1947.070312 3510.507812 L 1985.46875 3469.726562 L 1987.070312 3468.242188 L 1988.554688 3466.71875 L 2025 3423.867188 L 2052.03125 3387.421875 L 2060.742188 3377.304688 L 2070.859375 3363.632812 L 2094.257812 3328.554688 L 2107.382812 3305.15625 L 2125.351562 3277.34375 L 2131.914062 3263.984375 L 2153.125 3224.648438 L 2153.75 3223.476562 L 2154.023438 3222.851562 L 2154.6875 3221.328125 L 2181.015625 3168.476562 L 2192.304688 3140.585938 L 2194.296875 3136.132812 L 2205.429688 3110.546875 L 2216.640625 3077.070312 L 2224.101562 3058.28125 L 2227.5 3050.390625 L 2235.429688 3025 L 2237.890625 3017.148438 L 2247.578125 2988.125 L 2250.3125 2976.015625 L 2255.078125 2956.328125 L 2261.5625 2934.84375 L 2265.195312 2923.476562 L 2271.640625 2893.710938 L 2276.5625 2871.953125 L 2280.15625 2856.171875 L 2281.367188 2847.773438 L 2288.984375 2811.445312 L 2293.671875 2787.421875 L 2298.59375 2748.28125 L 2302.03125 2729.140625 L 2304.375 2715.820312 L 2310.859375 2653.710938 L 2311.992188 2646.875 L 2312.851562 2641.992188 L 2317.695312 2576.484375 L 2318.632812 2564.570312 L 2318.671875 2563.59375 L 2322.578125 2487.148438 L 2322.734375 2482.304688 L 2322.773438 2477.226562 L 2323.984375 2406.289062 L 2324.0625 2400 L 2323.984375 2393.710938 L 2322.773438 2322.773438 L 2322.734375 2317.695312 L 2322.578125 2312.851562 L 2318.671875 2236.40625 L 2318.632812 2235.429688 L 2317.695312 2223.515625 L 2312.578125 2158.28125 L 2311.992188 2153.125 L 2310.859375 2146.289062 L 2304.375 2084.179688 L 2302.03125 2070.859375 L 2298.59375 2051.71875 L 2293.671875 2012.578125 L 2288.75 1988.554688 L 2281.367188 1952.226562 L 2280.15625 1943.828125 L 2276.5625 1928.046875 L 2271.640625 1906.289062 L 2265.195312 1876.523438 L 2261.5625 1865.15625 L 2255.078125 1843.671875 L 2250.3125 1823.984375 L 2247.578125 1811.875 L 2237.890625 1782.851562 L 2235.429688 1775 L 2227.226562 1749.921875 L 2224.101562 1741.71875 L 2217.695312 1723.984375 L 2216.289062 1719.726562 L 2208.945312 1700.585938 L 2205.039062 1689.804688 L 2194.296875 1663.867188 L 2192.304688 1659.414062 L 2190.703125 1655.859375 L 2180.546875 1631.992188 L 2173.984375 1618.28125 L 2167.5 1603.945312 L 2154.804688 1578.789062 L 2154.023438 1577.148438 L 2153.75 1576.523438 L 2153.125 1575.351562 L 2131.914062 1536.015625 L 2125.351562 1522.65625 L 2111.992188 1501.210938 L 2107.929688 1494.84375 L 2100.976562 1483.828125 L 2093.710938 1471.992188 L 2081.484375 1453.710938 L 2070.859375 1437.539062 L 2060.46875 1422.96875 L 2052.421875 1412.578125 L 2029.726562 1382.1875 L 2025 1376.132812 L 2020.625 1371.445312 L 1988.554688 1333.4375 L 1987.070312 1331.757812 L 1985.46875 1330.273438 L 1947.070312 1289.492188 L 1906.289062 1250.507812 L 1904.921875 1249.375 L 1903.046875 1248.007812 L 1823.984375 1182.421875 L 1813.867188 1175.859375 L 1797.34375 1165.703125 L 1764.765625 1142.65625 L 1741.71875 1127.226562 L 1713.085938 1112.070312 L 1661.640625 1085.625 L 1659.414062 1084.492188 L 1658.710938 1084.179688 L 1656.835938 1083.4375 L 1602.578125 1058.007812 L 1577.148438 1047.304688 L 1523.242188 1029.53125 L 1479.648438 1016.328125 L 1415.820312 1001.132812 L 1412.578125 1000.234375 L 1411.484375 1000.078125 L 1343.515625 987.929688 L 1330.273438 985.234375 L 1312.773438 983.632812 L 1269.53125 979.648438 L 1248.007812 977.773438 L 1223.4375 976.601562 L 1190.703125 976.171875 L 1165.703125 975 L 1140.859375 976.289062 L 1106.171875 978.398438 L 1083.4375 978.984375 L 1014.414062 987.890625 L 990.390625 990.390625 L 918.867188 1000.585938 L 854.84375 1019.414062 L 798.4375 1039.296875 L 754.296875 1052.929688 L 731.484375 1060.625 L 681.796875 1083.4375 L 671.992188 1087.578125 L 617.734375 1111.445312 L 589.726562 1127.929688 L 525.625 1165.703125 L 513.90625 1172.1875 L 468.828125 1204.296875 L 425.15625 1233.515625 L 416.640625 1239.492188 L 406.367188 1248.007812 L 326.289062 1313.710938 L 309.921875 1330.273438 L 260.585938 1379.140625 L 243.320312 1395.3125 L 228.789062 1412.578125 L 178.28125 1472.265625 L 167.539062 1484.101562 L 114.296875 1558.867188 L 100.78125 1577.148438 L 98.789062 1579.921875 L 96.015625 1584.882812 " transform="matrix(0.1, 0, 0, -0.1, 0, 480)"/>
<path fill-rule="nonzero" fill="rgb(0%, 0%, 0%)" fill-opacity="1" stroke-width="4.8" stroke-linecap="square" stroke-linejoin="miter" stroke="rgb(0%, 0%, 0%)" stroke-opacity="1" stroke-miterlimit="3.25" d="M 1126.601562 3845.507812 L 1128.164062 3842.734375 L 1131.640625 3836.015625 L 1133.476562 3831.953125 L 1135.117188 3827.851562 L 1136.328125 3824.023438 L 1136.835938 3820.78125 L 1136.679688 3817.8125 L 1135.898438 3813.90625 L 1134.726562 3809.53125 L 1133.359375 3805.039062 L 1130.703125 3797.34375 L 1129.453125 3794.0625 L 1223.867188 3825.585938 Z M 1126.601562 3845.507812 " transform="matrix(0.1, 0, 0, -0.1, 0, 480)"/>
<path fill-rule="nonzero" fill="rgb(0%, 0%, 0%)" fill-opacity="1" stroke-width="4.8" stroke-linecap="square" stroke-linejoin="miter" stroke="rgb(0%, 0%, 0%)" stroke-opacity="1" stroke-miterlimit="3.25" d="M 2211.367188 3158.671875 L 2209.21875 3156.289062 L 2203.945312 3150.898438 L 2200.703125 3147.8125 L 2197.34375 3144.960938 L 2194.0625 3142.617188 L 2191.171875 3141.09375 L 2188.28125 3140.3125 L 2184.335938 3139.804688 L 2179.804688 3139.53125 L 2175.117188 3139.414062 L 2166.953125 3139.492188 L 2163.476562 3139.609375 L 2223.359375 3060.117188 Z M 2211.367188 3158.671875 " transform="matrix(0.1, 0, 0, -0.1, 0, 480)"/>
<path fill-rule="nonzero" fill="rgb(0%, 0%, 0%)" fill-opacity="1" stroke-width="4.8" stroke-linecap="square" stroke-linejoin="miter" stroke="rgb(0%, 0%, 0%)" stroke-opacity="1" stroke-miterlimit="3.25" d="M 2280.351562 1822.851562 L 2277.1875 1822.5 L 2269.648438 1821.953125 L 2265.195312 1821.835938 L 2260.78125 1821.914062 L 2256.796875 1822.304688 L 2253.59375 1823.125 L 2250.898438 1824.453125 L 2247.617188 1826.679688 L 2244.0625 1829.492188 L 2240.46875 1832.539062 L 2234.414062 1837.96875 L 2231.914062 1840.390625 L 2223.90625 1741.171875 Z M 2280.351562 1822.851562 " transform="matrix(0.1, 0, 0, -0.1, 0, 480)"/>
<path fill-rule="nonzero" fill="rgb(0%, 0%, 0%)" fill-opacity="1" stroke-width="4.8" stroke-linecap="square" stroke-linejoin="miter" stroke="rgb(0%, 0%, 0%)" stroke-opacity="1" stroke-miterlimit="3.25" d="M 976.914062 957.1875 L 976.40625 960.3125 L 975.390625 967.8125 L 975 972.265625 L 974.804688 976.679688 L 974.960938 980.664062 L 975.546875 983.90625 L 976.71875 986.679688 L 978.75 990.078125 L 981.328125 993.828125 L 984.140625 997.578125 L 989.21875 1003.945312 L 991.484375 1006.601562 L 891.953125 1008.515625 Z M 976.914062 957.1875 " transform="matrix(0.1, 0, 0, -0.1, 0, 480)"/>
<path fill="none" stroke-width="4.8" stroke-linecap="butt" stroke-linejoin="miter" stroke="rgb(0%, 0%, 0%)" stroke-opacity="1" stroke-miterlimit="3.25" d="M 536.210938 1659.414062 L 522.539062 1674.53125 L 507.421875 1697.070312 L 474.296875 1741.71875 L 455 1771.601562 L 425.15625 1822.304688 L 424.101562 1823.984375 L 423.046875 1826.09375 L 395.625 1876.757812 L 380.742188 1906.289062 L 350.976562 1980.46875 L 346.09375 1991.796875 L 342.851562 2002.460938 L 319.257812 2070.859375 L 306.367188 2116.640625 L 298.203125 2153.125 L 289.414062 2206.601562 L 283.867188 2235.429688 L 281.367188 2256.25 L 275.507812 2317.695312 L 273.242188 2387.34375 L 272.734375 2400 L 273.242188 2412.65625 L 281.367188 2543.75 L 282.1875 2564.570312 L 289.414062 2593.398438 L 306.367188 2683.359375 L 319.257812 2729.140625 L 342.851562 2797.539062 L 346.09375 2808.203125 L 350.976562 2819.53125 L 378.125 2893.710938 L 394.375 2924.492188 L 425.15625 2975.390625 L 453.632812 3029.804688 L 471.796875 3058.28125 L 522.539062 3125.46875 L 589.726562 3200.390625 L 599.921875 3212.65625 L 610.703125 3222.851562 L 685.3125 3291.796875 L 754.296875 3344.375 L 779.21875 3362.460938 L 824.140625 3387.421875 L 883.125 3423.164062 L 918.867188 3440.9375 L 999.804688 3471.015625 L 1003.476562 3472.070312 L 1083.4375 3498.515625 L 1125.3125 3510.117188 L 1219.453125 3523.4375 L 1248.007812 3528.4375 L 1269.492188 3530.507812 L 1390.585938 3530 L 1412.578125 3529.960938 L 1438.085938 3526.484375 L 1465.742188 3522.890625 L 1494.84375 3520.117188 L 1535.625 3510.507812 L 1536.5625 3510.273438 L 1577.148438 3500.820312 L 1601.328125 3493.90625 L 1652.226562 3476.914062 L 1659.414062 3474.648438 L 1662.8125 3473.085938 L 1669.960938 3469.726562 L 1721.054688 3449.0625 L 1741.71875 3440.625 L 1775.703125 3421.40625 L 1810.9375 3400.507812 L 1823.984375 3393.046875 L 1831.445312 3387.421875 L 1876.25 3357.382812 L 1906.289062 3335.429688 L 1938.476562 3305.15625 L 1965.585938 3282.148438 L 1982.617188 3263.984375 L 1988.554688 3258.242188 L 2006.132812 3240.429688 L 2020.46875 3222.851562 L 2029.726562 3212.617188 L 2044.023438 3196.015625 L 2070.859375 3160.898438 L 2079.140625 3148.867188 L 2084.101562 3140.585938 L 2108.867188 3102.578125 L 2111.445312 3098.867188 L 2111.992188 3097.890625 L 2134.960938 3058.28125 L 2142.03125 3047.148438 L 2153.125 3024.257812 L 2156.5625 3017.148438 L 2169.492188 2992.34375 L 2175.898438 2976.015625 L 2192.148438 2936.992188 L 2193.515625 2934.101562 L 2194.296875 2932.070312 L 2208.632812 2893.710938 L 2216.210938 2874.492188 L 2222.34375 2852.578125 L 2233.867188 2812.96875 L 2234.414062 2811.445312 L 2234.648438 2810.664062 L 2235.429688 2807.773438 L 2245.15625 2770.273438 L 2247.890625 2757.8125 L 2251.132812 2744.84375 L 2254.53125 2729.140625 L 2258.476562 2706.09375 L 2265 2676.445312 L 2269.882812 2646.875 L 2274.492188 2607.8125 L 2275.078125 2604.21875 L 2280.234375 2564.570312 L 2282.617188 2529.492188 L 2283.242188 2516.757812 L 2286.289062 2482.304688 L 2286.71875 2451.289062 L 2287.070312 2430.664062 L 2287.460938 2400 L 2287.070312 2369.335938 L 2286.71875 2348.710938 L 2286.289062 2317.695312 L 2283.242188 2283.242188 L 2282.617188 2270.507812 L 2280.234375 2235.429688 L 2275.078125 2195.78125 L 2274.492188 2192.1875 L 2269.296875 2153.125 L 2265 2123.554688 L 2258.476562 2093.90625 L 2254.53125 2070.859375 L 2251.132812 2055.15625 L 2247.890625 2042.1875 L 2245.15625 2029.726562 L 2235.429688 1992.226562 L 2234.648438 1989.335938 L 2234.414062 1988.554688 L 2233.867188 1987.03125 L 2222.34375 1947.421875 L 2216.210938 1925.507812 L 2208.632812 1906.289062 L 2194.296875 1867.929688 L 2193.515625 1865.9375 L 2193.164062 1865.15625 L 2192.148438 1863.007812 L 2175.898438 1823.984375 L 2169.492188 1807.65625 L 2156.5625 1782.851562 L 2153.125 1775.742188 L 2142.03125 1752.851562 L 2134.960938 1741.71875 L 2111.992188 1702.109375 L 2111.445312 1701.132812 L 2111.015625 1700.585938 L 2108.867188 1697.421875 L 2083.945312 1659.414062 L 2079.140625 1651.132812 L 2070.859375 1639.101562 L 2044.023438 1603.984375 L 2019.84375 1577.148438 L 2006.132812 1559.570312 L 1988.554688 1539.960938 L 1965.585938 1517.851562 L 1938.476562 1494.84375 L 1922.304688 1478.828125 L 1906.289062 1464.570312 L 1876.25 1442.617188 L 1831.445312 1412.578125 L 1827.265625 1409.296875 L 1823.984375 1406.953125 L 1810.9375 1399.492188 L 1775.703125 1378.59375 L 1741.71875 1359.375 L 1721.054688 1350.9375 L 1669.960938 1330.273438 L 1662.890625 1326.835938 L 1652.148438 1323.007812 L 1577.148438 1297.773438 L 1536.25 1288.90625 L 1437.265625 1272.695312 L 1412.578125 1270.039062 L 1390.625 1269.960938 L 1350.507812 1268.203125 L 1330.273438 1267.382812 L 1309.21875 1269.0625 L 1270.46875 1270.46875 L 1248.007812 1272.460938 L 1220 1276.015625 L 1196.40625 1278.671875 L 1165.703125 1282.734375 L 1127.1875 1291.757812 L 1120.117188 1293.59375 L 1083.4375 1301.484375 L 1003.476562 1327.929688 L 999.804688 1328.984375 L 996.875 1330.273438 L 918.867188 1361.640625 L 884.882812 1378.632812 L 852.421875 1396.71875 L 836.5625 1404.960938 L 824.023438 1412.578125 L 780.664062 1438.945312 L 754.296875 1457.03125 L 704.140625 1494.84375 L 686.09375 1508.945312 L 671.992188 1521.289062 L 611.40625 1577.148438 L 600.46875 1587.890625 L 589.726562 1599.726562 L 536.210938 1659.414062 " transform="matrix(0.1, 0, 0, -0.1, 0, 480)"/>
<path fill-rule="nonzero" fill="rgb(0%, 0%, 0%)" fill-opacity="1" stroke-width="4.8" stroke-linecap="square" stroke-linejoin="miter" stroke="rgb(0%, 0%, 0%)" stroke-opacity="1" stroke-miterlimit="3.25" d="M 327.03125 2861.914062 L 330.195312 2861.640625 L 337.695312 2860.703125 L 342.109375 2859.960938 L 346.40625 2859.023438 L 350.234375 2857.851562 L 353.203125 2856.445312 L 355.585938 2854.609375 L 358.359375 2851.796875 L 361.328125 2848.359375 L 364.257812 2844.648438 L 369.101562 2838.125 L 371.132812 2835.273438 L 398.320312 2931.015625 Z M 327.03125 2861.914062 " transform="matrix(0.1, 0, 0, -0.1, 0, 480)"/>
<path fill-rule="nonzero" fill="rgb(0%, 0%, 0%)" fill-opacity="1" stroke-width="4.8" stroke-linecap="square" stroke-linejoin="miter" stroke="rgb(0%, 0%, 0%)" stroke-opacity="1" stroke-miterlimit="3.25" d="M 1427.890625 3561.835938 L 1428.59375 3558.710938 L 1430 3551.289062 L 1430.625 3546.875 L 1431.054688 3542.5 L 1431.132812 3538.476562 L 1430.703125 3535.234375 L 1429.6875 3532.421875 L 1427.851562 3528.90625 L 1425.46875 3525 L 1422.890625 3521.09375 L 1418.164062 3514.453125 L 1416.054688 3511.679688 L 1515.507812 3515.234375 Z M 1427.890625 3561.835938 " transform="matrix(0.1, 0, 0, -0.1, 0, 480)"/>
<path fill-rule="nonzero" fill="rgb(0%, 0%, 0%)" fill-opacity="1" stroke-width="4.8" stroke-linecap="square" stroke-linejoin="miter" stroke="rgb(0%, 0%, 0%)" stroke-opacity="1" stroke-miterlimit="3.25" d="M 2303.320312 2623.164062 L 2300.507812 2621.601562 L 2293.789062 2618.203125 L 2289.726562 2616.367188 L 2285.625 2614.726562 L 2281.796875 2613.554688 L 2278.515625 2613.085938 L 2275.546875 2613.242188 L 2271.679688 2614.0625 L 2267.265625 2615.273438 L 2262.773438 2616.679688 L 2255.117188 2619.375 L 2251.835938 2620.625 L 2282.773438 2526.015625 Z M 2303.320312 2623.164062 " transform="matrix(0.1, 0, 0, -0.1, 0, 480)"/>
<path fill-rule="nonzero" fill="rgb(0%, 0%, 0%)" fill-opacity="1" stroke-width="4.8" stroke-linecap="square" stroke-linejoin="miter" stroke="rgb(0%, 0%, 0%)" stroke-opacity="1" stroke-miterlimit="3.25" d="M 1528.945312 1257.03125 L 1527.265625 1259.726562 L 1523.4375 1266.25 L 1521.40625 1270.234375 L 1519.53125 1274.21875 L 1518.164062 1278.007812 L 1517.460938 1281.210938 L 1517.5 1284.21875 L 1518.046875 1288.125 L 1519.023438 1292.578125 L 1520.15625 1297.109375 L 1522.421875 1304.960938 L 1523.515625 1308.28125 L 1430.820312 1271.992188 Z M 1528.945312 1257.03125 " transform="matrix(0.1, 0, 0, -0.1, 0, 480)"/>
<path fill="none" stroke-width="4.8" stroke-linecap="butt" stroke-linejoin="miter" stroke="rgb(0%, 0%, 0%)" stroke-opacity="1" stroke-miterlimit="3.25" d="M 845.625 1668.476562 L 836.5625 1677.03125 L 803.125 1708.28125 L 771.25 1741.71875 L 763.125 1750.546875 L 754.296875 1761.484375 L 725.585938 1795.3125 L 703.710938 1823.984375 L 690.625 1842.65625 L 676.40625 1865.15625 L 671.992188 1872.265625 L 658.476562 1892.773438 L 650.898438 1906.289062 L 630.859375 1943.28125 L 629.335938 1945.898438 L 626.5625 1951.71875 L 607.539062 1988.554688 L 589.726562 2033.867188 L 578.164062 2059.296875 L 574.296875 2070.859375 L 567.929688 2092.65625 L 558.320312 2121.757812 L 548.476562 2153.125 L 541.640625 2187.34375 L 538.28125 2204.570312 L 532.1875 2235.429688 L 528.828125 2256.796875 L 523.59375 2301.523438 L 521.835938 2317.695312 L 520.9375 2331.210938 L 518.710938 2388.710938 L 517.96875 2400 L 518.710938 2411.289062 L 520.9375 2468.789062 L 521.835938 2482.304688 L 523.59375 2498.476562 L 528.828125 2543.203125 L 531.171875 2564.570312 L 538.28125 2595.429688 L 541.640625 2612.65625 L 548.476562 2646.875 L 558.320312 2678.242188 L 567.929688 2707.34375 L 574.296875 2729.140625 L 578.671875 2740.195312 L 589.726562 2766.132812 L 607.539062 2811.445312 L 627.265625 2856.132812 L 646.25 2893.710938 L 689.570312 2958.4375 L 754.296875 3038.476562 L 762.578125 3050 L 770.546875 3058.28125 L 845.039062 3132.109375 L 918.867188 3190.820312 L 937.070312 3204.648438 L 970 3222.851562 L 1001.132812 3241.953125 L 1040.117188 3261.835938 L 1042.890625 3263.359375 L 1083.4375 3283.203125 L 1142.734375 3305.15625 L 1158.90625 3311.953125 L 1165.703125 3313.789062 L 1177.148438 3316.601562 L 1222.929688 3330.195312 L 1248.007812 3336.835938 L 1285.234375 3342.382812 L 1291.71875 3343.710938 L 1311.484375 3346.289062 L 1330.273438 3348.984375 L 1365.3125 3352.421875 L 1378.085938 3352.929688 L 1412.578125 3356.015625 L 1445.703125 3354.296875 L 1460.976562 3353.554688 L 1494.84375 3353.320312 L 1535.429688 3346.835938 L 1536.40625 3346.71875 L 1577.148438 3342.070312 L 1606.132812 3334.140625 L 1618.28125 3331.523438 L 1638.75 3325.820312 L 1659.414062 3320.195312 L 1670.78125 3316.484375 L 1700.585938 3305.976562 L 1702.539062 3305.15625 L 1731.015625 3294.453125 L 1741.71875 3290.039062 L 1770.625 3276.210938 L 1787.226562 3268.359375 L 1823.984375 3249.960938 L 1840.234375 3239.101562 L 1862.617188 3222.851562 L 1889.648438 3206.25 L 1906.289062 3194.921875 L 1935.78125 3170.078125 L 1966.796875 3140.585938 L 1978.828125 3130.820312 L 1988.554688 3120.625 L 2007.96875 3099.414062 L 2018.554688 3088.242188 L 2029.726562 3075.429688 L 2043.28125 3058.28125 L 2055.585938 3043.007812 L 2070.859375 3022.109375 L 2074.21875 3017.148438 L 2081.210938 3006.796875 L 2089.570312 2994.726562 L 2101.40625 2976.015625 L 2111.992188 2958.867188 L 2121.132812 2944.023438 L 2138.75 2908.085938 L 2146.601562 2893.710938 L 2149.023438 2889.570312 L 2153.125 2880.078125 L 2165.3125 2852.578125 L 2173.710938 2832.03125 L 2173.710938 2831.992188 L 2181.757812 2811.445312 L 2194.296875 2775.46875 L 2195.585938 2771.601562 L 2195.976562 2770.273438 L 2196.679688 2767.890625 L 2205.46875 2740.3125 L 2208.59375 2729.140625 L 2214.882812 2708.59375 L 2225.78125 2656.484375 L 2228.28125 2646.875 L 2229.648438 2641.09375 L 2235.429688 2606.71875 L 2235.625 2605.703125 L 2241.171875 2570.3125 L 2241.914062 2564.570312 L 2242.382812 2557.617188 L 2248.945312 2495.820312 L 2250.15625 2482.304688 L 2250.351562 2467.382812 L 2252.1875 2416.757812 L 2252.421875 2400 L 2252.1875 2383.242188 L 2250.351562 2332.617188 L 2250.15625 2317.695312 L 2248.945312 2304.179688 L 2242.382812 2242.382812 L 2241.914062 2235.429688 L 2241.171875 2229.6875 L 2235.625 2194.296875 L 2235.429688 2193.28125 L 2229.648438 2158.90625 L 2228.28125 2153.125 L 2225.78125 2143.515625 L 2219.296875 2111.992188 L 2214.882812 2091.40625 L 2208.59375 2070.859375 L 2196.5625 2031.992188 L 2195.976562 2029.726562 L 2195.664062 2028.359375 L 2194.296875 2024.53125 L 2185.234375 1997.617188 L 2181.679688 1988.554688 L 2173.710938 1968.007812 L 2173.710938 1967.96875 L 2165.3125 1947.421875 L 2153.125 1919.921875 L 2148.828125 1910.585938 L 2146.601562 1906.289062 L 2138.75 1891.914062 L 2125.429688 1865.15625 L 2121.132812 1855.976562 L 2111.992188 1841.132812 L 2101.40625 1823.984375 L 2089.570312 1805.273438 L 2081.210938 1793.203125 L 2074.21875 1782.851562 L 2070.859375 1777.890625 L 2055.585938 1756.992188 L 2043.28125 1741.71875 L 2029.726562 1724.570312 L 2018.554688 1711.757812 L 2007.96875 1700.585938 L 1988.554688 1679.375 L 1978.828125 1669.179688 L 1967.421875 1659.414062 L 1947.421875 1640.390625 L 1935.78125 1629.921875 L 1920.234375 1618.28125 L 1906.289062 1606.679688 L 1889.648438 1593.75 L 1865.15625 1577.617188 L 1864.375 1577.148438 L 1840.234375 1560.898438 L 1823.984375 1551.445312 L 1794.648438 1536.015625 L 1787.226562 1531.640625 L 1770.625 1523.789062 L 1741.71875 1509.960938 L 1731.015625 1505.546875 L 1702.539062 1494.84375 L 1700.585938 1494.023438 L 1670.78125 1483.515625 L 1659.414062 1479.023438 L 1638.75 1474.179688 L 1606.132812 1465.859375 L 1577.148438 1457.929688 L 1536.40625 1453.28125 L 1535.429688 1453.164062 L 1494.84375 1446.679688 L 1460.976562 1446.445312 L 1445.703125 1445.703125 L 1412.578125 1445.507812 L 1378.085938 1447.070312 L 1371.445312 1447.1875 L 1365.3125 1447.578125 L 1330.273438 1451.015625 L 1311.484375 1453.710938 L 1291.71875 1456.289062 L 1285.234375 1457.617188 L 1248.007812 1463.164062 L 1176.757812 1483.828125 L 1165.703125 1486.210938 L 1158.90625 1488.046875 L 1142.734375 1494.84375 L 1098.945312 1510.390625 L 1083.4375 1516.796875 L 1042.890625 1536.640625 L 1040.117188 1538.164062 L 1001.132812 1558.046875 L 988.984375 1564.960938 L 970 1577.148438 L 938.320312 1596.601562 L 918.867188 1610.390625 L 890.625 1631.210938 L 856.601562 1659.414062 L 845.625 1668.476562 " transform="matrix(0.1, 0, 0, -0.1, 0, 480)"/>
<path fill-rule="nonzero" fill="rgb(0%, 0%, 0%)" fill-opacity="1" stroke-width="4.8" stroke-linecap="square" stroke-linejoin="miter" stroke="rgb(0%, 0%, 0%)" stroke-opacity="1" stroke-miterlimit="3.25" d="M 519.960938 2633.085938 L 523.085938 2633.632812 L 530.585938 2634.648438 L 535 2635.039062 L 539.414062 2635.234375 L 543.4375 2635.117188 L 546.679688 2634.492188 L 549.453125 2633.359375 L 552.851562 2631.328125 L 556.601562 2628.75 L 560.390625 2625.976562 L 566.757812 2620.898438 L 569.414062 2618.632812 L 571.09375 2718.164062 Z M 519.960938 2633.085938 " transform="matrix(0.1, 0, 0, -0.1, 0, 480)"/>
<path fill-rule="nonzero" fill="rgb(0%, 0%, 0%)" fill-opacity="1" stroke-width="4.8" stroke-linecap="square" stroke-linejoin="miter" stroke="rgb(0%, 0%, 0%)" stroke-opacity="1" stroke-miterlimit="3.25" d="M 1343.085938 3384.921875 L 1344.335938 3381.992188 L 1347.070312 3374.921875 L 1348.476562 3370.703125 L 1349.6875 3366.484375 L 1350.46875 3362.539062 L 1350.625 3359.21875 L 1350.117188 3356.289062 L 1348.945312 3352.5 L 1347.304688 3348.28125 L 1345.429688 3343.945312 L 1341.992188 3336.601562 L 1340.429688 3333.476562 L 1437.65625 3354.726562 Z M 1343.085938 3384.921875 " transform="matrix(0.1, 0, 0, -0.1, 0, 480)"/>
<path fill-rule="nonzero" fill="rgb(0%, 0%, 0%)" fill-opacity="1" stroke-width="4.8" stroke-linecap="square" stroke-linejoin="miter" stroke="rgb(0%, 0%, 0%)" stroke-opacity="1" stroke-miterlimit="3.25" d="M 2228.085938 2749.101562 L 2225.664062 2747.03125 L 2219.765625 2742.34375 L 2216.132812 2739.726562 L 2212.460938 2737.304688 L 2208.90625 2735.390625 L 2205.820312 2734.257812 L 2202.851562 2733.828125 L 2198.90625 2733.828125 L 2194.375 2734.140625 L 2189.6875 2734.609375 L 2181.640625 2735.742188 L 2178.164062 2736.289062 L 2227.5 2649.84375 Z M 2228.085938 2749.101562 " transform="matrix(0.1, 0, 0, -0.1, 0, 480)"/>
<path fill-rule="nonzero" fill="rgb(0%, 0%, 0%)" fill-opacity="1" stroke-width="4.8" stroke-linecap="square" stroke-linejoin="miter" stroke="rgb(0%, 0%, 0%)" stroke-opacity="1" stroke-miterlimit="3.25" d="M 1749.023438 1474.023438 L 1747.03125 1476.484375 L 1742.460938 1482.5 L 1739.921875 1486.171875 L 1737.578125 1489.921875 L 1735.742188 1493.476562 L 1734.648438 1496.601562 L 1734.335938 1499.570312 L 1734.414062 1503.515625 L 1734.804688 1508.046875 L 1735.390625 1512.734375 L 1736.679688 1520.742188 L 1737.304688 1524.21875 L 1649.804688 1476.757812 Z M 1749.023438 1474.023438 " transform="matrix(0.1, 0, 0, -0.1, 0, 480)"/>
<path fill="none" stroke-width="4.8" stroke-linecap="butt" stroke-linejoin="miter" stroke="rgb(0%, 0%, 0%)" stroke-opacity="1" stroke-miterlimit="3.25" d="M 1877.070312 1688.632812 L 1865.15625 1680.429688 L 1829.21875 1659.414062 L 1826.015625 1657.421875 L 1823.984375 1656.210938 L 1817.421875 1652.851562 L 1799.140625 1643.164062 L 1782.851562 1634.765625 L 1771.25 1629.882812 L 1743.28125 1618.28125 L 1741.71875 1617.578125 L 1740.625 1617.1875 L 1712.226562 1606.601562 L 1700.585938 1602.304688 L 1680.9375 1596.796875 L 1678.320312 1596.054688 L 1659.414062 1590.351562 L 1648.671875 1587.890625 L 1618.28125 1581.328125 L 1591.71875 1577.148438 L 1579.335938 1574.960938 L 1577.148438 1574.570312 L 1574.21875 1574.21875 L 1536.015625 1569.960938 L 1503.59375 1568.398438 L 1494.84375 1567.382812 L 1485.46875 1567.734375 L 1419.21875 1570.507812 L 1412.578125 1570.78125 L 1406.875 1571.445312 L 1372.890625 1575.703125 L 1371.445312 1575.820312 L 1363.984375 1577.148438 L 1334.960938 1581.835938 L 1330.273438 1582.851562 L 1322.578125 1584.84375 L 1268.359375 1597.5 L 1248.007812 1604.257812 L 1209.257812 1618.28125 L 1207.460938 1618.867188 L 1205.3125 1619.84375 L 1165.703125 1636.054688 L 1149.882812 1643.59375 L 1130.429688 1653.554688 L 1124.570312 1656.40625 L 1119.0625 1659.414062 L 1095.976562 1671.992188 L 1083.4375 1679.375 L 1050.585938 1700.585938 L 1045.546875 1703.828125 L 1042.304688 1706.132812 L 1022.539062 1720.351562 L 1021.5625 1721.015625 L 1001.132812 1736.484375 L 998.085938 1738.671875 L 994.609375 1741.71875 L 960 1771.09375 L 953.75 1776.640625 L 947.1875 1782.851562 L 918.867188 1810.898438 L 912.34375 1817.5 L 906.328125 1823.984375 L 877.695312 1856.875 L 873.75 1861.171875 L 849.882812 1892.96875 L 839.492188 1906.289062 L 838.28125 1908.007812 L 836.5625 1910.78125 L 805.3125 1957.34375 L 786.523438 1988.554688 L 775.742188 2010 L 754.296875 2057.8125 L 749.960938 2066.523438 L 747.96875 2070.859375 L 744.648438 2080.507812 L 727.03125 2125.898438 L 717.1875 2153.125 L 708.632812 2189.765625 L 706.015625 2201.40625 L 696.953125 2235.429688 L 694.140625 2257.539062 L 688.28125 2301.40625 L 686.210938 2317.695312 L 685.15625 2330.898438 L 682.578125 2389.414062 L 681.796875 2400 L 682.578125 2410.585938 L 685.15625 2469.101562 L 685.507812 2482.304688 L 688.28125 2498.59375 L 694.140625 2542.460938 L 696.953125 2564.570312 L 706.015625 2598.59375 L 708.632812 2610.234375 L 713.125 2625.742188 L 718.75 2646.875 L 727.03125 2674.101562 L 744.648438 2719.492188 L 748.203125 2729.140625 L 749.960938 2733.476562 L 754.296875 2742.1875 L 775.742188 2790 L 786.523438 2811.445312 L 805.3125 2842.65625 L 836.5625 2889.21875 L 839.492188 2893.710938 L 849.882812 2907.03125 L 873.75 2938.828125 L 906.015625 2976.015625 L 918.867188 2989.257812 L 953.554688 3023.59375 L 994.492188 3058.28125 L 1001.132812 3063.632812 L 1020.15625 3077.304688 L 1045.429688 3096.289062 L 1050.585938 3099.414062 L 1083.4375 3120.625 L 1095.546875 3128.476562 L 1119.0625 3140.585938 L 1124.570312 3143.59375 L 1149.335938 3156.953125 L 1165.703125 3164.804688 L 1205.3125 3180.15625 L 1207.460938 3181.132812 L 1209.257812 3181.71875 L 1248.007812 3195.742188 L 1268.359375 3202.5 L 1322.578125 3215.15625 L 1330.273438 3217.148438 L 1334.960938 3218.164062 L 1363.984375 3222.851562 L 1371.445312 3224.179688 L 1406.71875 3228.710938 L 1412.578125 3229.21875 L 1419.21875 3229.492188 L 1485.46875 3232.265625 L 1494.84375 3232.148438 L 1503.59375 3231.601562 L 1574.21875 3225.78125 L 1577.148438 3225.429688 L 1579.335938 3225.039062 L 1591.71875 3222.851562 L 1618.28125 3218.671875 L 1648.671875 3212.109375 L 1659.414062 3209.648438 L 1678.203125 3204.0625 L 1700.585938 3197.695312 L 1712.460938 3193.59375 L 1741.71875 3182.421875 L 1743.28125 3181.71875 L 1771.523438 3170.390625 L 1817.578125 3146.992188 L 1823.984375 3143.945312 L 1826.054688 3142.617188 L 1829.21875 3140.585938 L 1865.15625 3119.570312 L 1877.421875 3111.71875 L 1893.4375 3099.414062 L 1906.289062 3090.625 L 1924.921875 3076.914062 L 1945.664062 3058.28125 L 1947.421875 3056.835938 L 1968.867188 3038.59375 L 1988.554688 3017.695312 L 1995.664062 3010.039062 L 2008.710938 2996.132812 L 2026.015625 2976.015625 L 2029.726562 2971.71875 L 2046.054688 2951.171875 L 2057.890625 2934.84375 L 2070.859375 2916.71875 L 2080.039062 2902.929688 L 2085.585938 2893.710938 L 2095.703125 2877.421875 L 2106.367188 2858.203125 L 2109.648438 2852.578125 L 2110.507812 2851.09375 L 2111.992188 2848.28125 L 2130.703125 2811.445312 L 2138.476562 2796.757812 L 2153.125 2759.53125 L 2161.914062 2737.929688 L 2164.726562 2729.140625 L 2184.179688 2677.890625 L 2190.15625 2646.875 L 2197.34375 2602.65625 L 2207.109375 2564.570312 L 2211.40625 2540.546875 L 2216.71875 2482.304688 L 2218.867188 2416.5625 L 2219.804688 2400 L 2218.710938 2383.28125 L 2217.148438 2335.976562 L 2215.898438 2317.695312 L 2213.4375 2295.703125 L 2210.039062 2260.820312 L 2206.015625 2235.429688 L 2199.101562 2199.101562 L 2197.773438 2190.78125 L 2194.296875 2176.09375 L 2189.101562 2153.125 L 2182.070312 2124.179688 L 2177.96875 2111.992188 L 2169.257812 2086.953125 L 2164.726562 2070.859375 L 2161.914062 2062.070312 L 2153.125 2040.46875 L 2138.476562 2003.242188 L 2130.703125 1988.554688 L 2111.992188 1951.71875 L 2110.507812 1948.90625 L 2109.648438 1947.421875 L 2106.367188 1941.796875 L 2095.703125 1922.578125 L 2085.585938 1906.289062 L 2080.429688 1896.71875 L 2070.859375 1883.28125 L 2057.890625 1865.15625 L 2046.679688 1848.164062 L 2029.726562 1828.28125 L 2026.015625 1823.984375 L 2009.453125 1803.125 L 1989.0625 1782.851562 L 1988.554688 1782.304688 L 1968.867188 1761.40625 L 1947.421875 1743.164062 L 1945.664062 1741.71875 L 1924.921875 1723.085938 L 1906.289062 1709.375 L 1901.132812 1705.703125 L 1893.4375 1700.585938 L 1877.070312 1688.632812 " transform="matrix(0.1, 0, 0, -0.1, 0, 480)"/>
<path fill-rule="nonzero" fill="rgb(0%, 0%, 0%)" fill-opacity="1" stroke-width="4.8" stroke-linecap="square" stroke-linejoin="miter" stroke="rgb(0%, 0%, 0%)" stroke-opacity="1" stroke-miterlimit="3.25" d="M 999.882812 1698.125 L 1000.820312 1701.210938 L 1003.320312 1708.320312 L 1005 1712.460938 L 1006.835938 1716.445312 L 1008.789062 1719.960938 L 1010.820312 1722.578125 L 1013.085938 1724.492188 L 1016.445312 1726.601562 L 1020.46875 1728.75 L 1024.6875 1730.859375 L 1032.070312 1734.179688 L 1035.3125 1735.546875 L 947.539062 1782.5 Z M 999.882812 1698.125 " transform="matrix(0.1, 0, 0, -0.1, 0, 480)"/>
<path fill-rule="nonzero" fill="rgb(0%, 0%, 0%)" fill-opacity="1" stroke-width="4.8" stroke-linecap="square" stroke-linejoin="miter" stroke="rgb(0%, 0%, 0%)" stroke-opacity="1" stroke-miterlimit="3.25" d="M 682.773438 2629.84375 L 685.976562 2630.117188 L 693.515625 2630.507812 L 697.96875 2630.546875 L 702.382812 2630.351562 L 706.367188 2629.84375 L 709.53125 2628.984375 L 712.1875 2627.578125 L 715.429688 2625.273438 L 718.945312 2622.421875 L 722.460938 2619.296875 L 728.359375 2613.710938 L 730.820312 2611.210938 L 741.054688 2710.234375 Z M 682.773438 2629.84375 " transform="matrix(0.1, 0, 0, -0.1, 0, 480)"/>
<path fill-rule="nonzero" fill="rgb(0%, 0%, 0%)" fill-opacity="1" stroke-width="4.8" stroke-linecap="square" stroke-linejoin="miter" stroke="rgb(0%, 0%, 0%)" stroke-opacity="1" stroke-miterlimit="3.25" d="M 1433.945312 3262.65625 L 1435.078125 3259.6875 L 1437.617188 3252.578125 L 1438.90625 3248.28125 L 1439.960938 3244.023438 L 1440.625 3240.039062 L 1440.703125 3236.757812 L 1440.117188 3233.828125 L 1438.828125 3230.078125 L 1437.03125 3225.898438 L 1435.039062 3221.640625 L 1431.367188 3214.375 L 1429.6875 3211.289062 L 1527.539062 3229.609375 Z M 1433.945312 3262.65625 " transform="matrix(0.1, 0, 0, -0.1, 0, 480)"/>
<path fill-rule="nonzero" fill="rgb(0%, 0%, 0%)" fill-opacity="1" stroke-width="4.8" stroke-linecap="square" stroke-linejoin="miter" stroke="rgb(0%, 0%, 0%)" stroke-opacity="1" stroke-miterlimit="3.25" d="M 2248.90625 2428.75 L 2245.9375 2427.539062 L 2238.867188 2424.960938 L 2234.609375 2423.59375 L 2230.351562 2422.5 L 2226.40625 2421.757812 L 2223.085938 2421.679688 L 2220.15625 2422.226562 L 2216.40625 2423.4375 L 2212.1875 2425.15625 L 2207.890625 2427.109375 L 2200.585938 2430.703125 L 2197.5 2432.304688 L 2217.070312 2334.726562 Z M 2248.90625 2428.75 " transform="matrix(0.1, 0, 0, -0.1, 0, 480)"/>
</svg>
